<svg width="319" height="105" viewBox="0 0 319 105" fill="none" xmlns="http://www.w3.org/2000/svg">
<path fill-rule="evenodd" clip-rule="evenodd" d="M11 1C5.47715 1 1 5.47715 1 11V63C1 68.5229 5.47716 73 11 73H16.7508L44.5284 99L31.0364 73H308C313.523 73 318 68.5229 318 63V11C318 5.47715 313.523 1 308 1H11Z" fill="white"/>
<path d="M16.7508 73L17.4342 72.2699L17.1458 72H16.7508V73ZM44.5284 99L43.845 99.7301L45.416 98.5394L44.5284 99ZM31.0364 73V72H29.3909L30.1488 73.4606L31.0364 73ZM2 11C2 6.02944 6.02944 2 11 2V0C4.92487 0 0 4.92487 0 11H2ZM2 63V11H0V63H2ZM11 72C6.02944 72 2 67.9706 2 63H0C0 69.0751 4.92487 74 11 74V72ZM16.7508 72H11V74H16.7508V72ZM16.0674 73.7301L43.845 99.7301L45.2117 98.2699L17.4342 72.2699L16.0674 73.7301ZM45.416 98.5394L31.924 72.5394L30.1488 73.4606L43.6408 99.4606L45.416 98.5394ZM308 72H31.0364V74H308V72ZM317 63C317 67.9706 312.971 72 308 72V74C314.075 74 319 69.0751 319 63H317ZM317 11V63H319V11H317ZM308 2C312.971 2 317 6.02944 317 11H319C319 4.92487 314.075 0 308 0V2ZM11 2H308V0H11V2Z" fill="#DA1182"/>
<path d="M26.4219 18.3281L30.0742 19.168L30.9531 30.3008L26.9688 31.8633L26.8125 27.9961H23.1504L22.9062 31.9414L18.9805 30.5156L19.8301 18.9922L23.6875 18.0742L23.4629 23.9727H26.5391L26.4219 18.3281ZM38.6289 22.8008C39.6641 23.6406 40.1947 24.7637 40.2207 26.1699L34.6152 28.7188C34.8626 29.0052 35.4225 29.1582 36.2949 29.1777C37.1738 29.1973 38.2643 28.6471 39.5664 27.5273L40.3086 30.0273C38.4076 31.9284 36.3372 32.625 34.0977 32.1172C32.2552 31.3815 31.1842 29.9199 30.8848 27.7324C30.8392 26.3457 31.0345 25.1901 31.4707 24.2656C32.4603 22.7682 33.7526 22.0293 35.3477 22.0488C36.6432 21.9642 37.737 22.2148 38.6289 22.8008ZM33.8145 26.3359L37.1055 24.8809C36.5586 24.2298 35.7708 24.0671 34.7422 24.3926C34.0326 24.7767 33.7233 25.4245 33.8145 26.3359ZM48.9316 22.4395L49.2734 25.584C49.2995 29.1126 48.5085 31.7038 46.9004 33.3574C45.2988 35.0111 43.9186 35.9583 42.7598 36.1992L40.8066 33.4551C42.6621 32.4655 44.1237 31.2904 45.1914 29.9297H43.8438C41.7604 29.9362 40.582 28.888 40.3086 26.7852C40.2435 25.444 40.2533 24.1191 40.3379 22.8105L43.1602 22.1074V22.8887C43.1602 25.2324 43.4499 26.5671 44.0293 26.8926C44.778 27.166 45.3607 27.1628 45.7773 26.8828C45.8034 25.1445 45.6862 23.4681 45.4258 21.8535L48.9316 22.4395ZM49.9375 17.7227C52.151 18.4453 53.3066 18.8555 53.4043 18.9531C52.7793 24.8516 52.418 27.8887 52.3203 28.0645C52.1706 28.0645 51.2786 28.2565 49.6445 28.6406C49.6445 28.5951 49.6217 28.5723 49.5762 28.5723C49.6217 27.6868 49.6934 24.0931 49.791 17.791L49.9375 17.7227ZM51.5977 29.1484H51.7441C52.4668 29.3568 52.8281 29.6953 52.8281 30.1641C52.8281 31.1146 52.1055 31.7656 50.6602 32.1172H50.4453C49.7682 32.1172 49.4297 31.7786 49.4297 31.1016V30.8867C49.4297 29.9492 50.1523 29.3698 51.5977 29.1484ZM73.1504 17.6836C72.9941 23.1719 72.7337 26.4629 72.3691 27.5566C71.5423 30.3236 69.9538 31.821 67.6035 32.0488C65.2142 32.0749 63.8503 30.9355 63.5117 28.6309C63.3945 27.2441 63.7331 25.8704 64.5273 24.5098L67.0273 26.3848C67.0534 27.0033 67.2943 27.306 67.75 27.293C68.5964 27.2148 68.9544 24.4056 68.8242 18.8652L73.1504 17.6836ZM80.6211 22.8008C81.6562 23.6406 82.1868 24.7637 82.2129 26.1699L76.6074 28.7188C76.8548 29.0052 77.4147 29.1582 78.2871 29.1777C79.166 29.1973 80.2565 28.6471 81.5586 27.5273L82.3008 30.0273C80.3997 31.9284 78.3294 32.625 76.0898 32.1172C74.2474 31.3815 73.1764 29.9199 72.877 27.7324C72.8314 26.3457 73.0267 25.1901 73.4629 24.2656C74.4525 22.7682 75.7448 22.0293 77.3398 22.0488C78.6354 21.9642 79.7292 22.2148 80.6211 22.8008ZM75.8066 26.3359L79.0977 24.8809C78.5508 24.2298 77.763 24.0671 76.7344 24.3926C76.0247 24.7767 75.7155 25.4245 75.8066 26.3359ZM90.8945 21.8535C92.2422 21.821 93.5671 22.5729 94.8691 24.1094L93.1406 25.8477C92.0013 24.9688 91.1484 24.5293 90.582 24.5293C90.2044 24.5944 90.0124 24.7539 90.0059 25.0078C90.097 25.3138 90.9759 25.8021 92.6426 26.4727C94.2246 27.4232 94.9603 28.5658 94.8496 29.9004C94.5632 31.1699 93.7233 31.8828 92.3301 32.0391C91.8158 32.1432 91.1517 32.166 90.3379 32.1074C88.9837 31.9056 87.8021 31.1927 86.793 29.9688L88.3555 27.9863C89.4427 28.8132 90.2142 29.2266 90.6699 29.2266C90.9629 29.2266 91.1549 29.1159 91.2461 28.8945C91.2461 28.543 90.5527 28.1328 89.166 27.6641C87.8053 26.987 87.125 25.9974 87.125 24.6953C87.1836 22.9115 88.4401 21.9642 90.8945 21.8535ZM98.209 21.8438L97.9258 25.7988C97.9128 27.4915 98.2513 28.3086 98.9414 28.25C99.5794 28.3737 99.8561 27.1725 99.7715 24.6465L99.6348 22.0098L102.936 22.752C103.229 26.9186 103.056 29.3861 102.418 30.1543C101.591 31.3457 100.325 31.9772 98.6191 32.0488C97.5059 32.0488 96.5456 31.5833 95.7383 30.6523C95.1328 29.6497 94.8301 28.4681 94.8301 27.1074C94.7845 25.916 94.8398 24.3275 94.9961 22.3418L98.209 21.8438ZM106.783 18.4258C107.545 18.4453 107.981 18.7578 108.092 19.3633C108.163 20.9974 107.258 21.8307 105.377 21.8633C104.687 21.8177 104.303 21.4173 104.225 20.6621C104.107 19.3796 104.96 18.6341 106.783 18.4258ZM107.232 23.3867C106.686 25.0404 106.464 26.4531 106.568 27.625C106.705 28.4518 107.125 28.6211 107.828 28.1328L109.098 30.7793C108.434 31.4694 107.519 31.8568 106.354 31.9414C104.329 32.0456 103.255 30.8997 103.131 28.5039C102.949 26.8503 103.186 24.8906 103.844 22.625L107.232 23.3867ZM112.359 21.8535C113.707 21.821 115.032 22.5729 116.334 24.1094L114.605 25.8477C113.466 24.9688 112.613 24.5293 112.047 24.5293C111.669 24.5944 111.477 24.7539 111.471 25.0078C111.562 25.3138 112.441 25.8021 114.107 26.4727C115.689 27.4232 116.425 28.5658 116.314 29.9004C116.028 31.1699 115.188 31.8828 113.795 32.0391C113.281 32.1432 112.617 32.166 111.803 32.1074C110.449 31.9056 109.267 31.1927 108.258 29.9688L109.82 27.9863C110.908 28.8132 111.679 29.2266 112.135 29.2266C112.428 29.2266 112.62 29.1159 112.711 28.8945C112.711 28.543 112.018 28.1328 110.631 27.6641C109.27 26.987 108.59 25.9974 108.59 24.6953C108.648 22.9115 109.905 21.9642 112.359 21.8535ZM126.188 17.8008C125.029 22.7747 124.449 25.9551 124.449 27.3418C124.449 28.2402 124.68 28.6895 125.143 28.6895C125.481 28.6699 125.764 28.5104 125.992 28.2109L127.467 30.2031C126.848 31.4336 125.764 32.0326 124.215 32C122.822 32 121.959 31.502 121.627 30.5059C121.367 29.8483 121.236 28.9792 121.236 27.8984C121.171 25.0599 121.643 21.7721 122.652 18.0352L126.188 17.8008ZM134.645 22.8008C135.68 23.6406 136.21 24.7637 136.236 26.1699L130.631 28.7188C130.878 29.0052 131.438 29.1582 132.311 29.1777C133.189 29.1973 134.28 28.6471 135.582 27.5273L136.324 30.0273C134.423 31.9284 132.353 32.625 130.113 32.1172C128.271 31.3815 127.2 29.9199 126.9 27.7324C126.855 26.3457 127.05 25.1901 127.486 24.2656C128.476 22.7682 129.768 22.0293 131.363 22.0488C132.659 21.9642 133.753 22.2148 134.645 22.8008ZM129.83 26.3359L133.121 24.8809C132.574 24.2298 131.786 24.0671 130.758 24.3926C130.048 24.7767 129.739 25.4245 129.83 26.3359ZM146.158 17.9375C147.981 17.9115 149.339 18.0482 150.23 18.3477L149.088 21.0234C148.521 20.8607 147.952 20.7793 147.379 20.7793C145.862 20.7793 145.104 21.4238 145.104 22.7129L147.789 22.8008L147.135 25.6914L145.006 25.7012C144.934 27.6283 144.915 29.5391 144.947 31.4336L141.119 32.2441C141.334 27.4395 141.66 23.7285 142.096 21.1113C142.792 18.9954 144.146 17.9375 146.158 17.9375ZM153.482 21.8535C155.13 21.7819 156.142 22.9766 156.52 25.4375C156.826 27.638 157.04 29.5553 157.164 31.1895L153.951 32.127L153.844 31.5117C152.945 31.8633 151.988 32.0358 150.973 32.0293C149.326 31.7363 148.44 30.7435 148.316 29.0508C148.316 27.625 149.251 26.7982 151.119 26.5703C151.926 26.4661 152.691 26.4629 153.414 26.5605C153.362 25.4342 153.163 24.8483 152.818 24.8027C152.206 24.7832 151.402 25.3333 150.406 26.4531L148.297 24.7832C149.645 22.7845 151.373 21.8079 153.482 21.8535ZM151.266 29.2266C151.37 29.4479 151.666 29.5618 152.154 29.5684C152.558 29.5553 153.043 29.4935 153.609 29.3828L153.512 28.4258L152.662 28.4355C151.686 28.4421 151.22 28.7057 151.266 29.2266ZM159.986 21.8047L160.074 22.459C161.038 22.2246 161.812 22.14 162.398 22.2051C163.186 22.2702 163.88 22.4915 164.479 22.8691C165.09 22.2051 166.142 21.873 167.633 21.873C168.811 21.873 169.752 22.4818 170.455 23.6992C170.676 24.3503 170.787 25.0143 170.787 25.6914C170.787 28.3997 170.709 30.5059 170.553 32.0098H167.584C167.59 30.7467 167.59 28.9076 167.584 26.4922C167.525 25.8997 167.2 25.5775 166.607 25.5254C165.813 25.5384 165.455 26.1243 165.533 27.2832L165.553 32.0098H162.662L162.633 30.0859L162.613 26.9414C162.568 26.4727 162.275 26.1992 161.734 26.1211C160.934 26.1276 160.527 26.5312 160.514 27.332L160.445 32.0098H157.086L157.115 27.3516C157.109 25.4245 157.014 23.7643 156.832 22.3711L159.986 21.8047ZM178.512 22.8008C179.547 23.6406 180.077 24.7637 180.104 26.1699L174.498 28.7188C174.745 29.0052 175.305 29.1582 176.178 29.1777C177.057 29.1973 178.147 28.6471 179.449 27.5273L180.191 30.0273C178.29 31.9284 176.22 32.625 173.98 32.1172C172.138 31.3815 171.067 29.9199 170.768 27.7324C170.722 26.3457 170.917 25.1901 171.354 24.2656C172.343 22.7682 173.635 22.0293 175.23 22.0488C176.526 21.9642 177.62 22.2148 178.512 22.8008ZM173.697 26.3359L176.988 24.8809C176.441 24.2298 175.654 24.0671 174.625 24.3926C173.915 24.7767 173.606 25.4245 173.697 26.3359ZM183.502 21.8438L183.219 25.7988C183.206 27.4915 183.544 28.3086 184.234 28.25C184.872 28.3737 185.149 27.1725 185.064 24.6465L184.928 22.0098L188.229 22.752C188.521 26.9186 188.349 29.3861 187.711 30.1543C186.884 31.3457 185.618 31.9772 183.912 32.0488C182.799 32.0488 181.839 31.5833 181.031 30.6523C180.426 29.6497 180.123 28.4681 180.123 27.1074C180.077 25.916 180.133 24.3275 180.289 22.3418L183.502 21.8438ZM196.354 21.7559L198.736 23.9629L195.953 26.7852L198.971 29.5684L196.344 32.1953L193.561 29.334L190.572 32.1953L188.326 29.9492L191.471 26.7852L189.215 23.9824L191.51 22.127L193.756 24.4512L196.354 21.7559ZM206.646 18.0059H209.215L210.914 21.1602L212.34 18.0059H215.064L218.775 28.7969L214.361 31.6777L212.281 25.8086L211.002 27.6543L209.635 25.9648L208.111 31.9805L203.629 29.5781L206.646 18.0059ZM226.207 22.8008C227.242 23.6406 227.773 24.7637 227.799 26.1699L222.193 28.7188C222.441 29.0052 223.001 29.1582 223.873 29.1777C224.752 29.1973 225.842 28.6471 227.145 27.5273L227.887 30.0273C225.986 31.9284 223.915 32.625 221.676 32.1172C219.833 31.3815 218.762 29.9199 218.463 27.7324C218.417 26.3457 218.613 25.1901 219.049 24.2656C220.038 22.7682 221.331 22.0293 222.926 22.0488C224.221 21.9642 225.315 22.2148 226.207 22.8008ZM221.393 26.3359L224.684 24.8809C224.137 24.2298 223.349 24.0671 222.32 24.3926C221.611 24.7767 221.301 25.4245 221.393 26.3359ZM232.75 17.8008C231.591 22.7747 231.012 25.9551 231.012 27.3418C231.012 28.2402 231.243 28.6895 231.705 28.6895C232.044 28.6699 232.327 28.5104 232.555 28.2109L234.029 30.2031C233.411 31.4336 232.327 32.0326 230.777 32C229.384 32 228.521 31.502 228.189 30.5059C227.929 29.8483 227.799 28.9792 227.799 27.8984C227.734 25.0599 228.206 21.7721 229.215 18.0352L232.75 17.8008ZM244.938 17.9082C247.047 17.9082 248.567 18.6797 249.498 20.2227L246.539 22.7031C245.947 22.332 245.305 22.1465 244.615 22.1465C242.955 22.179 242.008 23.123 241.773 24.9785C241.832 26.554 242.59 27.3743 244.049 27.4395C244.557 27.3743 244.96 27.1562 245.26 26.7852L243.736 26.4629L243.99 24.7051L248.697 24.0605C248.854 24.9004 248.932 25.6751 248.932 26.3848C248.932 29.3275 247.415 31.1927 244.381 31.9805C244.055 32.0456 243.518 32.0716 242.77 32.0586C240.947 32.0586 239.56 30.7272 238.609 28.0645C238.401 27.4069 238.297 26.554 238.297 25.5059C238.349 22.1725 239.706 19.7995 242.369 18.3867C243.508 18.0677 244.365 17.9082 244.938 17.9082ZM254.234 17.8008C253.076 22.7747 252.496 25.9551 252.496 27.3418C252.496 28.2402 252.727 28.6895 253.189 28.6895C253.528 28.6699 253.811 28.5104 254.039 28.2109L255.514 30.2031C254.895 31.4336 253.811 32.0326 252.262 32C250.868 32 250.006 31.502 249.674 30.5059C249.413 29.8483 249.283 28.9792 249.283 27.8984C249.218 25.0599 249.69 21.7721 250.699 18.0352L254.234 17.8008ZM258.346 21.8438L258.062 25.7988C258.049 27.4915 258.388 28.3086 259.078 28.25C259.716 28.3737 259.993 27.1725 259.908 24.6465L259.771 22.0098L263.072 22.752C263.365 26.9186 263.193 29.3861 262.555 30.1543C261.728 31.3457 260.462 31.9772 258.756 32.0488C257.643 32.0488 256.682 31.5833 255.875 30.6523C255.27 29.6497 254.967 28.4681 254.967 27.1074C254.921 25.916 254.977 24.3275 255.133 22.3418L258.346 21.8438ZM266.734 21.7754C266.786 21.8275 266.839 22.1432 266.891 22.7227C267.887 22.2995 268.733 22.0879 269.43 22.0879C271.077 22.0879 272.19 22.8366 272.77 24.334C273.017 25.2324 273.092 26.3132 272.994 27.5762C272.994 28.8197 272.359 29.8776 271.09 30.75C269.924 31.4531 268.655 31.4271 267.281 30.6719C267.132 34.2591 266.949 36.0527 266.734 36.0527C264.43 35.5645 263.238 35.2487 263.16 35.1055C263.525 31.4206 263.701 28.4844 263.688 26.2969L263.639 22.2539C263.919 22.1432 264.951 21.9837 266.734 21.7754ZM267.125 24.9492L267.203 27.498V28.2109L268.16 28.3672C269.215 28.3672 269.762 27.791 269.801 26.6387L269.811 25.9746C269.765 25.1673 269.267 24.7734 268.316 24.793L267.125 24.9492ZM276.656 21.8535C278.004 21.821 279.329 22.5729 280.631 24.1094L278.902 25.8477C277.763 24.9688 276.91 24.5293 276.344 24.5293C275.966 24.5944 275.774 24.7539 275.768 25.0078C275.859 25.3138 276.738 25.8021 278.404 26.4727C279.986 27.4232 280.722 28.5658 280.611 29.9004C280.325 31.1699 279.485 31.8828 278.092 32.0391C277.577 32.1432 276.913 32.166 276.1 32.1074C274.745 31.9056 273.564 31.1927 272.555 29.9688L274.117 27.9863C275.204 28.8132 275.976 29.2266 276.432 29.2266C276.725 29.2266 276.917 29.1159 277.008 28.8945C277.008 28.543 276.314 28.1328 274.928 27.6641C273.567 26.987 272.887 25.9974 272.887 24.6953C272.945 22.9115 274.202 21.9642 276.656 21.8535ZM285.953 21.9023C287.841 21.9023 289.088 22.7161 289.693 24.3438C289.817 24.7214 289.869 25.2064 289.85 25.7988C289.85 27.6803 289.065 29.4154 287.496 31.0039C286.715 31.7461 285.605 32.0977 284.166 32.0586C282.005 32 280.813 30.6719 280.592 28.0742C280.475 25.7305 281.324 23.9661 283.141 22.7812C284.13 22.1953 285.068 21.9023 285.953 21.9023ZM283.805 27.6445C283.915 28.3281 284.257 28.6699 284.83 28.6699C286.08 28.4616 286.734 27.804 286.793 26.6973C286.839 25.7988 286.523 25.3366 285.846 25.3105C284.511 25.5319 283.831 26.3099 283.805 27.6445ZM292.896 21.6582L292.984 22.4102C294 22.1107 294.892 21.9577 295.66 21.9512C296.852 22.0163 297.776 22.4688 298.434 23.3086C298.837 24.0052 299.029 24.8678 299.01 25.8965L298.785 32.0195H295.68L295.738 26.9219C295.758 25.9844 295.465 25.4863 294.859 25.4277C294.137 25.3691 293.661 25.6719 293.434 26.3359C293.303 27.0326 293.245 28.9271 293.258 32.0195H289.977L289.908 25.6719C289.908 24.7148 289.846 23.5983 289.723 22.3223L292.896 21.6582ZM299.928 29.9785L302.682 30.0469L302.438 32C301.715 33.4974 300.761 34.5033 299.576 35.0176L299.244 34.3633C299.563 33.4128 299.739 32.6055 299.771 31.9414L299.928 29.9785ZM24.166 44.8535C25.8132 44.7819 26.8255 45.9766 27.2031 48.4375C27.5091 50.638 27.724 52.5553 27.8477 54.1895L24.6348 55.127L24.5273 54.5117C23.6289 54.8633 22.6719 55.0358 21.6562 55.0293C20.0091 54.7363 19.1237 53.7435 19 52.0508C19 50.625 19.9342 49.7982 21.8027 49.5703C22.61 49.4661 23.375 49.4629 24.0977 49.5605C24.0456 48.4342 23.847 47.8483 23.502 47.8027C22.89 47.7832 22.0859 48.3333 21.0898 49.4531L18.9805 47.7832C20.3281 45.7845 22.0566 44.8079 24.166 44.8535ZM21.9492 52.2266C22.0534 52.4479 22.3496 52.5618 22.8379 52.5684C23.2415 52.5553 23.7266 52.4935 24.293 52.3828L24.1953 51.4258L23.3457 51.4355C22.3691 51.4421 21.9036 51.7057 21.9492 52.2266ZM32.0664 44.9609C33.8047 44.8893 35.2044 45.4134 36.2656 46.5332L34.2832 48.5938C33.7754 48.151 33.2253 47.9329 32.6328 47.9395C31.6823 47.9655 31.1354 48.5417 30.9922 49.668C30.9206 50.7552 31.334 51.3867 32.2324 51.5625C32.8118 51.6667 33.4466 51.3932 34.1367 50.7422L35.8652 52.3926C34.7194 54.1699 33.1243 55.0488 31.0801 55.0293C29.7129 55.0293 28.7233 54.3685 28.1113 53.0469C27.7793 52.3112 27.6133 51.4583 27.6133 50.4883C27.6393 48.2617 28.1895 46.722 29.2637 45.8691C29.9082 45.2637 30.8424 44.9609 32.0664 44.9609ZM41.4316 40.8789L40.9629 44.3652L42.1152 44.4531L42.3789 46.9922L40.3574 47.0605C39.5957 49.9837 39.638 51.5592 40.4844 51.7871C40.7904 51.8132 41.054 51.735 41.2754 51.5527L42.7598 53.75C41.8678 54.6419 40.7969 55.0879 39.5469 55.0879C38.1081 55.0879 37.2194 54.5117 36.8809 53.3594C36.5033 51.7643 36.5293 49.6549 36.959 47.0312L35.3281 46.9727L35.7676 44.3945L37.4277 44.2871L37.7988 41.25L41.4316 40.8789ZM50.1133 45.8008C51.1484 46.6406 51.679 47.7637 51.7051 49.1699L46.0996 51.7188C46.347 52.0052 46.9069 52.1582 47.7793 52.1777C48.6582 52.1973 49.7487 51.6471 51.0508 50.5273L51.793 53.0273C49.8919 54.9284 47.8216 55.625 45.582 55.1172C43.7396 54.3815 42.6686 52.9199 42.3691 50.7324C42.3236 49.3457 42.5189 48.1901 42.9551 47.2656C43.9447 45.7682 45.237 45.0293 46.832 45.0488C48.1276 44.9642 49.2214 45.2148 50.1133 45.8008ZM45.2988 49.3359L48.5898 47.8809C48.043 47.2298 47.2552 47.0671 46.2266 47.3926C45.5169 47.7767 45.2077 48.4245 45.2988 49.3359ZM55.1035 44.8438L54.8203 48.7988C54.8073 50.4915 55.1458 51.3086 55.8359 51.25C56.474 51.3737 56.7507 50.1725 56.666 47.6465L56.5293 45.0098L59.8301 45.752C60.123 49.9186 59.9505 52.3861 59.3125 53.1543C58.4857 54.3457 57.2194 54.9772 55.5137 55.0488C54.4004 55.0488 53.4401 54.5833 52.6328 53.6523C52.0273 52.6497 51.7246 51.4681 51.7246 50.1074C51.679 48.916 51.7344 47.3275 51.8906 45.3418L55.1035 44.8438ZM63.8047 44.8438L63.707 47.4121C64.8984 46.2533 65.8652 45.6445 66.6074 45.5859L68.0137 48.2324C65.9954 48.7598 64.5892 49.7819 63.7949 51.2988L63.9023 55.0195H59.957L60.3184 45.5859L63.8047 44.8438ZM79.0098 40.8203C81.347 41.3151 82.5547 41.6374 82.6328 41.7871C82.1771 47.2493 82.125 51.569 82.4766 54.7461L79.0879 55.3125L79.0098 54.5117C78.2415 54.8828 77.5156 55.0684 76.832 55.0684H76.3535C74.6413 55.0684 73.515 54.2611 72.9746 52.6465C72.8639 52.2038 72.7826 51.6081 72.7305 50.8594L72.6719 49.9512C72.6458 48.278 73.0332 47.1061 73.834 46.4355C74.6413 45.7585 75.569 45.4492 76.6172 45.5078C77.3138 45.5339 77.9583 45.791 78.5508 46.2793C78.5312 45.446 78.6289 43.6523 78.8438 40.8984L79.0098 40.8203ZM76.0215 49.7949L76.0312 50.2832C76.0833 51.5397 76.5944 52.168 77.5645 52.168L78.6191 52.1094L78.5215 48.8477C78.1374 48.6263 77.6003 48.5547 76.9102 48.6328C76.3047 48.7891 76.0085 49.1764 76.0215 49.7949ZM90.3867 45.8008C91.4219 46.6406 91.9525 47.7637 91.9785 49.1699L86.373 51.7188C86.6204 52.0052 87.1803 52.1582 88.0527 52.1777C88.9316 52.1973 90.0221 51.6471 91.3242 50.5273L92.0664 53.0273C90.1654 54.9284 88.0951 55.625 85.8555 55.1172C84.013 54.3815 82.9421 52.9199 82.6426 50.7324C82.597 49.3457 82.7923 48.1901 83.2285 47.2656C84.2181 45.7682 85.5104 45.0293 87.1055 45.0488C88.401 44.9642 89.4948 45.2148 90.3867 45.8008ZM85.5723 49.3359L88.8633 47.8809C88.3164 47.2298 87.5286 47.0671 86.5 47.3926C85.7904 47.7767 85.4811 48.4245 85.5723 49.3359ZM103.414 41.25C105.341 41.8359 106.243 42.9688 106.119 44.6484C105.937 45.4036 105.432 46.1263 104.605 46.8164L105.406 47.002C107.431 47.7181 108.508 48.8639 108.639 50.4395C108.704 51.4811 108.482 52.4154 107.975 53.2422C106.653 54.7591 103.482 55.3581 98.4629 55.0391L96.7441 42.3145C99.166 41.1947 101.389 40.8398 103.414 41.25ZM101.402 44.2383L101.539 45.5859C102.49 45.332 103.007 44.9056 103.092 44.3066C103.066 44.1374 102.952 44.0202 102.75 43.9551C102.372 43.8704 101.923 43.9648 101.402 44.2383ZM102.008 51.7285C103.694 51.5788 104.557 51.2142 104.596 50.6348C104.667 50.3158 104.518 50.1107 104.146 50.0195C103.443 49.8568 102.704 49.9121 101.93 50.1855L102.008 51.7285ZM113.58 44.8535C115.227 44.7819 116.24 45.9766 116.617 48.4375C116.923 50.638 117.138 52.5553 117.262 54.1895L114.049 55.127L113.941 54.5117C113.043 54.8633 112.086 55.0358 111.07 55.0293C109.423 54.7363 108.538 53.7435 108.414 52.0508C108.414 50.625 109.348 49.7982 111.217 49.5703C112.024 49.4661 112.789 49.4629 113.512 49.5605C113.46 48.4342 113.261 47.8483 112.916 47.8027C112.304 47.7832 111.5 48.3333 110.504 49.4531L108.395 47.7832C109.742 45.7845 111.471 44.8079 113.58 44.8535ZM111.363 52.2266C111.467 52.4479 111.764 52.5618 112.252 52.5684C112.656 52.5553 113.141 52.4935 113.707 52.3828L113.609 51.4258L112.76 51.4355C111.783 51.4421 111.318 51.7057 111.363 52.2266ZM120.172 44.7754L120.934 50.0977C121.259 47.7669 121.559 46.0742 121.832 45.0195L124.996 46.3574C123.609 51.748 122.831 54.6322 122.662 55.0098H119.254C119.026 54.8079 118.277 51.5918 117.008 45.3613L120.172 44.7754ZM132.73 45.8008C133.766 46.6406 134.296 47.7637 134.322 49.1699L128.717 51.7188C128.964 52.0052 129.524 52.1582 130.396 52.1777C131.275 52.1973 132.366 51.6471 133.668 50.5273L134.41 53.0273C132.509 54.9284 130.439 55.625 128.199 55.1172C126.357 54.3815 125.286 52.9199 124.986 50.7324C124.941 49.3457 125.136 48.1901 125.572 47.2656C126.562 45.7682 127.854 45.0293 129.449 45.0488C130.745 44.9642 131.839 45.2148 132.73 45.8008ZM127.916 49.3359L131.207 47.8809C130.66 47.2298 129.872 47.0671 128.844 47.3926C128.134 47.7767 127.825 48.4245 127.916 49.3359ZM137.535 40.8594L137.467 45.9668C139.107 45.3353 140.39 45.2148 141.314 45.6055C142.597 46.0352 143.16 47.3275 143.004 49.4824C142.965 50.6022 142.91 52.4447 142.838 55.0098L139.938 55C139.977 54.0039 139.973 52.3926 139.928 50.166C139.824 49.5801 139.521 49.3197 139.02 49.3848C138.303 49.3848 137.88 49.7689 137.75 50.5371L137.613 55.0098H134.625L134.547 48.0859L134.469 41.4844L137.535 40.8594ZM150.68 45.8008C151.715 46.6406 152.245 47.7637 152.271 49.1699L146.666 51.7188C146.913 52.0052 147.473 52.1582 148.346 52.1777C149.225 52.1973 150.315 51.6471 151.617 50.5273L152.359 53.0273C150.458 54.9284 148.388 55.625 146.148 55.1172C144.306 54.3815 143.235 52.9199 142.936 50.7324C142.89 49.3457 143.085 48.1901 143.521 47.2656C144.511 45.7682 145.803 45.0293 147.398 45.0488C148.694 44.9642 149.788 45.2148 150.68 45.8008ZM145.865 49.3359L149.156 47.8809C148.609 47.2298 147.822 47.0671 146.793 47.3926C146.083 47.7767 145.774 48.4245 145.865 49.3359ZM157.447 44.8535C159.094 44.7819 160.107 45.9766 160.484 48.4375C160.79 50.638 161.005 52.5553 161.129 54.1895L157.916 55.127L157.809 54.5117C156.91 54.8633 155.953 55.0358 154.938 55.0293C153.29 54.7363 152.405 53.7435 152.281 52.0508C152.281 50.625 153.215 49.7982 155.084 49.5703C155.891 49.4661 156.656 49.4629 157.379 49.5605C157.327 48.4342 157.128 47.8483 156.783 47.8027C156.171 47.7832 155.367 48.3333 154.371 49.4531L152.262 47.7832C153.609 45.7845 155.338 44.8079 157.447 44.8535ZM155.23 52.2266C155.335 52.4479 155.631 52.5618 156.119 52.5684C156.523 52.5553 157.008 52.4935 157.574 52.3828L157.477 51.4258L156.627 51.4355C155.65 51.4421 155.185 51.7057 155.23 52.2266ZM164.703 44.8438L164.605 47.4121C165.797 46.2533 166.764 45.6445 167.506 45.5859L168.912 48.2324C166.894 48.7598 165.488 49.7819 164.693 51.2988L164.801 55.0195H160.855L161.217 45.5859L164.703 44.8438ZM174.244 40.8789L173.775 44.3652L174.928 44.4531L175.191 46.9922L173.17 47.0605C172.408 49.9837 172.451 51.5592 173.297 51.7871C173.603 51.8132 173.867 51.735 174.088 51.5527L175.572 53.75C174.68 54.6419 173.609 55.0879 172.359 55.0879C170.921 55.0879 170.032 54.5117 169.693 53.3594C169.316 51.7643 169.342 49.6549 169.771 47.0312L168.141 46.9727L168.58 44.3945L170.24 44.2871L170.611 41.25L174.244 40.8789ZM175.748 52.7832L178.697 52.8516L178.424 55.1172L175.592 54.9414L175.748 52.7832ZM179.635 52.7832L182.584 52.8516L182.311 55.1172L179.479 54.9414L179.635 52.7832ZM183.521 52.7832L186.471 52.8516L186.197 55.1172L183.365 54.9414L183.521 52.7832ZM197.124 45.3955C199.134 46.0563 200.241 47.2344 200.446 48.9297C200.496 49.4492 200.449 49.9847 200.303 50.5361C199.965 52.0537 198.817 53.3776 196.857 54.5078C195.572 55.0091 194.326 55.2438 193.118 55.2119L191.724 45.8262C193.437 45.1699 195.237 45.0264 197.124 45.3955ZM195.381 47.8086L195.853 52.1289C196.892 51.6823 197.534 50.903 197.78 49.791C197.903 49.0527 197.653 48.4717 197.028 48.0479C196.44 47.7607 195.891 47.681 195.381 47.8086ZM204.09 47.9316C205.411 47.9316 206.284 48.5013 206.708 49.6406C206.795 49.9049 206.831 50.2445 206.817 50.6592C206.817 51.9762 206.268 53.1908 205.17 54.3027C204.623 54.8223 203.846 55.0684 202.839 55.041C201.326 55 200.492 54.0703 200.337 52.252C200.255 50.6113 200.85 49.3763 202.121 48.5469C202.814 48.1367 203.47 47.9316 204.09 47.9316ZM202.586 51.9512C202.663 52.4297 202.903 52.6689 203.304 52.6689C204.179 52.5231 204.637 52.0628 204.678 51.2881C204.71 50.6592 204.489 50.3356 204.015 50.3174C203.08 50.4723 202.604 51.0169 202.586 51.9512ZM208.95 47.7607L209.012 48.2871C209.723 48.0775 210.347 47.9704 210.885 47.9658C211.719 48.0114 212.366 48.3281 212.826 48.916C213.109 49.4036 213.243 50.0075 213.229 50.7275L213.072 55.0137H210.898L210.939 51.4453C210.953 50.7891 210.748 50.4404 210.324 50.3994C209.818 50.3584 209.486 50.5703 209.326 51.0352C209.235 51.5228 209.194 52.849 209.203 55.0137H206.906L206.858 50.5703C206.858 49.9004 206.815 49.1188 206.729 48.2256L208.95 47.7607ZM216.34 47.9727C217.557 47.9225 218.536 48.2894 219.279 49.0732L217.892 50.5156C217.536 50.2057 217.151 50.0531 216.736 50.0576C216.071 50.0758 215.688 50.4792 215.588 51.2676C215.538 52.0286 215.827 52.4707 216.456 52.5938C216.862 52.6667 217.306 52.4753 217.789 52.0195L218.999 53.1748C218.197 54.4189 217.08 55.0342 215.649 55.0205C214.692 55.0205 214 54.5579 213.571 53.6328C213.339 53.1178 213.223 52.5208 213.223 51.8418C213.241 50.2832 213.626 49.2054 214.378 48.6084C214.829 48.1846 215.483 47.9727 216.34 47.9727Z" fill="#DA1182"/>
<path d="M225.705 45.1836L225.186 52.1084L229.458 52.0537C229.385 53.4482 229.349 54.3301 229.349 54.6992L222.376 55.0137L222.745 45.5664L225.705 45.1836ZM231.933 45.498C232.466 45.5117 232.771 45.7305 232.849 46.1543C232.899 47.2982 232.265 47.8815 230.948 47.9043C230.465 47.8724 230.196 47.5921 230.142 47.0635C230.06 46.1657 230.657 45.6439 231.933 45.498ZM232.247 48.9707C231.864 50.1283 231.709 51.1172 231.782 51.9375C231.878 52.5163 232.172 52.6348 232.664 52.293L233.553 54.1455C233.088 54.6286 232.448 54.8997 231.632 54.959C230.215 55.0319 229.463 54.2298 229.376 52.5527C229.248 51.3952 229.415 50.0234 229.875 48.4375L232.247 48.9707ZM236.738 46.0107C236.515 47.5146 236.376 48.7542 236.321 49.7295L238.885 48.4717L239.473 50.2354L237.47 51.4727C238.062 51.9785 238.705 52.6393 239.397 53.4551L237.784 54.9658L235.904 53.0107C235.758 53.7399 235.631 54.4076 235.521 55.0137H233.286C233.674 51.1309 233.995 47.8405 234.25 45.1426L236.738 46.0107ZM244.805 48.5605C245.529 49.1484 245.901 49.9346 245.919 50.9189L241.995 52.7031C242.168 52.9036 242.56 53.0107 243.171 53.0244C243.786 53.0381 244.549 52.653 245.461 51.8691L245.98 53.6191C244.65 54.9499 243.201 55.4375 241.633 55.082C240.343 54.5671 239.593 53.5439 239.384 52.0127C239.352 51.042 239.489 50.2331 239.794 49.5859C240.487 48.5378 241.391 48.0205 242.508 48.0342C243.415 47.9749 244.18 48.1504 244.805 48.5605ZM241.435 51.0352L243.738 50.0166C243.355 49.5609 242.804 49.4469 242.084 49.6748C241.587 49.9437 241.371 50.3971 241.435 51.0352ZM251.647 48.0205L251.702 48.1367V49.3945C251.442 49.7318 250.563 50.7663 249.063 52.498V52.5527L249.18 52.498C250.798 52.4206 251.695 52.3818 251.873 52.3818C251.873 52.3454 251.894 52.3271 251.935 52.3271L251.989 52.4365C251.798 54.0407 251.663 54.902 251.586 55.0205C248.546 55.098 246.71 55.1367 246.076 55.1367L246.021 55.0205V53.9336C246.021 53.7103 246.001 53.4027 245.96 53.0107L248.373 50.3721H246.021C245.944 50.3721 245.905 50.3333 245.905 50.2559C246.265 49.0163 246.495 48.3281 246.596 48.1914C246.906 48.1549 248.59 48.098 251.647 48.0205ZM252.434 52.6826L252.509 50.8369L256.72 50.6318L256.521 52.751L252.434 52.6826ZM259.345 47.8633L259.406 48.3213C260.081 48.1572 260.623 48.098 261.033 48.1436C261.585 48.1891 262.07 48.3441 262.489 48.6084C262.918 48.1436 263.654 47.9111 264.697 47.9111C265.522 47.9111 266.181 48.3372 266.673 49.1895C266.828 49.6452 266.905 50.11 266.905 50.584C266.905 52.4798 266.851 53.9541 266.741 55.0068H264.663C264.668 54.1227 264.668 52.8353 264.663 51.1445C264.622 50.7298 264.394 50.5042 263.979 50.4678C263.424 50.4769 263.173 50.887 263.228 51.6982L263.241 55.0068H261.218L261.197 53.6602L261.184 51.459C261.152 51.1309 260.947 50.9395 260.568 50.8848C260.008 50.8893 259.723 51.1719 259.714 51.7324L259.666 55.0068H257.314L257.335 51.7461C257.33 50.3971 257.264 49.235 257.137 48.2598L259.345 47.8633ZM270.658 47.9316C271.98 47.9316 272.853 48.5013 273.276 49.6406C273.363 49.9049 273.399 50.2445 273.386 50.6592C273.386 51.9762 272.837 53.1908 271.738 54.3027C271.191 54.8223 270.414 55.0684 269.407 55.041C267.894 55 267.06 54.0703 266.905 52.252C266.823 50.6113 267.418 49.3763 268.689 48.5469C269.382 48.1367 270.038 47.9316 270.658 47.9316ZM269.154 51.9512C269.232 52.4297 269.471 52.6689 269.872 52.6689C270.747 52.5231 271.205 52.0628 271.246 51.2881C271.278 50.6592 271.057 50.3356 270.583 50.3174C269.649 50.4723 269.173 51.0169 269.154 51.9512ZM275.956 45.498C276.489 45.5117 276.795 45.7305 276.872 46.1543C276.922 47.2982 276.289 47.8815 274.972 47.9043C274.489 47.8724 274.22 47.5921 274.165 47.0635C274.083 46.1657 274.68 45.6439 275.956 45.498ZM276.271 48.9707C275.888 50.1283 275.733 51.1172 275.806 51.9375C275.901 52.5163 276.195 52.6348 276.688 52.293L277.576 54.1455C277.111 54.6286 276.471 54.8997 275.655 54.959C274.238 55.0319 273.486 54.2298 273.399 52.5527C273.272 51.3952 273.438 50.0234 273.898 48.4375L276.271 48.9707ZM281.363 45.0059C282.913 45.5117 283.722 45.7988 283.79 45.8672C283.353 49.9961 283.1 52.1221 283.031 52.2451C282.926 52.2451 282.302 52.3796 281.158 52.6484C281.158 52.6165 281.142 52.6006 281.11 52.6006C281.142 51.9808 281.192 49.4652 281.261 45.0537L281.363 45.0059ZM282.525 53.0039H282.628C283.134 53.1497 283.387 53.3867 283.387 53.7148C283.387 54.3802 282.881 54.8359 281.869 55.082H281.719C281.245 55.082 281.008 54.8451 281.008 54.3711V54.2207C281.008 53.5645 281.514 53.1589 282.525 53.0039Z" fill="#3AAA35"/>
<path fill-rule="evenodd" clip-rule="evenodd" d="M304.933 81H220V105H304.933V104.834C305.54 104.943 306.164 105 306.8 105C312.986 105 318 99.6274 318 93C318 86.3726 312.986 81 306.8 81C306.164 81 305.54 81.0568 304.933 81.1659V81Z" fill="#3AAA35"/>
<circle cx="220" cy="93" r="9" fill="white"/>
<path fill-rule="evenodd" clip-rule="evenodd" d="M220 105C226.627 105 232 99.6274 232 93C232 86.3726 226.627 81 220 81C213.373 81 208 86.3726 208 93C208 99.6274 213.373 105 220 105ZM222.573 88.2C222.73 88.2 222.9 88.2085 223.08 88.2256C224.175 88.3296 225.444 89.3087 225.6 91.1851V91.8094C225.456 93.6055 224.065 95.8196 220 98.6C215.935 95.8213 214.543 93.6055 214.4 91.8094V91.1851C214.554 89.3087 215.823 88.3296 216.92 88.2256C217.1 88.2085 217.27 88.2 217.427 88.2C218.694 88.2 219.304 88.7339 220 89.5424C220.696 88.7339 221.304 88.2 222.573 88.2Z" fill="#3AAA35"/>
<path d="M229.7 94.326V92.646H232.066V90.294H233.746V92.646H236.14V94.326H233.746V96.706H232.066V94.326H229.7ZM242.686 87.76V97H240.754V89.944L238.752 91.232L237.87 89.79L240.922 87.76H242.686ZM256.906 94.76C257.186 95.2453 257.704 95.488 258.46 95.488C259.216 95.488 259.73 95.2453 260 94.76C260.28 94.2653 260.42 93.444 260.42 92.296C260.42 91.1387 260.28 90.2987 260 89.776C259.72 89.2533 259.207 88.992 258.46 88.992C257.714 88.992 257.2 89.2533 256.92 89.776C256.64 90.2987 256.5 91.1387 256.5 92.296C256.5 93.444 256.636 94.2653 256.906 94.76ZM261.512 95.992C260.924 96.776 259.907 97.168 258.46 97.168C257.014 97.168 255.992 96.776 255.394 95.992C254.806 95.1987 254.512 93.962 254.512 92.282C254.512 90.602 254.806 89.356 255.394 88.544C255.992 87.7227 257.014 87.312 258.46 87.312C259.907 87.312 260.924 87.7227 261.512 88.544C262.11 89.356 262.408 90.602 262.408 92.282C262.408 93.962 262.11 95.1987 261.512 95.992ZM263.981 97V87.2H265.857V97H263.981ZM267.671 97V90H269.547V97H267.671ZM267.671 89.104V87.2H269.547V89.104H267.671ZM270.622 90H272.582L273.702 95.404H274.094L275.27 90H277.174L275.494 97H272.302L270.622 90ZM278.253 97V90H280.129V97H278.253ZM278.253 89.104V87.2H280.129V89.104H278.253ZM283.402 94.298C283.411 94.7273 283.523 95.04 283.738 95.236C283.962 95.4227 284.279 95.516 284.69 95.516C285.558 95.516 286.333 95.488 287.014 95.432L287.406 95.39L287.434 96.776C286.361 97.0373 285.39 97.168 284.522 97.168C283.467 97.168 282.702 96.888 282.226 96.328C281.75 95.768 281.512 94.858 281.512 93.598C281.512 91.0873 282.543 89.832 284.606 89.832C286.641 89.832 287.658 90.8867 287.658 92.996L287.518 94.298H283.402ZM285.81 92.87C285.81 92.31 285.721 91.9227 285.544 91.708C285.367 91.484 285.054 91.372 284.606 91.372C284.167 91.372 283.855 91.4887 283.668 91.722C283.491 91.946 283.397 92.3287 283.388 92.87H285.81ZM288.999 97V90H290.861V90.742C291.645 90.2753 292.392 89.972 293.101 89.832V91.722C292.345 91.8807 291.696 92.044 291.155 92.212L290.875 92.31V97H288.999ZM297.452 87.48H301.19C302.179 87.48 302.921 87.6807 303.416 88.082C303.911 88.474 304.158 89.1133 304.158 90C304.158 90.532 304.079 90.9567 303.92 91.274C303.761 91.582 303.491 91.8573 303.108 92.1C303.528 92.2773 303.836 92.534 304.032 92.87C304.237 93.206 304.34 93.6727 304.34 94.27C304.34 95.194 304.069 95.88 303.528 96.328C302.987 96.776 302.226 97 301.246 97H297.452V87.48ZM301.148 93.024H299.384V95.348H301.148C301.568 95.348 301.876 95.264 302.072 95.096C302.277 94.928 302.38 94.62 302.38 94.172C302.38 93.4067 301.969 93.024 301.148 93.024ZM301.092 89.132H299.384V91.4H301.106C301.834 91.4 302.198 91.022 302.198 90.266C302.198 89.51 301.829 89.132 301.092 89.132ZM305.731 97V94.676H307.747V97H305.731Z" fill="white"/>
</svg>
