<svg width="284" height="284" viewBox="0 0 284 284" fill="none" xmlns="http://www.w3.org/2000/svg">
<path d="M251.5 0H32C14.3 0 0 14.3 0 31.9V251.5C0 269.1 14.3 283.4 32 283.4H251.5C269.2 283.4 283.5 269.1 283.5 251.5V31.9C283.5 14.3 269.1 0 251.5 0ZM270.6 251.5C270.6 262 262.1 270.5 251.5 270.5H32C21.5 270.5 12.9 262 12.9 251.5V31.9C12.9 21.4 21.5 12.9 32 12.9H251.5C262 12.9 270.6 21.4 270.6 31.9V251.5Z" fill="white"/>
<path d="M51 247.7C54 247.7 55.2 245.7 55.2 242.1V216.1C55.2 211.7 53.2 209.7 48.8 209.7H47V247.7H51ZM39 201.7H50.4C59.3 201.7 63.4 206.5 63.4 216.5V240.5C63.4 250.8 59.7 255.5 50.8 255.5H39V201.7Z" fill="white"/>
<path d="M69.2 201.7H90.1V209.5H77.2V223.6H86.5V231.4H77.2V247.5H90.1V255.6H69.2V201.7Z" fill="white"/>
<path d="M96.3 201.7H104.2V247.8H116.7V255.6H96.3V201.7Z" fill="white"/>
<path d="M129.1 201.7V223.7H137.2V201.7H145.2V255.6H137.2V231.5H129.1V255.6H121.2V201.7H129.1Z" fill="white"/>
<path d="M167.2 236.3L164.5 213.8H164L161.1 236.3H167.2ZM159.1 201.7H169.6L178.1 255.6H169.9L168.3 243.9H160.2L158.5 255.6H150.6L159.1 201.7Z" fill="white"/>
<path d="M190.8 201.7H182.6V255.6H190.8V201.7Z" fill="white"/>
<path d="M197 247.3L211.4 210H198.2V201.7H220.1V209.5L205.5 247.3H220.1V255.6H197V247.3Z" fill="white"/>
<path d="M225.9 201.7H246.9V209.5H234V223.6H243.2V231.4H234V247.5H246.9V255.6H225.9V201.7Z" fill="white"/>
<path d="M154.8 188.5L158 176.8L168.4 173.8L192.9 126.3L157.2 143.9H126.9L117.2 161.4L127 177.1L124.8 188.6L87.9 188.5L90.6 178.2L100.5 172.5L91.4 149.8L70.3 178.2L73 188.5H40L44.4 174.4L50.7 171.6L65.7 148.1L59.5 127.1L47.8 132.9L65.1 83L57.2 71.5L61.6 64.8L73 74L80 62.6H53.1L53.4 68.3L45.8 68.2L46.8 56.7H79.4L78 51.9L60.8 54.5L56.1 38.8L77.4 38.3L78.8 34L107.4 33.6L125.8 27.9L119.7 47.3L126.6 41.6L128.6 92.8H220.3V81.4H141.7L139.3 57.2L141.8 33.8H235.7V59.1L224.4 45.6H152.4L151.2 57.2L152.4 69.2H224.4L235.7 78.8V120L246.7 164.8L238.8 188.5H204.3L208.8 176.8L220.2 174.3L224.7 164L211.3 149.2L192 176.2L190.4 188.5H154.8Z" fill="white"/>
</svg>
