<svg width="314" height="172" viewBox="0 0 314 172" fill="none" xmlns="http://www.w3.org/2000/svg">
<path opacity="0.18" d="M93.5537 158.551C95.1601 158.551 96.7288 158.578 98.249 158.632C102.869 156.643 110.459 155.344 119.051 155.344C123.175 155.344 127.067 155.646 130.512 156.174C135.191 154.438 142.274 153.333 150.204 153.333C157.858 153.333 164.726 154.363 169.4 155.996C172.537 155.576 175.998 155.338 179.642 155.338C184.758 155.338 189.512 155.802 193.507 156.589C197.496 155.797 202.255 155.338 207.371 155.338C221.451 155.338 232.869 158.826 232.869 163.122C232.869 167.424 221.451 170.906 207.371 170.906C202.255 170.906 197.501 170.443 193.507 169.656C189.517 170.448 184.758 170.906 179.642 170.906C171.987 170.906 165.12 169.877 160.446 168.244C157.309 168.664 153.848 168.901 150.204 168.901C146.08 168.901 142.188 168.599 138.743 168.071C134.064 169.807 126.981 170.912 119.051 170.912C110.459 170.912 102.869 169.613 98.249 167.624C96.7288 167.672 95.1601 167.704 93.5537 167.704C79.4734 167.704 68.0561 165.656 68.0561 163.128C68.0561 160.6 79.4734 158.551 93.5537 158.551Z" fill="#D60B52"/>
<path opacity="0.25" d="M64.1911 158.799C65.8676 158.799 67.5117 158.826 69.1019 158.88C73.9373 156.891 81.8777 155.592 90.8638 155.592C95.1763 155.592 99.2516 155.894 102.853 156.422C107.747 154.686 115.154 153.581 123.455 153.581C131.466 153.581 138.646 154.611 143.536 156.244C146.818 155.824 150.441 155.586 154.252 155.586C159.6 155.586 164.58 156.05 168.753 156.837C172.931 156.045 177.906 155.586 183.254 155.586C197.986 155.586 209.926 159.074 209.926 163.37C209.926 167.672 197.986 171.154 183.254 171.154C177.906 171.154 172.925 170.691 168.753 169.904C164.575 170.696 159.6 171.154 154.252 171.154C146.242 171.154 139.061 170.125 134.172 168.491C130.889 168.912 127.267 169.149 123.455 169.149C119.143 169.149 115.068 168.847 111.467 168.319C106.572 170.055 99.1654 171.16 90.8638 171.16C81.8777 171.16 73.9319 169.861 69.1019 167.872C67.5117 167.92 65.8676 167.952 64.1911 167.952C49.4585 167.952 37.5183 165.904 37.5183 163.376C37.5183 160.853 49.4639 158.799 64.1911 158.799Z" fill="#D60B52"/>
<path opacity="0.23" d="M26.1495 158.799C27.7559 158.799 29.3246 158.826 30.8447 158.88C35.4645 156.891 43.0544 155.592 51.6471 155.592C55.7709 155.592 59.6629 155.894 63.1075 156.422C67.7866 154.686 74.8699 153.581 82.7995 153.581C90.4541 153.581 97.3218 154.611 101.995 156.244C105.133 155.824 108.594 155.586 112.238 155.586C117.353 155.586 122.108 156.05 126.102 156.837C130.091 156.045 134.851 155.586 139.967 155.586C154.047 155.586 165.465 159.074 165.465 163.37C165.465 167.672 154.047 171.154 139.967 171.154C134.851 171.154 130.097 170.691 126.102 169.904C122.113 170.696 117.353 171.154 112.238 171.154C104.583 171.154 97.7153 170.125 93.0416 168.491C89.9043 168.912 86.4435 169.149 82.7995 169.149C78.6756 169.149 74.7836 168.847 71.339 168.319C66.6599 170.055 59.5767 171.16 51.6471 171.16C43.0544 171.16 35.4645 169.861 30.8447 167.872C29.3246 167.92 27.7559 167.952 26.1495 167.952C12.0692 167.952 0.651868 165.904 0.651868 163.376C0.651868 160.853 12.0692 158.799 26.1495 158.799Z" fill="#D60B52"/>
<path d="M137.282 146.449C143.525 137.921 183.485 124.412 201.393 118.693C202.099 118.165 202.843 117.62 203.63 117.07C212.88 110.575 228.384 94.295 230.271 91.8693C232.157 89.4435 239.435 79.4709 242.669 75.2931C245.903 71.1154 257.897 50.9006 262.884 41.8713C267.018 34.3891 274.29 20.8102 276.662 16.3737C276.344 15.3225 276.166 14.2067 276.166 13.0531C276.166 6.74608 281.277 1.63577 287.584 1.63577C289.988 1.63577 292.219 2.38507 294.058 3.65186C295.896 2.37968 298.128 1.63577 300.532 1.63577C306.839 1.63577 311.949 6.74608 311.949 13.0531C311.949 19.3601 306.839 24.4704 300.532 24.4704C298.128 24.4704 295.896 23.7211 294.058 22.4543C294.052 22.4597 294.047 22.4597 294.041 22.4651L294.241 22.5837C294.241 22.5837 285.519 31.6345 283.902 33.656C282.285 35.6775 278.781 42.1462 276.161 46.7283C273.541 51.3103 278.161 56.3505 276.274 70.5009C274.387 84.6512 272.576 89.4489 275.81 93.2223C279.045 96.9957 281.336 97.8043 280.392 99.691C279.449 101.578 275.676 99.152 273.924 99.152C273.924 99.152 256.291 92.2897 251.024 77.4548C251.024 77.4548 235.742 92.0094 241.461 95.3354L266.722 96.1871C266.722 96.1871 280.161 102.737 260.582 102.381C254.825 102.279 247.035 127.135 243.844 138.239C243.801 138.39 243.758 138.536 243.72 138.676C243.154 140.789 241.073 150.282 246.167 160.465C249.402 166.934 239.429 160.734 231.074 160.465C222.718 160.195 216.789 164.508 206.816 165.047C196.843 165.586 188.757 161.004 181.48 161.004C174.203 161.004 158.57 165.403 152.64 165.09C146.711 164.777 135.39 160.734 127.843 161.543C120.297 162.352 113.019 165.586 112.211 162.621C111.402 159.656 129.196 157.5 137.282 146.449ZM269.644 46.9708C271.584 47.5261 272.28 44.0599 277.546 35.7422C280.339 31.3327 283.794 27.2628 286.43 24.4111C283.691 24.1362 281.244 22.891 279.428 21.0312C275.568 26.9555 269.148 39.3431 268.673 41.0088C268.118 42.9494 267.703 46.4156 269.644 46.9708Z" fill="#F39200"/>
<path d="M264.156 42.2379C261.978 45.9628 260.587 49.305 258.614 53.1377C256.178 57.8599 253.412 63.1481 251.229 67.9942C248.216 74.6894 244.399 80.9856 240.588 87.2657C238.092 91.3787 235.505 95.5996 231.661 98.4997C229.527 100.112 226.928 101.411 225.802 103.836C224.632 106.343 224.707 110.219 221.985 110.709C220.217 111.028 218.298 109.416 216.756 110.898C216.379 111.259 216.136 111.744 216.002 112.251C215.215 115.265 216.519 118.396 215.57 121.415C215.204 122.585 214.422 123.604 213.328 124.143C210.083 125.744 208.762 121.448 205.754 122.563C204.827 122.908 204.131 123.685 203.776 124.606C202.52 127.857 204.611 131.129 203.177 134.363C202.719 135.393 201.813 136.191 200.703 136.331C198.186 136.644 197.366 133.733 195.339 132.973C191.959 131.711 189.41 137.14 189.825 140.223C190.013 141.641 189.771 143.091 188.968 144.277C183.971 151.646 178.17 140.374 173.432 145.015C172.537 145.889 172.02 147.064 171.788 148.293C171.405 150.33 169.75 153.29 167.432 152.923C168.699 150.109 165.006 147.166 161.977 147.759C158.662 148.406 156.371 151.409 154.042 153.764C153.708 154.104 153.314 154.384 152.867 154.551C149.104 155.953 147.886 148.773 144.571 149.705C142.544 150.277 141.94 153.689 139.843 153.516C139.142 153.457 138.565 152.977 137.929 152.681C135.331 151.484 132.506 153.538 130.156 155.16C125.951 158.055 120.259 159.22 115.181 159.775C119.094 158.433 123.504 157.09 127.013 154.891C131.789 151.899 135.153 147.495 139.956 144.541C154.311 135.711 171.755 131.636 187.264 125.032C202.773 118.429 215.743 107.233 227.376 94.4568C231.451 89.9826 234.351 85.8048 238.157 81.1581C243.057 75.1799 247.332 68.7058 250.793 61.795C253.364 56.6578 256.264 53.2186 258.614 48.0867C260.97 42.9441 264.102 38.7232 267.595 32.2545C269.045 29.5699 271.007 26.8369 271.757 23.8774C272.177 22.2064 274.959 17.7699 276.668 16.3575C277.11 15.991 276.592 16.8912 276.468 17.4518C274.867 24.9071 267.735 36.1195 264.156 42.2379Z" fill="#F9B233"/>
<path opacity="0.75" d="M217.71 127.124C216.222 127.124 215.015 125.193 215.015 122.811C215.015 120.43 216.222 118.499 217.71 118.499C219.199 118.499 220.406 120.43 220.406 122.811C220.406 125.193 219.199 127.124 217.71 127.124Z" fill="#E94E1B"/>
<path opacity="0.75" d="M227.347 125.573C226.343 124.569 227.43 121.854 229.775 119.509C232.12 117.163 234.835 116.076 235.839 117.08C236.844 118.085 235.756 120.8 233.411 123.145C231.066 125.49 228.351 126.577 227.347 125.573Z" fill="#E94E1B"/>
<path opacity="0.75" d="M188.382 141.494C187.096 140.207 188.505 136.712 191.53 133.687C194.555 130.662 198.05 129.253 199.337 130.539C200.623 131.825 199.213 135.32 196.188 138.345C193.163 141.37 189.668 142.78 188.382 141.494Z" fill="#E94E1B"/>
<path opacity="0.75" d="M158.279 151.021C154.212 151.021 150.915 149.975 150.915 148.686C150.915 147.397 154.212 146.352 158.279 146.352C162.346 146.352 165.642 147.397 165.642 148.686C165.642 149.975 162.346 151.021 158.279 151.021Z" fill="#E94E1B"/>
<path opacity="0.75" d="M139.951 156.956C137.941 156.956 136.312 156.089 136.312 155.02C136.312 153.952 137.941 153.085 139.951 153.085C141.96 153.085 143.589 153.952 143.589 155.02C143.589 156.089 141.96 156.956 139.951 156.956Z" fill="#E94E1B"/>
<path opacity="0.75" d="M205.716 152.142C203.85 152.142 202.336 151.198 202.336 150.034C202.336 148.87 203.85 147.926 205.716 147.926C207.583 147.926 209.096 148.87 209.096 150.034C209.096 151.198 207.583 152.142 205.716 152.142Z" fill="#E94E1B"/>
<path opacity="0.75" d="M230.917 102.866C229.875 102.866 229.031 101.599 229.031 100.036C229.031 98.473 229.875 97.206 230.917 97.206C231.959 97.206 232.804 98.473 232.804 100.036C232.804 101.599 231.959 102.866 230.917 102.866Z" fill="#E94E1B"/>
<path opacity="0.75" d="M253.646 64.0994C252.771 63.2237 253.349 61.2253 254.938 59.6359C256.528 58.0466 258.526 57.468 259.402 58.3438C260.278 59.2195 259.699 61.2179 258.11 62.8073C256.52 64.3967 254.522 64.9752 253.646 64.0994Z" fill="#E94E1B"/>
<path opacity="0.75" d="M264.609 55.4287C264.013 55.4287 263.531 54.7047 263.531 53.8115C263.531 52.9184 264.013 52.1943 264.609 52.1943C265.204 52.1943 265.687 52.9184 265.687 53.8115C265.687 54.7047 265.204 55.4287 264.609 55.4287Z" fill="#E94E1B"/>
<path opacity="0.25" d="M239.003 156.956C239.003 156.956 234.421 153.317 231.591 153.155C228.761 152.993 228.066 157.096 230.168 157.608C232.265 158.12 239.003 160.104 239.003 156.956Z" fill="#F9B233"/>
<path opacity="0.25" d="M198.843 161.829C196.385 162.707 193.631 162.093 191.248 161.025C189.798 160.373 188.423 159.565 187.027 158.805C186.757 158.659 186.925 158.255 187.221 158.341C191 159.457 197.269 161.241 198.843 161.23C201.134 161.22 198.843 161.829 198.843 161.829Z" fill="#E94E1B"/>
<g opacity="0.25">
<path opacity="0.25" d="M132.134 159.36C132.134 159.36 142.781 159.511 147.632 161.106C152.484 162.702 153.201 163.241 153.201 163.241C153.201 163.241 133.531 159.969 132.134 159.36Z" stroke="#E94E1B" stroke-width="3.23437" stroke-miterlimit="10"/>
</g>
<path d="M247.58 77.6434C248.437 77.4548 249.068 77.1313 249.612 76.948C250.151 76.7432 250.55 76.6677 250.911 76.6084C251.084 76.5815 251.229 76.5707 251.359 76.5599C251.483 76.5437 251.633 76.5437 251.844 76.603C252.275 76.7109 252.841 77.1475 253.617 77.5464C253.86 76.7216 253.854 75.9023 253.31 75.0667C253.04 74.6624 252.593 74.2959 252.07 74.1018C251.553 73.9023 251.008 73.87 250.518 73.9455C249.542 74.0856 248.712 74.6732 248.243 75.347C247.758 76.037 247.553 76.7755 247.58 77.6434Z" fill="#E94E1B"/>
<path d="M236.146 90.1766C236.189 90.1011 236.157 89.9879 236.082 89.9179C236.012 89.8478 235.914 89.7885 235.785 89.7777C235.521 89.7831 235.332 89.9556 235.203 90.0634C234.955 90.2683 234.739 90.4731 234.529 90.6995C234.109 91.1523 233.742 91.6752 233.456 92.2736C233.176 92.8719 232.987 93.5619 232.971 94.3004C232.939 95.0336 233.128 95.8098 233.429 96.4621C234.06 97.7774 235.095 98.6938 236.243 99.2868C237.397 99.8689 238.712 100.117 239.947 99.8096C238.966 99.0172 238.173 98.3164 237.483 97.5671C236.799 96.8286 236.222 96.0524 235.871 95.3139C235.693 94.9419 235.58 94.5969 235.521 94.1926C235.451 93.7937 235.451 93.3517 235.483 92.8611C235.521 92.3706 235.602 91.8477 235.704 91.2925C235.747 91.0122 235.807 90.7265 235.844 90.4354C235.855 90.306 235.855 90.2305 235.877 90.1604C235.893 90.1065 236.065 90.0419 236.146 90.1766Z" fill="#E94E1B"/>
<path opacity="0.75" d="M284.786 20.5191C282.333 18.821 279.794 17.026 278.56 14.6164C278.053 13.6353 277.627 12.4332 276.382 12.0828C276.15 14.6433 276.226 17.3925 278.01 19.5218C279.002 20.7078 280.452 21.5972 281.945 22.3681C283.573 23.209 285.325 23.9529 287.228 24.244C288.883 24.5028 290.91 24.4381 292.338 23.651C289.298 23.2737 287.109 22.1309 284.786 20.5191Z" fill="#E94E1B"/>
<path d="M293.572 22.0931C293.513 22.1578 293.448 22.2117 293.378 22.2603C292.5 22.8748 285.902 28.8638 278.511 37.5804C278.328 37.796 277.999 37.548 278.155 37.3108L281.745 30.1629C281.756 30.1413 281.767 30.1198 281.783 30.1036C282.285 29.4028 291.028 18.6647 291.416 18.6432L294.386 18.476C295.362 18.4221 295.907 19.5811 295.244 20.2981L293.572 22.0931Z" fill="#E94E1B"/>
<path d="M200.239 161.155C198.768 161.009 197.345 160.691 195.97 160.217C194.585 159.764 193.242 159.193 191.9 158.616C189.216 157.468 186.477 156.206 183.442 155.786C181.944 155.576 180.348 155.656 178.909 155.915C177.442 156.163 175.982 156.465 174.558 156.88C171.696 157.678 168.963 158.788 166.252 159.931C169.103 159.182 171.922 158.341 174.763 157.694C176.186 157.381 177.615 157.107 179.054 156.923C180.51 156.697 181.884 156.643 183.297 156.853C186.121 157.214 188.822 158.389 191.587 159.392C192.967 159.91 194.38 160.384 195.83 160.724C197.275 161.036 198.762 161.252 200.239 161.155Z" fill="#E94E1B"/>
<path d="M240.394 156.88C239.23 155.969 238.103 155.02 236.809 154.233C236.157 153.856 235.451 153.533 234.712 153.333C233.995 153.112 233.257 152.967 232.513 152.843C231.025 152.589 229.505 152.551 228.001 152.654C226.497 152.767 225.009 153.058 223.559 153.446C222.093 153.845 220.659 154.524 219.43 155.419C218.201 156.319 217.107 157.306 215.991 158.249C214.864 159.182 213.721 160.082 212.454 160.783C211.204 161.505 209.802 161.974 208.32 162.05C209.797 162.228 211.312 161.85 212.692 161.257C214.066 160.637 215.322 159.796 216.514 158.907C217.71 158.028 218.826 157.053 220.012 156.255C221.187 155.441 222.465 154.842 223.845 154.481C226.626 153.689 229.527 153.36 232.4 153.667C233.117 153.743 233.834 153.856 234.54 154.012C235.241 154.142 235.904 154.39 236.561 154.697C237.887 155.295 239.095 156.174 240.394 156.88Z" fill="#E94E1B"/>
<path d="M152.306 161.009C150.301 160.869 148.36 160.524 146.436 160.077C144.511 159.624 142.603 159.09 140.668 158.584C138.732 158.098 136.765 157.635 134.754 157.414C132.749 157.187 130.684 157.193 128.727 157.662C130.733 157.64 132.695 157.872 134.63 158.244C136.565 158.627 138.479 159.123 140.404 159.624C142.333 160.109 144.285 160.6 146.279 160.896C148.268 161.203 150.317 161.322 152.306 161.009Z" fill="#E94E1B"/>
<g opacity="0.25">
<path opacity="0.25" d="M210.18 161.29C212.201 161.009 214.045 160.039 215.694 159.02C217.349 157.98 218.842 156.853 220.325 155.877C221.796 154.907 223.333 154.077 224.982 153.338C226.632 152.595 228.373 151.985 230.287 151.328C228.378 150.632 226.281 150.562 224.265 150.897C222.244 151.242 220.271 152.029 218.546 153.171C216.832 154.309 215.414 155.673 214.093 157.047L210.18 161.29Z" fill="#E94E1B"/>
</g>
<g opacity="0.25">
<path opacity="0.25" d="M166.963 159.311C168.737 159.187 170.343 158.891 171.939 158.6C173.523 158.298 175.076 157.974 176.618 157.635C178.165 157.295 179.707 156.939 181.27 156.551C182.838 156.152 184.423 155.743 186.084 155.107C184.45 154.39 182.736 154.104 181.027 154.018C179.313 153.948 177.593 154.104 175.922 154.476C174.251 154.842 172.623 155.419 171.098 156.206C169.583 157.004 168.149 157.985 166.963 159.311Z" fill="#E94E1B"/>
</g>
<g opacity="0.25">
<path opacity="0.25" d="M118.334 163.068C121.294 161.672 124.458 160.707 127.698 160.217C131.859 159.586 136.194 159.759 140.15 161.182C143.217 162.287 146.166 164.147 149.417 164.006" stroke="#E94E1B" stroke-width="3.23437" stroke-miterlimit="10"/>
</g>
<path d="M250.124 78.3065C247.666 80.5597 237.17 91.2116 240.987 94.8934L267.843 96.1979C267.843 96.1979 253.606 87.0716 251.229 78.9372C251.208 78.8671 251.191 78.797 251.154 78.7377L250.938 78.4143C250.755 78.1286 250.372 78.0801 250.124 78.3065Z" fill="white"/>
<path d="M253.019 83.1904L244.917 94.6293" stroke="#C6C6C6" stroke-width="1.61718" stroke-miterlimit="10" stroke-linecap="round"/>
<path d="M257.396 88.3169L252.582 95.1845" stroke="#C6C6C6" stroke-width="1.61718" stroke-miterlimit="10" stroke-linecap="round"/>
<path d="M243.025 86.6188C243.025 86.6188 242.998 91.0283 247.348 91.0391C247.348 91.0391 249.175 94.7694 252.642 94.1118C252.642 94.1118 252.938 95.2168 255.164 95.2815" stroke="#C6C6C6" stroke-width="1.61718" stroke-miterlimit="10" stroke-linecap="round"/>
<path d="M248.07 94.5969C246.981 94.1064 245.968 93.8153 245.052 93.4865C244.146 93.1684 243.343 92.7911 242.933 92.3975C242.723 92.2035 242.599 92.0148 242.48 91.7453C242.362 91.4811 242.308 91.1038 242.292 90.6779C242.275 90.2521 242.313 89.7777 242.383 89.2764C242.453 88.7697 242.518 88.2522 242.707 87.6969C242.399 87.7454 242.13 87.9179 241.882 88.0851C241.629 88.2576 241.408 88.457 241.197 88.678C240.782 89.1201 240.448 89.6375 240.216 90.2467C239.99 90.8504 239.86 91.5566 239.99 92.3221C240.054 92.6994 240.178 93.0822 240.373 93.4379C240.561 93.7937 240.82 94.101 241.095 94.3705C241.666 94.8934 242.319 95.1953 242.938 95.3732C243.569 95.5564 244.178 95.5996 244.766 95.5834C245.946 95.5187 247.051 95.2114 248.07 94.5969Z" fill="#E6332A"/>
<path d="M136.851 146.271C143.094 137.743 183.054 124.234 200.962 118.515C201.668 117.987 202.412 117.442 203.199 116.892C212.449 110.397 227.953 94.1171 229.839 91.6914C231.726 89.2656 239.003 79.2929 242.238 75.1152C245.472 70.9375 257.466 50.7227 262.453 41.6934C266.587 34.2112 273.859 20.6323 276.231 16.1958C275.913 15.1446 275.735 14.0288 275.735 12.8752C275.735 6.56817 280.845 1.45787 287.152 1.45787C289.557 1.45787 291.788 2.20717 293.626 3.47396C295.465 2.20178 297.696 1.45787 300.101 1.45787C306.408 1.45787 311.518 6.56817 311.518 12.8752C311.518 19.1822 306.408 24.2925 300.101 24.2925C297.696 24.2925 295.465 23.5432 293.626 22.2764C293.621 22.2818 293.616 22.2818 293.61 22.2872L293.81 22.4058C293.81 22.4058 285.088 31.4566 283.471 33.4781C281.853 35.4996 278.349 41.9683 275.73 46.5504C273.11 51.1324 278.161 56.3559 276.274 70.5062C274.387 84.6566 272.15 89.271 275.385 93.0444C278.619 96.8178 280.91 97.6264 279.967 99.5131C279.023 101.4 275.25 98.9741 273.498 98.9741C273.498 98.9741 255.865 92.1118 250.599 77.2769C250.599 77.2769 235.316 91.8315 241.036 95.1575L266.296 96.0092C266.296 96.0092 279.735 102.559 260.156 102.203C254.399 102.101 246.609 126.957 243.418 138.061C243.375 138.212 243.332 138.358 243.294 138.498C242.728 140.611 240.647 150.104 245.742 160.287C248.976 166.756 239.003 160.556 230.648 160.287C222.292 160.017 216.363 164.33 206.39 164.869C196.417 165.408 188.332 160.826 181.054 160.826C173.777 160.826 158.144 165.225 152.214 164.912C146.285 164.599 134.964 160.556 127.418 161.365C119.871 162.174 112.593 165.408 111.785 162.443C110.976 159.478 128.765 157.322 136.851 146.271ZM269.212 46.7929C271.153 47.3482 271.848 43.882 277.115 35.5643C279.907 31.1548 283.363 27.0849 285.999 24.2332C283.26 23.9583 280.813 22.7131 278.996 20.8533C275.137 26.7776 268.716 39.1652 268.242 40.8309C267.687 42.7715 267.272 46.2377 269.212 46.7929Z" stroke="#E94E1B" stroke-width="1.61718" stroke-miterlimit="10" stroke-linecap="round" stroke-linejoin="round"/>
<path d="M301.017 22.9233C295.45 22.9233 290.937 18.4101 290.937 12.8429C290.937 7.27558 295.45 2.76241 301.017 2.76241C306.584 2.76241 311.097 7.27558 311.097 12.8429C311.097 18.4101 306.584 22.9233 301.017 22.9233Z" fill="white"/>
<g opacity="0.5">
<path opacity="0.5" d="M310.283 17.1715C308.666 17.2632 307.335 17.7106 306.138 18.0825C305.54 18.2712 305.001 18.4545 304.542 18.5515C304.09 18.6593 303.696 18.7132 303.038 18.8211C301.637 19.0528 300.435 19.4679 299.216 19.9369C298.613 20.1849 298.014 20.449 297.427 20.7185L296.586 21.0959C296.456 21.1498 296.365 21.1875 296.306 21.263C296.262 21.3007 296.203 21.2846 296.171 21.2091C296.144 21.139 296.133 21.042 296.133 20.9396C296.041 20.9773 295.944 21.0204 295.863 21.1121C295.783 21.1929 295.707 21.3546 295.75 21.5433C295.858 21.9207 296.117 22.077 296.3 22.2117C296.694 22.4813 297.071 22.6268 297.443 22.7562C298.192 23.0096 298.915 23.1335 299.632 23.2144C301.06 23.3653 302.462 23.2306 303.696 23.0742C304.359 22.988 305.281 22.7832 306.063 22.3896C306.85 22.0015 307.464 21.5056 307.987 20.9827C309.033 19.9207 309.809 18.724 310.283 17.1715Z" fill="#C6C6C6"/>
</g>
<path d="M305.696 16.8642C304.633 16.8642 303.772 15.1652 303.772 13.0693C303.772 10.9733 304.633 9.27426 305.696 9.27426C306.759 9.27426 307.62 10.9733 307.62 13.0693C307.62 15.1652 306.759 16.8642 305.696 16.8642Z" fill="black" stroke="#F9B233" stroke-width="1.07812" stroke-miterlimit="10"/>
<path d="M310.3 7.60857C310.289 7.57623 310.278 7.54927 310.262 7.51693C310.041 7.09107 308.208 3.70038 304.92 2.88639C300.251 1.7328 294.128 2.38507 293.082 11.9157C293.082 11.9157 295.109 11.6138 310.795 9.7163C310.903 9.70552 311.049 9.29044 311.011 9.18263L310.3 7.60857Z" fill="#E71D73"/>
<path d="M305.664 21.9207C308.025 20.7401 309.89 18.6054 310.774 16.0826C311.674 13.5706 311.572 10.6704 310.413 8.17458C309.836 6.92935 309.011 5.78654 307.982 4.84318C306.952 3.90521 305.728 3.16131 304.397 2.69233C303.065 2.23412 301.637 2.02389 300.214 2.12092C298.796 2.22334 297.394 2.61147 296.122 3.24756C294.861 3.90522 293.723 4.81084 292.812 5.89974C291.896 6.98865 291.233 8.277 290.823 9.62466C290.009 12.3361 290.376 15.3279 291.734 17.716C293.082 20.1202 295.368 21.9045 297.934 22.643C300.499 23.3977 303.319 23.1389 305.664 21.9207ZM305.664 21.9207C304.483 22.5082 303.189 22.8694 301.874 22.961C300.559 23.0527 299.238 22.8532 298.004 22.4274C296.769 21.9961 295.642 21.2953 294.694 20.4328C293.745 19.5596 292.99 18.4976 292.457 17.3494C291.395 15.0368 291.314 12.3739 292.144 10.0559C292.969 7.73794 294.678 5.78115 296.855 4.68685C299.012 3.56561 301.605 3.32303 303.966 4.01303C306.332 4.69225 308.44 6.3256 309.69 8.54114C310.952 10.7459 311.302 13.5059 310.553 16.0125C310.176 17.2632 309.561 18.4491 308.715 19.4625C307.885 20.4706 306.833 21.3061 305.664 21.9207Z" fill="#E94E1B"/>
<path d="M292.349 14.5517C293.944 13.1232 295.88 12.2445 297.853 11.6731C299.836 11.0747 301.874 10.8645 303.971 10.7998C305.038 10.7675 306.111 10.692 307.178 10.5519C307.712 10.471 308.251 10.3901 308.785 10.2877L309.572 10.1098C309.836 10.0505 310.035 10.002 310.327 9.95888C310.93 9.87802 311.507 9.67318 312.014 9.34435C312.521 9.02092 312.946 8.54115 313.173 7.97514C313.41 7.40912 313.383 6.77303 313.205 6.23936C313.027 5.7003 312.715 5.2421 312.364 4.8378C312.612 5.31217 312.801 5.8135 312.871 6.31483C312.936 6.81616 312.849 7.3067 312.612 7.70022C312.132 8.48725 311.157 8.89154 310.246 8.89693C309.103 8.88076 308.111 8.98857 307.044 9.01553C305.992 9.06404 304.936 9.12873 303.879 9.22037C302.823 9.29045 301.702 9.4306 300.629 9.63545C299.551 9.85646 298.489 10.1745 297.47 10.6004C296.456 11.0316 295.475 11.5491 294.597 12.2068C293.729 12.8698 292.915 13.6299 292.349 14.5517Z" fill="black"/>
<path d="M294.295 12.9022C295.141 12.6811 295.896 12.3739 296.64 12.0882C297.022 11.948 297.367 11.8133 297.756 11.6785C298.23 11.5114 298.677 11.1826 298.974 10.7621C299.561 9.89959 299.594 8.91311 299.454 8.056C299.367 7.61936 299.243 7.19889 299.044 6.80538C298.947 6.61132 298.839 6.41725 298.694 6.25014C298.559 6.09382 298.376 5.88358 298.144 5.91593C298.349 5.97522 298.402 6.20163 298.478 6.37413C298.543 6.5628 298.586 6.75686 298.623 6.95092C298.683 7.34444 298.726 7.73256 298.71 8.12069C298.699 8.88615 298.537 9.65162 298.133 10.1422C297.933 10.3847 297.686 10.5626 297.384 10.6704C296.99 10.8106 296.575 10.9939 296.214 11.2203C295.481 11.6569 294.812 12.1906 294.295 12.9022Z" fill="black"/>
<path d="M297.664 11.7324C298.467 11.5006 299.173 11.1987 299.869 10.9346C300.219 10.8106 300.559 10.6812 300.893 10.5788L301.189 10.4872C301.303 10.4548 301.416 10.4009 301.529 10.347C301.75 10.2338 301.971 10.0937 302.144 9.89959C302.505 9.52225 302.688 9.02631 302.731 8.5735C302.769 8.1153 302.72 7.67866 302.602 7.26897C302.483 6.86468 302.321 6.47655 302.106 6.12616C301.998 5.94827 301.879 5.78116 301.739 5.63023C301.605 5.47929 301.443 5.32296 301.243 5.27444C301.534 5.53858 301.615 5.94288 301.734 6.29327C301.831 6.65983 301.901 7.03179 301.923 7.39296C301.982 8.1153 301.847 8.84303 301.437 9.18264C301.34 9.27428 301.216 9.33897 301.087 9.39826C301.017 9.42522 300.952 9.45217 300.877 9.46834L300.607 9.54381C300.192 9.65701 299.799 9.82412 299.443 10.0397C298.731 10.4656 298.101 11.0101 297.664 11.7324Z" fill="black"/>
<path d="M302.063 10.1475C302.747 10.3039 303.464 10.3093 304.181 10.099C304.537 10.002 304.898 9.82411 305.216 9.55997C305.534 9.29583 305.798 8.91849 305.917 8.49802C306.16 7.64091 305.885 6.83232 305.507 6.21779C305.319 5.90513 305.081 5.63021 304.823 5.38224C304.553 5.15584 304.273 4.90248 303.912 4.82701C304.127 5.09115 304.262 5.39842 304.397 5.6949C304.537 5.98599 304.645 6.28787 304.742 6.57896C304.931 7.16115 305.017 7.74333 304.882 8.19075C304.758 8.63279 304.391 9.01013 303.852 9.312C303.329 9.63544 302.704 9.86184 302.063 10.1475Z" fill="black"/>
<path d="M304.947 9.93193C305.621 10.126 306.332 10.1476 307.065 9.92654C307.426 9.80256 307.793 9.59771 308.079 9.26349C308.37 8.93467 308.526 8.48725 308.564 8.07756C308.623 7.23662 308.31 6.53584 307.949 5.93209C307.572 5.33374 307.098 4.82163 306.537 4.41194C306.736 5.08577 306.995 5.69491 307.184 6.29866C307.378 6.89162 307.529 7.49537 307.491 7.99131C307.453 8.48186 307.216 8.84303 306.715 9.16107C306.224 9.46295 305.594 9.67857 304.947 9.93193Z" fill="black"/>
<path d="M307.41 9.74326C308.1 9.89959 308.85 9.8942 309.561 9.59232C310.273 9.31201 310.93 8.6274 311.087 7.78107C311.27 6.94553 310.99 6.10998 310.526 5.51162C310.062 4.90249 309.41 4.48741 308.715 4.33647C309.184 4.87553 309.561 5.39842 309.809 5.94827C310.057 6.49811 310.143 7.06951 310.035 7.56545C309.933 8.06139 309.642 8.50881 309.157 8.8592C308.672 9.21498 308.063 9.45756 307.41 9.74326Z" fill="black"/>
<path d="M286.505 21.9853C280.938 21.9853 276.425 17.4722 276.425 11.9049C276.425 6.3376 280.938 1.82443 286.505 1.82443C292.073 1.82443 296.586 6.3376 296.586 11.9049C296.586 17.4722 292.073 21.9853 286.505 21.9853Z" fill="white"/>
<g opacity="0.5">
<path opacity="0.5" d="M293.098 19.0852C291.826 19.5488 290.672 19.6566 289.562 19.5218C289.012 19.4679 288.478 19.3547 287.955 19.1984C287.433 19.0582 286.926 18.8696 286.43 18.6539C285.939 18.4329 285.454 18.2119 285.001 17.937C284.559 17.689 284.16 17.4141 283.767 17.0907C282.98 16.4653 282.268 15.716 281.708 14.9128C281.142 14.115 280.737 13.2579 280.554 12.4386C280.506 12.2229 280.484 12.0396 280.462 11.8079C280.441 11.5545 280.436 11.2957 280.441 11.0316C280.457 10.5033 280.479 9.95887 280.56 9.40903C280.7 8.30934 280.958 7.20427 281.368 6.13154C281.789 5.06419 282.349 4.0292 283.336 3.13435C281.983 3.18287 280.667 3.98068 279.675 4.96716C278.667 5.96982 277.913 7.19349 277.363 8.50341C277.104 9.16645 276.872 9.85106 276.732 10.568C276.662 10.9292 276.597 11.2904 276.56 11.6677C276.522 12.0612 276.517 12.5032 276.549 12.9129C276.667 14.5894 277.314 16.0934 278.171 17.3548C279.039 18.6162 280.139 19.662 281.4 20.476C282.037 20.8749 282.727 21.2253 283.438 21.4786C284.128 21.7212 284.834 21.8991 285.557 22.0069C286.991 22.2171 288.489 22.1632 289.88 21.6835C291.254 21.236 292.494 20.2927 293.098 19.0852Z" fill="#C6C6C6"/>
</g>
<path d="M289.306 16.9678C288.246 16.8907 287.51 15.1334 287.662 13.043C287.815 10.9525 288.797 9.3204 289.857 9.39756C290.917 9.47472 291.653 11.2319 291.501 13.3224C291.349 15.4129 290.366 17.045 289.306 16.9678Z" fill="black" stroke="#F9B233" stroke-width="1.07812" stroke-miterlimit="10"/>
<path d="M277.805 7.19349C277.805 7.19349 280.382 3.16671 283.864 2.12093C288.969 0.589992 296.845 3.86749 296.731 13.7377C296.731 13.7377 295.087 8.90771 276.905 9.57615L277.805 7.19349Z" fill="#E71D73"/>
<path d="M277.988 16.9451C279.293 19.2469 281.519 20.9935 284.08 21.7482C286.635 22.519 289.524 22.2657 291.961 20.9827C293.174 20.3412 294.273 19.4625 295.163 18.3844C296.047 17.3063 296.726 16.0503 297.125 14.6918C297.513 13.3388 297.653 11.8995 297.481 10.4872C297.308 9.07482 296.845 7.70021 296.144 6.46037C295.421 5.23131 294.457 4.1478 293.325 3.29069C292.187 2.43358 290.872 1.83522 289.503 1.49561C286.753 0.821786 283.783 1.34467 281.471 2.8217C279.142 4.28795 277.476 6.66521 276.867 9.26349C276.242 11.8672 276.646 14.6703 277.988 16.9451ZM277.988 16.9451C277.341 15.7969 276.915 14.5247 276.754 13.2148C276.597 11.9103 276.727 10.5734 277.088 9.32279C277.46 8.07216 278.096 6.90779 278.91 5.91592C279.735 4.92404 280.754 4.11545 281.875 3.52787C284.128 2.35272 286.786 2.12631 289.141 2.84327C291.497 3.54405 293.54 5.15584 294.742 7.26896C295.977 9.36591 296.349 11.9426 295.777 14.3361C295.222 16.7349 293.696 18.9235 291.551 20.2873C289.416 21.6619 286.678 22.1524 284.134 21.5325C282.867 21.2199 281.648 20.67 280.597 19.8776C279.546 19.0906 278.657 18.0825 277.988 16.9451Z" fill="#E94E1B"/>
<path d="M297.303 14.5516C296.855 13.5112 296.074 12.6163 295.19 11.8778C294.3 11.1339 293.271 10.5571 292.192 10.1205C290.02 9.26338 287.659 8.98307 285.357 9.04237C284.247 9.06393 283.136 9.0801 282.042 9.11783C281.492 9.13401 280.948 9.16096 280.403 9.16096C279.853 9.17174 279.347 9.14479 278.694 9.17713C278.118 9.23643 277.622 9.24721 277.12 9.17174C276.63 9.09627 276.166 8.93455 275.87 8.58955C275.568 8.24995 275.449 7.72706 275.46 7.19338C275.465 6.65432 275.579 6.10448 275.713 5.56003C275.449 6.05596 275.217 6.57885 275.104 7.15565C274.986 7.72167 274.986 8.3901 275.347 8.9669C275.708 9.54908 276.339 9.87791 276.932 10.0342C277.519 10.2067 278.15 10.2391 278.694 10.2768C279.158 10.3307 279.756 10.4924 280.328 10.5463C280.905 10.6056 281.476 10.6596 282.042 10.6757C283.179 10.7242 284.306 10.6596 285.433 10.5895C286.516 10.5248 287.6 10.5086 288.667 10.6056C289.74 10.6973 290.807 10.8482 291.837 11.1555C292.877 11.425 293.874 11.8617 294.812 12.4007C295.74 12.9721 296.624 13.6513 297.303 14.5516Z" fill="black"/>
<path d="M294.705 11.9858C294.182 11.3658 293.535 10.9184 292.845 10.5411C292.494 10.3578 292.133 10.1961 291.745 10.0775L291.459 9.99123C291.389 9.96428 291.308 9.95349 291.238 9.92115C291.098 9.86724 290.969 9.80256 290.845 9.72709C290.36 9.42521 290.058 8.85381 289.961 8.17459C289.907 7.84037 289.907 7.48459 289.939 7.12881C289.961 6.95092 289.999 6.77842 290.047 6.60592C290.112 6.4442 290.166 6.25553 290.354 6.18545C290.144 6.1585 289.955 6.32561 289.826 6.47655C289.686 6.63288 289.583 6.81616 289.497 6.99944C289.325 7.37139 289.222 7.78108 289.195 8.20154C289.174 8.62201 289.211 9.06943 289.389 9.4899C289.556 9.91037 289.848 10.3147 290.236 10.5896C290.424 10.7297 290.635 10.8376 290.845 10.9238C290.953 10.9723 291.06 10.9993 291.168 11.0316L291.432 11.1017C291.772 11.1987 292.122 11.2958 292.478 11.4036C293.195 11.6138 293.912 11.8456 294.705 11.9858Z" fill="black"/>
<path d="M291.217 11.0801C290.759 10.4279 290.139 9.95888 289.454 9.59771C289.109 9.41443 288.743 9.26888 288.354 9.17185C287.918 9.07482 287.654 9.05864 287.406 8.93466C286.91 8.73521 286.613 8.2231 286.554 7.56005C286.516 7.23123 286.543 6.88623 286.597 6.54123C286.673 6.20701 286.721 5.82967 286.98 5.56013C286.791 5.60865 286.64 5.75959 286.516 5.91053C286.387 6.06146 286.284 6.22857 286.193 6.40107C286.004 6.75146 285.891 7.13419 285.837 7.54388C285.794 7.95357 285.821 8.3956 285.999 8.82685C286.177 9.25271 286.527 9.63005 286.937 9.85646C287.336 10.0883 287.826 10.1529 288.101 10.223C288.424 10.2985 288.753 10.4009 289.093 10.4925C289.767 10.692 290.446 10.9184 291.217 11.0801Z" fill="black"/>
<path d="M286.716 9.82951C286.451 9.68397 286.193 9.59772 285.95 9.49529L285.6 9.32819C285.54 9.30123 285.487 9.27428 285.427 9.25272L285.271 9.15569C284.84 8.93467 284.527 8.63819 284.311 8.30397C284.096 7.96436 283.972 7.54928 283.929 7.06952C283.913 6.83233 283.896 6.58436 283.923 6.331C283.939 6.07225 283.956 5.8189 284.096 5.56554C283.794 5.63561 283.584 5.91593 283.427 6.1585C283.341 6.28788 283.293 6.42264 283.223 6.5628C283.174 6.70296 283.12 6.8485 283.088 7.00483C282.958 7.60319 283.034 8.30397 283.4 8.88076C283.767 9.45756 284.381 9.84568 284.974 9.94811C285.271 10.0451 285.573 10.002 285.864 10.0182C286.155 9.97506 286.441 9.92115 286.716 9.82951Z" fill="black"/>
<path d="M283.826 9.8295C283.567 9.68935 283.314 9.61388 283.082 9.50068C282.856 9.38208 282.619 9.30122 282.43 9.16646C282.026 8.93466 281.724 8.67052 281.524 8.32552C281.32 7.98592 281.19 7.57084 281.12 7.09646C281.05 6.62209 281.012 6.11537 281.012 5.55475C280.586 5.95365 280.376 6.50889 280.274 7.08568C280.182 7.66248 280.263 8.32013 280.608 8.88615C280.942 9.46294 281.551 9.8349 282.134 9.95349C282.425 10.0451 282.721 10.0128 283.007 10.0182C283.287 9.99122 283.562 9.92115 283.826 9.8295Z" fill="black"/>
<path d="M281.357 9.82951C280.818 9.58694 280.317 9.44678 279.913 9.18803C279.498 8.95623 279.196 8.67592 279.002 8.33092C278.808 7.98592 278.705 7.54928 278.684 7.07491C278.673 6.59514 278.667 6.08843 278.883 5.56554C278.587 5.65718 278.387 5.90515 278.204 6.14772C278.048 6.40108 277.902 6.676 277.837 6.97788C277.686 7.57085 277.719 8.26084 278.053 8.8592C278.382 9.46834 279.012 9.86186 279.611 9.98584C280.22 10.126 280.818 10.0344 281.357 9.82951Z" fill="black"/>
<path d="M296.456 16.0934C295.238 17.813 293.718 19.2846 291.955 20.2765C291.519 20.5353 291.055 20.7185 290.597 20.918C290.365 21.0042 290.123 21.0689 289.885 21.1444C289.648 21.2307 289.406 21.2738 289.163 21.3115C288.193 21.5379 287.19 21.511 286.204 21.4247C284.231 21.1983 282.398 20.2388 280.764 19.0043C279.945 18.379 279.163 17.6998 278.398 16.9829L277.821 16.4438C277.713 16.3468 277.595 16.2443 277.433 16.185C277.271 16.115 277.066 16.1311 276.921 16.2066C276.624 16.3468 276.468 16.6325 276.398 16.8966C276.333 17.1661 276.339 17.4303 276.317 17.6944C276.393 17.4411 276.441 17.1769 276.549 16.9505C276.651 16.7241 276.824 16.5354 277.023 16.4815C277.217 16.4276 277.352 16.5408 277.508 16.7295L278.004 17.344C278.689 18.1526 279.411 18.945 280.22 19.6512C281.023 20.3682 281.923 20.9935 282.899 21.5056C283.886 21.9961 284.958 22.3411 286.063 22.4921C288.263 22.74 290.586 22.2441 292.392 20.9881C294.219 19.7752 295.621 18.0394 296.456 16.0934Z" fill="black"/>
<path d="M293.497 19.6943C294.047 20.3735 294.564 21.1121 295.308 21.6727C296.036 22.2387 296.909 22.6053 297.788 22.8478C298.667 23.112 299.572 23.1982 300.467 23.2899C300.915 23.3114 301.367 23.3438 301.809 23.3384C302.262 23.333 302.688 23.3546 303.184 23.306C305.108 23.0904 306.769 22.0608 308.073 20.8102C308.402 20.4921 308.715 20.1687 309 19.8183L309.211 19.5542L309.324 19.4032L309.421 19.2523C309.534 19.0582 309.642 18.8803 309.761 18.7186C309.814 18.6378 309.879 18.5623 309.928 18.5138C309.955 18.4868 309.971 18.4814 309.976 18.4707C309.949 18.4707 309.992 18.4599 310.025 18.4707C310.154 18.503 310.332 18.6755 310.494 18.8049C310.812 19.0852 311.114 19.4086 311.2 19.8507C311.238 19.3978 310.984 18.9558 310.715 18.6054C310.569 18.4329 310.467 18.2389 310.192 18.0879C310.122 18.0556 310.057 18.0232 309.917 18.0286C309.814 18.0448 309.728 18.0825 309.663 18.1203C309.534 18.2011 309.442 18.2874 309.356 18.3736C309.189 18.5461 309.049 18.7294 308.914 18.8965L308.817 19.0151L308.72 19.1175L308.488 19.3385C308.176 19.6296 307.863 19.9153 307.523 20.1795C306.197 21.2253 304.683 22.077 303.076 22.2333C302.693 22.2818 302.241 22.271 301.815 22.2818C301.383 22.3034 300.958 22.2656 300.526 22.271C299.669 22.2441 298.818 22.1794 297.982 22.0285C297.157 21.8667 296.338 21.6457 295.605 21.2253C294.845 20.8479 294.219 20.2172 293.497 19.6943Z" fill="black"/>
<path d="M308.963 19.193C309.119 19.2685 309.195 19.3493 309.265 19.4194C309.329 19.4949 309.394 19.5596 309.442 19.6296C309.566 19.7698 309.674 19.9639 309.928 20.1903C310.095 19.9046 310.073 19.5703 309.868 19.2954C309.755 19.1606 309.604 19.0582 309.432 19.0313C309.259 18.9989 309.06 19.0474 308.963 19.193Z" fill="black"/>
<path d="M307.728 20.6161C307.766 20.5784 307.815 20.6107 307.82 20.6269C307.825 20.6485 307.831 20.6754 307.841 20.7131L307.922 20.9557L308.073 21.4139C308.181 21.7158 308.262 22.0015 308.429 22.3842C308.693 22.0554 308.709 21.6188 308.585 21.2414C308.515 21.0528 308.418 20.8749 308.278 20.7347C308.208 20.6592 308.133 20.5999 308.046 20.546C307.998 20.5191 307.933 20.476 307.852 20.4867C307.771 20.4867 307.707 20.5622 307.728 20.6161Z" fill="black"/>
<path d="M306.208 21.6403C306.063 21.9853 306.079 22.298 306.133 22.6053C306.203 22.9071 306.316 23.1982 306.585 23.457C306.731 23.112 306.715 22.7993 306.661 22.4921C306.591 22.1902 306.483 21.8991 306.208 21.6403Z" fill="black"/>
<path d="M304.515 22.4112C304.316 22.7185 304.305 23.0419 304.354 23.3438C304.418 23.6456 304.542 23.9421 304.833 24.1578C304.947 23.8128 304.925 23.5271 304.882 23.2467C304.823 22.9718 304.742 22.6969 304.515 22.4112Z" fill="black"/>
<path d="M302.219 22.9179C301.944 23.2306 301.863 23.6079 301.858 23.9799C301.869 24.3518 301.96 24.7292 302.246 25.0364C302.381 24.6483 302.397 24.3141 302.397 23.9745C302.381 23.6402 302.359 23.306 302.219 22.9179Z" fill="black"/>
<path d="M299.906 22.9017C299.696 22.9287 299.518 23.0635 299.389 23.2252C299.254 23.3869 299.179 23.581 299.136 23.775C299.065 24.1739 299.125 24.5567 299.346 24.9017C299.551 24.5351 299.594 24.1901 299.664 23.8828C299.723 23.5702 299.777 23.2952 299.906 22.9017Z" fill="black"/>
<path d="M297.454 22.546C297.265 22.4274 296.963 22.5244 296.823 22.7292C296.677 22.9233 296.624 23.1012 296.57 23.3007C296.494 23.6942 296.537 24.1308 296.812 24.465C296.963 24.0661 297.022 23.7427 297.098 23.4139L297.19 22.9287C297.217 22.7993 297.27 22.67 297.454 22.546Z" fill="black"/>
<path d="M295.497 21.5918C295.152 21.4301 294.764 21.5595 294.5 21.7859C294.241 22.0177 294.063 22.3896 294.182 22.7508C294.478 22.5244 294.656 22.3627 294.855 22.1902C295.05 22.0069 295.233 21.8506 295.497 21.5918Z" fill="black"/>
<path d="M295.163 17.9639C295.454 18.2335 295.632 18.4168 295.815 18.6378C296.004 18.8534 296.16 19.0582 296.386 19.3817C296.602 19.0313 296.478 18.5785 296.225 18.282C295.971 17.9909 295.54 17.8022 295.163 17.9639Z" fill="black"/>
<path d="M294.155 19.2415C294.09 19.5218 294.122 19.6835 294.176 19.8507C294.241 20.0124 294.327 20.1525 294.559 20.325C294.753 20.1094 294.753 19.8668 294.683 19.662C294.597 19.4625 294.44 19.2793 294.155 19.2415Z" fill="black"/>
<path d="M292.139 20.7239C292.16 21.1282 292.23 21.4139 292.3 21.7212C292.381 22.0285 292.457 22.3142 292.629 22.6807C292.883 22.3627 292.909 21.953 292.823 21.5918C292.726 21.2307 292.511 20.8857 292.139 20.7239Z" fill="black"/>
<path d="M289.848 21.6349C289.74 21.9584 289.756 22.2064 289.788 22.4597C289.837 22.7077 289.907 22.9503 290.112 23.2198C290.333 22.9557 290.36 22.6538 290.317 22.3681C290.263 22.0932 290.139 21.8182 289.848 21.6349Z" fill="black"/>
<path d="M287.389 22.1471C287.152 22.3519 287.077 22.5783 287.039 22.8047C287.017 23.0365 287.039 23.2737 287.222 23.5271C287.465 23.3222 287.54 23.0958 287.573 22.8694C287.594 22.6376 287.573 22.4004 287.389 22.1471Z" fill="black"/>
<path d="M284.77 21.6457C284.479 21.7859 284.355 22.0446 284.311 22.3034C284.284 22.5621 284.333 22.8478 284.581 23.0581C284.759 22.7939 284.813 22.5945 284.845 22.3788C284.867 22.1524 284.867 21.9476 284.77 21.6457Z" fill="black"/>
<path d="M282.969 20.9719C282.727 21.0851 282.479 21.2037 282.301 21.4031C282.123 21.6026 282.026 21.8991 282.139 22.1417" fill="#1D71B8"/>
<path d="M280.824 19.7752C280.759 19.8129 280.737 19.7428 280.694 19.7267C280.673 19.6997 280.57 19.6782 280.511 19.6782C280.365 19.6728 280.231 19.7375 280.128 19.8291C280.031 19.9261 279.961 20.0501 279.95 20.1903C279.94 20.325 279.983 20.476 280.107 20.5568C280.204 20.4436 280.279 20.3897 280.339 20.3412C280.403 20.2981 280.446 20.255 280.495 20.2172C280.538 20.1741 280.576 20.131 280.624 20.0771C280.657 20.0501 280.657 20.0232 280.732 19.98C280.764 19.9585 280.791 19.9315 280.818 19.8938C280.851 19.8668 280.856 19.7967 280.824 19.7752Z" fill="black"/>
<path d="M279.104 18.1526C278.7 18.1311 278.355 18.4707 278.263 18.8642C278.172 19.2577 278.328 19.7159 278.705 19.8776C278.705 19.4895 278.732 19.2415 278.791 18.9882C278.84 18.7348 278.926 18.503 279.104 18.1526Z" fill="black"/>
<path d="M278.091 17.1122C277.924 17.0583 277.746 17.1014 277.6 17.1877C277.455 17.2739 277.347 17.4087 277.271 17.5596C277.207 17.716 277.174 17.8885 277.207 18.0556C277.234 18.2227 277.32 18.3844 277.471 18.4707C277.53 18.3035 277.579 18.1903 277.622 18.0825C277.67 17.9747 277.708 17.8777 277.756 17.786C277.853 17.5812 277.924 17.4087 278.091 17.1122Z" fill="black"/>
<path d="M241.634 95.4702C241.634 95.4702 262.771 96.0039 264.679 99.0927C266.07 101.341 268.765 103.119 269.708 102.748C272.085 101.81 271.762 100.122 271.762 100.122C271.762 100.122 271.568 97.3192 267.778 96.1872C262.302 94.5592 247.348 95.0012 241.634 95.4702Z" fill="#E71D73" stroke="#E71D73" stroke-width="1.61718" stroke-miterlimit="10" stroke-linecap="round" stroke-linejoin="round"/>
<path d="M272.253 100.128C272.307 99.5455 272.059 98.9364 271.703 98.4458C271.352 97.9445 270.889 97.5456 270.441 97.1844C269.53 96.4567 268.517 95.8907 267.471 95.4325C266.415 94.9743 265.353 94.6185 264.215 94.3921C263.045 94.171 261.87 94.2196 260.738 94.4999C261.816 94.985 262.868 95.2761 263.833 95.702C264.819 96.1225 265.859 96.5106 266.851 96.9095C267.854 97.3138 268.84 97.7235 269.816 98.1817C270.781 98.6506 271.73 99.0927 272.253 100.128Z" fill="#701512"/>
<path d="M277.169 95.7074C277.099 95.9176 276.829 95.9715 276.689 95.799C276.231 95.2384 275.433 94.3813 274.743 94.295C273.934 94.1926 273.649 96.2411 272.678 96.171C269.768 95.9661 261.957 91.8801 257.234 86.3924C253.105 81.5948 252.065 78.1232 251.488 76.4629C251.396 76.1934 251.003 76.2203 250.949 76.4952C250.782 77.347 250.739 79.3469 251.639 81.1527C253.461 84.7914 256.911 89.1524 261.072 92.2682C266.824 96.5753 273.536 101.071 278.678 100.947C278.975 100.942 279.26 100.861 279.53 100.737C283.336 98.9903 279.239 95.384 278.77 94.985C278.738 94.9581 278.711 94.9419 278.667 94.9311C278.43 94.8772 277.498 94.6993 277.169 95.7074Z" fill="#E71D73" stroke="#E71D73" stroke-width="0.539061" stroke-miterlimit="10"/>
<g opacity="0.5">
<path opacity="0.5" d="M279.045 95.3624C279.368 95.799 279.676 96.2303 279.94 96.6777C280.198 97.1251 280.452 97.5887 280.597 98.0577C280.754 98.5213 280.77 98.9957 280.538 99.3946C280.301 99.7935 279.859 100.101 279.347 100.284C279.891 100.327 280.49 100.117 280.878 99.6372C281.077 99.4 281.19 99.0873 281.217 98.78C281.244 98.4728 281.19 98.1709 281.109 97.8906C280.921 97.3354 280.63 96.8664 280.279 96.4351C279.934 96.0093 279.519 95.6373 279.045 95.3624Z" fill="#F6F6F6"/>
</g>
<path d="M219.112 101.637C219.322 101.626 205.263 116.316 198.865 118.407C198.865 118.407 206.811 102.262 219.112 101.637Z" fill="#432918" stroke="#29235C" stroke-width="0.539061" stroke-miterlimit="10"/>
<path d="M224.206 95.0875C224.206 95.0875 220.255 88.6187 217.737 89.3357C217.737 89.3357 201.091 46.2108 164.467 46.2108C138.9 46.2108 116.394 58.0701 107.408 87.1794C98.4214 116.289 113.159 141.086 135.078 146.476C156.996 151.867 189.663 129.744 191.916 127.189H193.846C193.846 127.189 198.024 114.677 205.732 107.604C213.446 100.537 218.907 100.537 218.907 100.537L224.206 95.0875Z" fill="#F9B233"/>
<path opacity="0.52" d="M127.013 67.1802C125.887 66.6843 123.191 62.3718 123.299 61.4231C138.263 48.7174 154.236 47.6231 154.236 47.6231C154.236 47.6231 148.144 53.5689 149.88 61.1697C151.158 61.1697 154.883 61.6063 157.4 62.3287C159.918 63.0456 164.807 65.0671 164.807 65.0671C164.807 65.0671 164.672 53.2886 171.777 47.8657C181.157 50.2699 192.914 53.7792 198.865 61.574C194.849 63.8165 185.658 64.4418 181.485 79.3145C174.839 69.4766 165.632 65.2019 165.632 65.2019C165.632 65.2019 151.562 71.1531 150.856 82.1284C150.775 81.9505 140.042 67.8217 128.582 75.9184C125.256 76.2095 122.954 70.9806 122.825 70.8027C123.213 70.4523 127.046 67.191 127.013 67.1802Z" fill="#E71D73"/>
<path opacity="0.52" d="M111.073 78.8563C111.073 78.8563 114.34 80.5436 114.852 81.8912C110.788 90.8235 115.812 99.2113 115.812 99.2113C115.812 99.2113 116.523 90.527 123.838 87.3304C124.119 87.2064 124.361 87.0393 124.647 86.98C123.973 84.5542 124.232 82.8939 125.186 80.7808C125.924 78.9533 131.983 76.9965 134.636 78.8617C134.851 79.0126 135.056 79.1905 135.25 79.39C135.369 79.584 135.525 79.7727 135.725 79.9506C136.339 80.7754 137.401 82.5543 137.638 83.5947C137.735 84.662 137.207 87.3843 136.975 87.5837C140.301 89.8586 142.581 92.5646 144.738 95.9985C147.093 99.7503 147.605 103.502 147.605 103.502C148.915 102.591 150.867 98.8824 151.336 97.2167C151.81 95.5349 151.988 93.7991 152.274 92.0795C155.724 92.0148 159.168 91.2116 162.678 91.4434C166.165 91.6752 169.658 92.2951 172.941 93.508C177.68 95.2546 185.248 100.457 188.321 104.392C188.606 103.561 187.695 98.09 187.62 97.2167C187.113 91.2925 185.006 89.3734 185.474 88.554C188.499 83.2281 195.668 76.4305 210.368 75.5411C210.767 76.1502 218.05 88.3707 218.589 90.1496C202.892 96.4513 200.159 100.899 195.647 109.793C192.374 116.235 190.897 122.849 191.841 127.248C184.089 133.851 173.162 138.482 166.807 142.072C149.352 126.779 146.554 105.793 145.654 105.044C145.46 105.206 142.986 106.645 142.436 106.866C133.924 125.631 149.627 147.328 149.627 147.328C149.627 147.328 129.617 151.101 116.545 135.328C116.642 134.73 114.922 119.162 127.105 108.278C125.574 108.214 121.175 105.885 120.183 104.774C112.572 109.055 107.92 119.227 107.467 120.407C107.408 120.283 100.114 100.025 111.073 78.8563Z" fill="#E71D73"/>
<g opacity="0.43">
<path opacity="0.43" d="M191.048 87.4597C191.081 84.6674 190.639 81.8643 189.9 79.1366C189.151 76.409 188.067 73.7514 186.704 71.234C183.965 66.2153 180.046 61.671 175.011 58.5013C169.987 55.3424 164.171 53.7846 158.467 53.5096C152.753 53.2509 147.039 54.1781 141.918 56.399C147.476 56.1834 152.861 56.3613 158.042 57.31C163.211 58.248 168.154 59.9353 172.44 62.609C176.709 65.2827 180.402 69.013 183.491 73.2501C186.601 77.4979 189.081 82.2578 191.048 87.4597Z" fill="white"/>
</g>
<g opacity="0.5">
<path opacity="0.5" d="M158.57 83.3521C159.001 82.0152 159.06 80.5975 158.947 79.1959C158.829 77.789 158.468 76.3928 157.907 75.0559C156.791 72.3768 154.748 69.9834 152.22 68.4093C151.573 68.0427 150.931 67.6708 150.252 67.3797C149.913 67.2287 149.578 67.0886 149.228 66.9754C148.883 66.8568 148.543 66.7274 148.193 66.6304C147.487 66.4687 146.791 66.2584 146.08 66.1884C145.724 66.1452 145.374 66.0805 145.023 66.0536L143.967 66.0051C141.153 65.9404 138.414 66.4741 135.929 67.7193C136.598 67.9403 137.25 68.1182 137.892 68.2637C138.533 68.447 139.164 68.6034 139.784 68.7543C140.404 68.9376 141.013 69.0831 141.611 69.2448C142.204 69.4389 142.802 69.5629 143.368 69.7731C144.522 70.1235 145.616 70.5386 146.673 70.9806C147.185 71.234 147.719 71.428 148.198 71.7137C148.705 71.9509 149.174 72.2474 149.648 72.5223C151.508 73.6921 153.152 75.1422 154.608 76.9534C156.085 78.7647 157.346 80.8832 158.57 83.3521Z" fill="white"/>
</g>
<g opacity="0.25">
<path opacity="0.25" d="M162.289 113C157.707 114.434 153.249 115.75 148.775 116.758C146.538 117.259 144.306 117.685 142.08 117.992C139.854 118.305 137.633 118.51 135.428 118.515C134.873 118.547 134.328 118.515 133.778 118.504L132.954 118.483C132.679 118.472 132.409 118.434 132.14 118.418C131.601 118.37 131.045 118.37 130.512 118.278L128.895 118.062C126.749 117.706 124.663 117.114 122.631 116.316C120.577 115.545 118.663 114.413 116.787 113.146L115.386 112.154C114.944 111.788 114.507 111.416 114.049 111.049L113.364 110.494L112.723 109.89C112.281 109.497 111.849 109.087 111.38 108.688C113.192 113.13 116.523 117.151 120.922 119.728C123.105 121.016 125.504 121.965 127.973 122.569C129.213 122.833 130.463 123.07 131.719 123.189C132.032 123.221 132.35 123.259 132.663 123.28L133.606 123.318C134.231 123.34 134.862 123.383 135.487 123.356C136.113 123.329 136.738 123.329 137.363 123.28L139.223 123.119C140.452 122.941 141.681 122.779 142.883 122.504C145.293 121.987 147.643 121.275 149.902 120.38C152.166 119.485 154.349 118.429 156.43 117.211C158.5 115.987 160.505 114.634 162.289 113Z" fill="white"/>
</g>
<g opacity="0.25">
<path opacity="0.25" d="M173.61 127.172C169.648 129.846 165.718 132.261 161.664 134.304C157.627 136.353 153.46 137.981 149.196 138.924C147.066 139.414 144.91 139.711 142.743 139.781C140.576 139.857 138.387 139.792 136.215 139.436C131.838 138.822 127.558 137.226 123.164 135.301C124.771 137.07 126.587 138.708 128.657 140.007C130.69 141.371 132.97 142.395 135.347 143.156C135.946 143.328 136.549 143.511 137.153 143.673L139.002 144.029C139.617 144.169 140.247 144.201 140.873 144.271L141.816 144.363C142.129 144.385 142.447 144.385 142.759 144.395C143.39 144.406 144.021 144.439 144.651 144.395L146.538 144.282C147.783 144.12 149.034 143.953 150.252 143.673C155.152 142.584 159.691 140.401 163.648 137.565C165.626 136.142 167.475 134.568 169.157 132.843C170.817 131.091 172.381 129.248 173.61 127.172Z" fill="white"/>
</g>
<g opacity="0.55">
<path opacity="0.55" d="M223.667 96.1548C223.279 95.7128 223.031 95.206 222.772 94.6885C222.508 94.1764 222.255 93.6481 221.958 93.1199C221.656 92.597 221.306 92.0795 220.864 91.5943C220.416 91.1146 219.867 90.6725 219.209 90.376C217.877 89.7453 216.309 89.8262 215.047 90.1982C213.743 90.5539 212.622 91.1631 211.56 91.8153C211.015 92.1442 210.557 92.4892 210.072 92.8288C209.592 93.163 209.107 93.508 208.643 93.8692C207.705 94.5807 206.773 95.3085 205.878 96.0847C204.077 97.621 202.369 99.276 200.784 101.06C197.625 104.618 194.957 108.742 193.366 113.297C191.771 117.836 191.318 122.79 192.358 127.356C192.838 122.714 194.067 118.37 196.045 114.413C197.997 110.445 200.617 106.866 203.592 103.561C205.08 101.912 206.66 100.327 208.298 98.8016C209.123 98.0469 209.948 97.276 210.81 96.5483C211.236 96.1763 211.657 95.8044 212.093 95.4432L213.366 94.3813C215.01 93.0714 216.832 91.9124 218.524 92.2574C219.387 92.4191 220.249 93.0444 221.053 93.826C221.462 94.2088 221.856 94.6346 222.271 95.0551C222.691 95.4594 223.133 95.896 223.667 96.1548Z" fill="white"/>
</g>
<g opacity="0.68">
<path opacity="0.68" d="M217.662 91.0337C214.481 82.8346 210.142 74.8726 204.471 67.8918C201.641 64.3987 198.444 61.1643 194.865 58.372C191.291 55.5904 187.394 53.1916 183.264 51.3049C179.13 49.4236 174.726 48.119 170.23 47.5261C167.982 47.2242 165.718 47.1002 163.465 47.1487C161.227 47.208 158.996 47.3643 156.775 47.6339C147.886 48.7605 139.395 51.8655 131.671 56.0971L131.838 56.4367C135.843 54.6201 139.94 53.0299 144.145 51.8439C148.344 50.6364 152.651 49.8979 156.974 49.5637C159.136 49.402 161.303 49.3427 163.47 49.3804C165.615 49.4289 167.75 49.6392 169.858 50.0111C174.068 50.755 178.143 52.1404 181.944 54.081C183.841 55.0567 185.674 56.151 187.431 57.3585C189.189 58.566 190.86 59.9029 192.482 61.2937C195.722 64.0806 198.746 67.1263 201.63 70.323C204.53 73.5142 207.209 76.9265 209.797 80.4304C211.08 82.1931 212.347 83.972 213.581 85.7886L215.436 88.5163C216.061 89.4327 216.643 90.3491 217.36 91.2547L217.662 91.0337Z" fill="white"/>
</g>
<g opacity="0.5">
<path opacity="0.5" d="M161.723 144.94C165.567 143.425 169.276 141.614 172.796 139.269C174.548 138.088 176.23 136.752 177.798 135.237C178.585 134.482 179.318 133.668 180.03 132.827C180.72 131.97 181.394 131.086 181.992 130.159C184.423 126.461 185.906 122.24 186.65 118.03C187.399 113.809 187.593 109.599 187.625 105.448C187.642 103.373 187.582 101.308 187.496 99.2544C187.399 97.2114 187.307 95.1306 186.995 93.0013C186.833 91.9393 186.628 90.8774 186.337 89.8208C186.041 88.7804 185.722 87.7778 185.345 86.7859C184.601 84.8022 183.706 82.8939 182.671 81.0719C181.636 79.2498 180.472 77.5141 179.216 75.8645C178.585 75.0398 177.917 74.2366 177.27 73.4603C176.618 72.6787 175.955 71.8916 175.27 71.1208C173.895 69.5898 172.424 68.0967 170.704 66.8784C168.995 65.6817 166.952 64.7652 164.828 64.7868L164.807 65.3259C166.774 65.4984 168.537 66.501 170.025 67.7678C171.524 69.0346 172.812 70.5602 174.019 72.1504C174.623 72.9482 175.205 73.7676 175.788 74.5923C176.375 75.4279 176.941 76.2365 177.475 77.0774C178.542 78.7539 179.502 80.4897 180.326 82.274C181.157 84.0583 181.868 85.8911 182.413 87.7616C182.693 88.6888 182.919 89.6483 183.113 90.5755C183.297 91.4919 183.41 92.4353 183.48 93.3894C183.631 95.2977 183.615 97.2814 183.582 99.2975C183.55 101.303 183.485 103.297 183.351 105.281C183.097 109.243 182.504 113.151 181.48 116.86C180.461 120.569 179.157 124.094 177.372 127.345C175.604 130.595 173.184 133.512 170.386 136.277C167.594 139.048 164.451 141.63 161.443 144.465L161.723 144.94Z" fill="#E94E1B"/>
</g>
<path d="M224.395 95.8044C224.395 95.8044 220.443 89.3357 217.926 90.0526C217.926 90.0526 201.28 46.9277 164.656 46.9277C139.088 46.9277 116.582 58.7871 107.596 87.8964C98.6101 117.006 113.348 141.803 135.266 147.193C157.185 152.584 189.857 130.461 192.11 127.906H194.04C194.04 127.906 198.218 115.394 205.926 108.321C213.64 101.254 219.101 101.254 219.101 101.254L224.395 95.8044Z" stroke="#E71D73" stroke-width="1.61718" stroke-miterlimit="10" stroke-linecap="round" stroke-linejoin="round"/>
<path d="M135.185 79.0073C136.172 80.204 137.007 81.5732 137.401 83.0502C137.6 83.7834 137.649 84.5596 137.466 85.2766C137.299 85.9989 136.867 86.6242 136.307 87.104C135.746 87.5891 135.072 87.9557 134.361 88.2198C134.016 88.3762 133.638 88.4624 133.277 88.5864C132.905 88.678 132.533 88.7751 132.156 88.8505C130.641 89.1201 129.078 89.3788 127.655 89.0662C126.954 88.8883 126.307 88.5648 125.822 88.0743C125.331 87.5837 125.008 86.9423 124.83 86.2469C124.647 85.5515 124.604 84.8076 124.663 84.0637C124.722 83.3198 124.841 82.5759 125.051 81.8535C125.455 80.4034 126.091 78.9965 126.922 77.7405C127.746 76.4791 128.749 75.3255 129.951 74.4899C130.544 74.0641 131.202 73.7514 131.876 73.5627C132.544 73.3633 133.288 73.3202 134.037 73.3202C135.541 73.3256 137.067 73.552 138.544 73.9077C141.509 74.6247 144.366 75.9023 146.7 77.7998C147.864 78.7539 148.878 79.8698 149.681 81.115C150.489 82.3602 151.034 83.7618 151.336 85.2173C151.638 86.6781 151.681 88.1821 151.546 89.6915L151.271 91.9825L150.824 94.2411C150.128 97.2168 148.861 100.074 146.867 102.359C146.403 102.963 145.81 103.438 145.26 103.955C144.991 104.225 144.657 104.408 144.355 104.64C144.037 104.85 143.756 105.109 143.411 105.276C142.743 105.632 142.096 106.047 141.374 106.3C141.018 106.44 140.673 106.602 140.312 106.731L139.207 107.06C136.253 107.906 133.099 108.068 130 107.852C126.932 107.615 123.962 106.397 121.456 104.591C118.954 102.78 116.841 100.381 115.472 97.5941C114.124 94.8072 113.429 91.6914 113.596 88.5972C113.607 88.209 113.623 87.8263 113.677 87.4382C113.725 87.0555 113.758 86.6673 113.817 86.2846C113.963 85.5245 114.092 84.7591 114.318 84.0152C114.502 83.2605 114.787 82.5381 115.046 81.8104C115.175 81.4438 115.353 81.0988 115.504 80.7431C115.666 80.3927 115.801 80.0261 115.995 79.6865C117.386 76.9103 119.224 74.3713 121.305 72.0695C123.385 69.7678 125.768 67.7517 128.399 66.1345C131.029 64.5173 133.881 63.2721 136.857 62.4581C142.813 60.8247 149.153 60.8247 155.174 62.14C161.201 63.4553 166.931 66.1453 171.745 69.9618C174.143 71.8755 176.327 74.0641 178.165 76.5114C180.003 78.9534 181.415 81.708 182.639 84.5434C185.076 90.2198 186.493 96.3435 186.908 102.516C187.313 108.688 186.633 114.963 184.58 120.801C183.55 123.717 182.202 126.52 180.515 129.118C178.833 131.717 176.785 134.083 174.494 136.18C172.192 138.272 169.658 140.104 166.952 141.673C164.225 143.204 161.346 144.449 158.403 145.527C158.36 145.544 158.338 145.587 158.354 145.63C158.37 145.673 158.414 145.695 158.457 145.684C161.459 144.74 164.403 143.587 167.211 142.131C169.998 140.638 172.65 138.875 175.044 136.795C177.442 134.714 179.599 132.342 181.399 129.711C183.2 127.086 184.677 124.229 185.776 121.232C187.986 115.238 188.79 108.785 188.472 102.424C188.154 96.0578 186.693 89.7562 184.235 83.8696C183.625 82.3926 182.914 80.9587 182.154 79.5517C181.782 78.8456 181.334 78.1663 180.93 77.4709C180.488 76.7971 180.019 76.1395 179.556 75.4818C177.62 72.9051 175.329 70.6087 172.796 68.6357C167.729 64.6952 161.767 61.9621 155.503 60.6522C149.255 59.3261 142.662 59.4286 136.512 61.2236C130.345 62.9756 124.782 66.652 120.647 71.482C118.566 73.8754 116.744 76.5114 115.375 79.3846C115.186 79.735 115.051 80.1124 114.895 80.4735C114.75 80.8455 114.577 81.2013 114.448 81.5786C114.2 82.3333 113.919 83.0826 113.747 83.8588C113.521 84.6243 113.397 85.4113 113.251 86.193C113.192 86.5865 113.159 86.9854 113.116 87.3789C113.062 87.7724 113.046 88.1713 113.041 88.5702C112.895 91.7561 113.634 94.9635 115.041 97.8097C116.475 100.651 118.572 103.152 121.143 105.039C123.703 106.925 126.755 108.203 129.957 108.51C133.11 108.807 136.334 108.731 139.455 107.928L140.619 107.61C141.002 107.48 141.374 107.324 141.751 107.184C142.522 106.931 143.217 106.516 143.94 106.149C144.306 105.977 144.619 105.712 144.964 105.497C145.293 105.26 145.654 105.065 145.95 104.785C146.554 104.246 147.206 103.745 147.719 103.109C149.918 100.699 151.357 97.675 152.139 94.5592L152.64 92.2035L152.958 89.8208C153.131 88.2091 153.088 86.538 152.759 84.9208C152.43 83.3036 151.815 81.7241 150.921 80.3334C150.031 78.9318 148.883 77.7189 147.611 76.6893C146.339 75.6543 144.915 74.8349 143.449 74.1557C141.978 73.4765 140.436 72.9644 138.867 72.6032C137.293 72.2367 135.687 72.0156 134.048 72.021C133.229 72.0318 132.388 72.0803 131.547 72.3337C130.711 72.5763 129.935 72.9644 129.256 73.4603C127.887 74.4414 126.798 75.7082 125.941 77.0936C125.509 77.7836 125.132 78.5113 124.814 79.2606C124.485 80.0045 124.232 80.7808 124.032 81.5732C123.822 82.3602 123.709 83.1796 123.666 84.0044C123.623 84.8291 123.687 85.6701 123.919 86.4894C124.145 87.3034 124.566 88.1066 125.202 88.7104C125.833 89.3249 126.652 89.7022 127.482 89.8855C128.312 90.0472 129.148 90.0526 129.957 89.961C130.76 89.8694 131.536 89.7292 132.318 89.5513C132.706 89.4597 133.094 89.3465 133.477 89.2333C133.854 89.0931 134.242 88.9853 134.609 88.8074C135.353 88.4948 136.075 88.0797 136.679 87.5083C137.288 86.9477 137.762 86.1983 137.918 85.379C138.096 84.5596 138.005 83.7187 137.762 82.9478C137.536 82.1716 137.169 81.4546 136.743 80.7808C136.317 80.107 135.838 79.4763 135.299 78.8941C135.266 78.8617 135.218 78.8617 135.185 78.8887C135.158 78.921 135.153 78.9695 135.185 79.0073Z" fill="#E71D73"/>
</svg>
