<svg width="313" height="169" viewBox="0 0 313 169" fill="none" xmlns="http://www.w3.org/2000/svg">
<path opacity="0.18" d="M93.6235 156.408C95.227 156.408 96.7928 156.435 98.3103 156.489C102.922 154.504 110.498 153.207 119.075 153.207C123.192 153.207 127.077 153.508 130.515 154.035C135.186 152.303 142.257 151.2 150.172 151.2C157.813 151.2 164.668 152.227 169.334 153.858C172.465 153.438 175.92 153.201 179.557 153.201C184.664 153.201 189.41 153.664 193.397 154.45C197.379 153.659 202.131 153.201 207.237 153.201C221.292 153.201 232.689 156.683 232.689 160.972C232.689 165.26 221.292 168.742 207.237 168.742C202.131 168.742 197.385 168.279 193.397 167.493C189.415 168.284 184.664 168.742 179.557 168.742C171.917 168.742 165.061 167.714 160.396 166.083C157.264 166.503 153.81 166.74 150.172 166.74C146.056 166.74 142.171 166.439 138.732 165.911C134.061 167.644 126.991 168.747 119.075 168.747C110.498 168.747 102.922 167.45 98.3103 165.465C96.7928 165.513 95.227 165.545 93.6235 165.545C79.5684 165.545 68.1715 163.501 68.1715 160.977C68.1715 158.453 79.5684 156.408 93.6235 156.408Z" fill="#008D36"/>
<path opacity="0.25" d="M64.3133 156.656C65.9868 156.656 67.628 156.683 69.2154 156.737C74.0421 154.751 81.9683 153.454 90.9383 153.454C95.2431 153.454 99.3111 153.756 102.906 154.283C107.792 152.55 115.185 151.447 123.472 151.447C131.468 151.447 138.635 152.475 143.516 154.105C146.793 153.686 150.409 153.449 154.213 153.449C159.551 153.449 164.523 153.912 168.688 154.697C172.858 153.906 177.825 153.449 183.163 153.449C197.869 153.449 209.788 156.93 209.788 161.219C209.788 165.513 197.869 168.989 183.163 168.989C177.825 168.989 172.853 168.526 168.688 167.741C164.518 168.532 159.551 168.989 154.213 168.989C146.217 168.989 139.05 167.961 134.169 166.331C130.892 166.751 127.276 166.987 123.472 166.987C119.167 166.987 115.099 166.686 111.504 166.159C106.618 167.891 99.225 168.995 90.9383 168.995C81.9683 168.995 74.0367 167.698 69.2154 165.712C67.628 165.761 65.9868 165.793 64.3133 165.793C49.6071 165.793 37.6883 163.748 37.6883 161.224C37.6883 158.701 49.6071 156.656 64.3133 156.656Z" fill="#008D36"/>
<path opacity="0.23" d="M26.3398 156.656C27.9434 156.656 29.5092 156.683 31.0266 156.737C35.6381 154.751 43.2145 153.454 51.7918 153.454C55.9082 153.454 59.7933 153.756 63.2317 154.283C67.9024 152.55 74.973 151.447 82.8884 151.447C90.5294 151.447 97.3847 152.475 102.05 154.105C105.182 153.686 108.636 153.449 112.274 153.449C117.38 153.449 122.126 153.912 126.114 154.697C130.096 153.906 134.847 153.449 139.954 153.449C154.009 153.449 165.406 156.93 165.406 161.219C165.406 165.513 154.009 168.989 139.954 168.989C134.847 168.989 130.101 168.526 126.114 167.741C122.132 168.532 117.38 168.989 112.274 168.989C104.633 168.989 97.7775 167.961 93.1122 166.331C89.9805 166.751 86.5259 166.987 82.8884 166.987C78.7719 166.987 74.8869 166.686 71.4485 166.159C66.7778 167.891 59.7072 168.995 51.7918 168.995C43.2145 168.995 35.6381 167.698 31.0266 165.712C29.5092 165.761 27.9434 165.793 26.3398 165.793C12.2847 165.793 0.887835 163.748 0.887835 161.224C0.887835 158.701 12.2794 156.656 26.3398 156.656Z" fill="#008D36"/>
<path d="M138.264 145.544C144.495 137.032 184.384 123.547 202.26 117.843C202.965 117.316 203.707 116.772 204.493 116.224C213.727 109.739 229.202 93.4889 231.086 91.0675C232.969 88.6461 240.233 78.6913 243.462 74.521C246.69 70.3508 258.663 50.1721 263.64 41.159C267.768 33.6902 275.027 20.1356 277.394 15.7071C277.077 14.6578 276.899 13.5439 276.899 12.3924C276.899 6.09665 282 0.995499 288.296 0.995499C290.696 0.995499 292.924 1.74345 294.759 3.00798C296.593 1.73807 298.821 0.995499 301.221 0.995499C307.517 0.995499 312.618 6.09665 312.618 12.3924C312.618 18.6881 307.517 23.7839 301.221 23.7839C298.821 23.7839 296.593 23.0359 294.759 21.7714C294.753 21.7768 294.748 21.7768 294.742 21.7822L294.942 21.9006C294.942 21.9006 286.235 30.9352 284.621 32.9531C283.007 34.9709 279.509 41.4281 276.894 46.0019C274.279 50.5757 278.648 56.7854 276.765 70.9104C274.881 85.0354 273.315 88.6461 276.544 92.4127C279.773 96.1794 282.06 96.9866 281.118 98.8699C280.176 100.753 276.409 98.3318 274.661 98.3318C274.661 98.3318 257.06 91.4818 251.802 76.6734C251.802 76.6734 236.547 91.202 242.257 94.5221L267.472 95.3723C267.472 95.3723 280.886 101.91 261.343 101.555C255.596 101.453 247.82 126.264 244.635 137.349C244.592 137.5 244.549 137.645 244.511 137.785C243.946 139.894 241.869 149.37 246.954 159.535C250.183 165.992 240.228 159.804 231.887 159.535C223.547 159.266 217.628 163.571 207.673 164.109C197.718 164.647 189.647 160.073 182.382 160.073C175.118 160.073 159.513 164.464 153.594 164.152C147.675 163.84 136.375 159.804 128.842 160.611C121.309 161.418 114.044 164.647 113.237 161.687C112.43 158.728 130.192 156.575 138.264 145.544ZM270.383 46.244C272.32 46.7983 273.014 43.3383 278.271 35.0355C281.059 30.6339 284.508 26.5712 287.139 23.7247C284.406 23.4503 281.963 22.2073 280.149 20.3508C276.296 26.2645 269.893 38.63 269.414 40.2927C268.86 42.2352 268.446 45.6898 270.383 46.244Z" fill="#A3195B"/>
<path d="M264.91 41.5195C262.736 45.2378 261.348 48.574 259.379 52.3998C256.947 57.1136 254.186 62.3923 252.007 67.2298C248.999 73.9129 245.189 80.1979 241.385 86.4667C238.893 90.5724 236.311 94.7857 232.474 97.6807C230.343 99.2896 227.749 100.586 226.625 103.008C225.457 105.51 225.532 109.379 222.815 109.869C221.05 110.186 219.134 108.577 217.596 110.057C217.219 110.417 216.977 110.902 216.842 111.408C216.057 114.415 217.359 117.542 216.412 120.555C216.046 121.723 215.266 122.74 214.173 123.278C210.934 124.876 209.616 120.587 206.613 121.701C205.687 122.046 204.993 122.821 204.638 123.741C203.384 126.985 205.472 130.252 204.041 133.48C203.583 134.508 202.679 135.304 201.571 135.444C199.058 135.756 198.24 132.851 196.217 132.092C192.843 130.833 190.298 136.251 190.712 139.329C190.901 140.745 190.658 142.192 189.857 143.376C184.868 150.732 179.079 139.48 174.349 144.113C173.455 144.985 172.939 146.158 172.707 147.385C172.325 149.419 170.674 152.373 168.36 152.007C169.624 149.198 165.938 146.26 162.914 146.852C159.605 147.498 157.318 150.495 154.993 152.846C154.66 153.185 154.267 153.465 153.82 153.632C150.064 155.031 148.848 147.864 145.539 148.794C143.516 149.365 142.913 152.771 140.82 152.599C140.12 152.54 139.545 152.061 138.91 151.765C136.316 150.57 133.496 152.62 131.15 154.24C126.953 157.13 121.271 158.292 116.202 158.846C120.109 157.506 124.51 156.166 128.013 153.971C132.781 150.985 139.771 143.048 144.565 140.099C158.895 131.285 172.315 129.202 187.79 122.611C192.283 120.695 197.691 120.071 201.835 117.644C211.956 111.709 219.958 102.696 228.196 93.6449C232.264 89.1787 235.159 85.0085 238.958 80.3701C243.849 74.4026 248.116 67.9401 251.571 61.0417C254.138 55.9136 257.033 52.4806 259.379 47.3579C261.725 42.2406 264.857 38.0273 268.338 31.5701C269.786 28.8904 271.744 26.1623 272.492 23.2081C272.912 21.54 275.688 17.1115 277.394 15.7017C277.835 15.3357 277.319 16.2344 277.195 16.794C275.602 24.2197 268.483 35.4121 264.91 41.5195Z" fill="#662483"/>
<path opacity="0.75" d="M218.548 126.254C217.062 126.254 215.857 124.326 215.857 121.949C215.857 119.571 217.062 117.644 218.548 117.644C220.034 117.644 221.238 119.571 221.238 121.949C221.238 124.326 220.034 126.254 218.548 126.254Z" fill="#29235C"/>
<path opacity="0.75" d="M228.167 124.707C227.164 123.705 228.249 120.995 230.59 118.654C232.931 116.313 235.642 115.228 236.644 116.23C237.646 117.232 236.561 119.943 234.22 122.284C231.879 124.625 229.169 125.71 228.167 124.707Z" fill="#29235C"/>
<path opacity="0.75" d="M189.271 140.6C187.987 139.316 189.394 135.827 192.414 132.807C195.434 129.788 198.923 128.38 200.207 129.664C201.49 130.948 200.083 134.437 197.064 137.457C194.044 140.476 190.555 141.884 189.271 140.6Z" fill="#29235C"/>
<path opacity="0.75" d="M153.323 145.327C153.09 144.062 156.139 142.441 160.131 141.708C164.124 140.974 167.549 141.405 167.781 142.671C168.014 143.937 164.966 145.557 160.973 146.291C156.981 147.024 153.555 146.593 153.323 145.327Z" fill="#29235C"/>
<path opacity="0.75" d="M140.928 156.032C138.922 156.032 137.295 155.167 137.295 154.1C137.295 153.033 138.922 152.168 140.928 152.168C142.934 152.168 144.56 153.033 144.56 154.1C144.56 155.167 142.934 156.032 140.928 156.032Z" fill="#29235C"/>
<path opacity="0.75" d="M206.575 151.227C204.712 151.227 203.201 150.285 203.201 149.123C203.201 147.961 204.712 147.019 206.575 147.019C208.439 147.019 209.949 147.961 209.949 149.123C209.949 150.285 208.439 151.227 206.575 151.227Z" fill="#29235C"/>
<path opacity="0.75" d="M231.731 102.039C230.691 102.039 229.848 100.774 229.848 99.2143C229.848 97.6541 230.691 96.3893 231.731 96.3893C232.771 96.3893 233.615 97.6541 233.615 99.2143C233.615 100.774 232.771 102.039 231.731 102.039Z" fill="#29235C"/>
<path opacity="0.75" d="M254.419 63.3438C253.545 62.4697 254.122 60.4749 255.709 58.8883C257.295 57.3018 259.29 56.7243 260.164 57.5985C261.039 58.4726 260.461 60.4674 258.875 62.054C257.288 63.6405 255.293 64.218 254.419 63.3438Z" fill="#29235C"/>
<path opacity="0.75" d="M265.013 54.6481C264.432 54.5207 264.116 53.7115 264.307 52.8406C264.499 51.9698 265.124 51.367 265.705 51.4944C266.285 51.6218 266.601 52.431 266.41 53.3019C266.219 54.1727 265.593 54.7755 265.013 54.6481Z" fill="#29235C"/>
<path opacity="0.25" d="M274.79 50.7102C262.414 50.7102 254.918 77.0016 267.827 83.4534C269.947 84.5134 272.083 81.0266 272.196 79.9988C273.654 76.7003 275.462 71.5453 275.963 65.0074C276.415 59.0238 275.608 54.0625 274.79 50.7102Z" fill="#E71D73"/>
<path opacity="0.25" d="M257.829 103.293C260.105 101.469 257.291 101.77 255.553 102.179C238.086 106.312 226.426 147.751 237.893 147.412C240.266 147.342 243.085 145.566 243.193 144.533L246.437 128.939L252.088 113.781L257.829 103.293Z" fill="#E71D73"/>
<path opacity="0.25" d="M239.803 156.032C239.803 156.032 235.229 152.4 232.404 152.238C229.579 152.077 228.885 156.172 230.983 156.683C233.077 157.194 239.803 159.174 239.803 156.032Z" fill="#E71D73"/>
<path opacity="0.25" d="M199.715 160.902C197.261 161.779 194.511 161.165 192.133 160.1C190.685 159.449 189.313 158.642 187.92 157.883C187.65 157.738 187.817 157.334 188.113 157.42C191.885 158.534 198.143 160.315 199.715 160.304C202.001 160.288 199.715 160.902 199.715 160.902Z" fill="#E71D73"/>
<path opacity="0.25" d="M133.125 158.432C133.125 158.432 143.753 158.583 148.595 160.175C153.438 161.768 154.154 162.306 154.154 162.306C154.154 162.306 134.513 159.04 133.125 158.432Z" fill="#E71D73" stroke="#662483" stroke-width="0.538097" stroke-miterlimit="10"/>
<path d="M248.359 76.8617C249.214 76.6734 249.844 76.3505 250.387 76.1676C250.925 75.9631 251.323 75.8878 251.684 75.8286C251.856 75.8017 252.001 75.7909 252.131 75.7801C252.254 75.764 252.405 75.764 252.615 75.8232C253.045 75.9308 253.61 76.3667 254.385 76.7649C254.627 75.9416 254.622 75.1237 254.079 74.2896C253.809 73.886 253.363 73.5201 252.841 73.3264C252.324 73.1273 251.781 73.095 251.291 73.1704C250.317 73.3103 249.489 73.8968 249.02 74.5748C248.536 75.2582 248.337 75.9954 248.359 76.8617Z" fill="#662483"/>
<path d="M236.951 89.3725C236.994 89.2971 236.962 89.1841 236.886 89.1142C236.816 89.0442 236.719 88.985 236.59 88.9743C236.327 88.9797 236.138 89.1518 236.009 89.2595C235.762 89.4639 235.546 89.6684 235.337 89.8944C234.917 90.3464 234.551 90.8684 234.266 91.4657C233.986 92.0629 233.798 92.7517 233.781 93.4889C233.749 94.2207 233.938 94.9956 234.239 95.6467C234.868 96.9596 235.902 97.8744 237.048 98.4663C238.199 99.0474 239.512 99.295 240.744 98.9883C239.765 98.1973 238.974 97.4977 238.285 96.7498C237.602 96.0126 237.026 95.2377 236.676 94.5005C236.499 94.1292 236.386 93.7849 236.327 93.3813C236.257 92.9831 236.257 92.5419 236.289 92.0522C236.327 91.5625 236.407 91.0406 236.51 90.4863C236.553 90.2065 236.612 89.9213 236.65 89.6308C236.66 89.5016 236.66 89.4263 236.682 89.3563C236.693 89.3025 236.865 89.2379 236.951 89.3725Z" fill="#662483"/>
<path d="M285.498 19.8396C283.05 18.1446 280.515 16.3528 279.283 13.9475C278.777 12.9681 278.352 11.7682 277.109 11.4184C276.878 13.9744 276.953 16.7187 278.734 18.8442C279.724 20.028 281.172 20.9158 282.662 21.6853C284.287 22.5247 286.036 23.2673 287.936 23.5579C289.587 23.8162 291.611 23.7516 293.037 22.966C290.002 22.5893 287.823 21.4485 285.498 19.8396Z" fill="#662483"/>
<path d="M289.544 26.1892C289.485 26.2537 289.421 26.3076 289.351 26.356C288.474 26.9694 281.887 32.9477 274.51 41.6487C274.327 41.8639 273.999 41.6164 274.155 41.3796L277.739 34.2445C277.749 34.223 277.76 34.2014 277.776 34.1853C278.277 33.4858 287.005 22.7669 287.392 22.7454L290.357 22.5785C291.331 22.5247 291.874 23.6816 291.213 24.3973L289.544 26.1892Z" fill="#662483"/>
<path d="M201.103 160.224C199.634 160.078 198.213 159.761 196.841 159.287C195.458 158.835 194.118 158.265 192.779 157.689C190.099 156.543 187.365 155.284 184.336 154.864C182.84 154.654 181.247 154.735 179.81 154.993C178.347 155.241 176.889 155.542 175.468 155.957C172.611 156.753 169.883 157.861 167.176 159.002C170.022 158.254 172.837 157.415 175.672 156.769C177.093 156.457 178.519 156.183 179.956 156C181.409 155.774 182.781 155.72 184.19 155.93C187.01 156.29 189.706 157.463 192.466 158.464C193.844 158.981 195.254 159.454 196.701 159.793C198.149 160.105 199.634 160.321 201.103 160.224Z" fill="#662483"/>
<path d="M241.186 155.957C240.023 155.047 238.899 154.1 237.607 153.315C236.956 152.938 236.251 152.615 235.514 152.416C234.798 152.195 234.061 152.05 233.319 151.926C231.834 151.673 230.316 151.636 228.815 151.738C227.314 151.851 225.828 152.141 224.381 152.529C222.917 152.927 221.486 153.605 220.259 154.498C219.032 155.397 217.94 156.382 216.826 157.323C215.701 158.254 214.561 159.153 213.296 159.852C212.048 160.573 210.649 161.042 209.169 161.117C210.643 161.294 212.155 160.918 213.533 160.326C214.905 159.707 216.159 158.868 217.348 157.98C218.543 157.103 219.656 156.129 220.84 155.332C222.013 154.52 223.289 153.923 224.666 153.562C227.443 152.771 230.338 152.443 233.206 152.749C233.921 152.825 234.637 152.938 235.342 153.094C236.041 153.223 236.703 153.471 237.36 153.777C238.689 154.375 239.889 155.252 241.186 155.957Z" fill="#662483"/>
<path d="M153.255 160.084C151.254 159.944 149.316 159.599 147.395 159.153C145.474 158.701 143.57 158.168 141.638 157.662C139.706 157.178 137.742 156.715 135.735 156.495C133.733 156.269 131.672 156.274 129.719 156.742C131.721 156.721 133.679 156.952 135.611 157.323C137.543 157.705 139.453 158.2 141.374 158.701C143.301 159.185 145.248 159.675 147.239 159.971C149.225 160.272 151.27 160.39 153.255 160.084Z" fill="#662483"/>
<g opacity="0.25">
<path opacity="0.25" d="M211.025 160.358C213.043 160.078 214.884 159.11 216.53 158.093C218.182 157.054 219.673 155.93 221.152 154.956C222.621 153.987 224.155 153.158 225.802 152.421C227.448 151.679 229.186 151.071 231.096 150.414C229.192 149.72 227.098 149.65 225.086 149.984C223.068 150.328 221.099 151.114 219.377 152.254C217.665 153.39 216.25 154.751 214.932 156.123L211.025 160.358Z" fill="#662483"/>
</g>
<g opacity="0.25">
<path opacity="0.25" d="M167.892 158.383C169.662 158.26 171.265 157.964 172.858 157.673C174.44 157.372 175.99 157.049 177.529 156.71C179.073 156.371 180.612 156.016 182.173 155.628C183.738 155.23 185.32 154.821 186.978 154.186C185.347 153.471 183.636 153.185 181.93 153.099C180.219 153.029 178.503 153.185 176.835 153.557C175.167 153.923 173.542 154.498 172.019 155.284C170.507 156.08 169.075 157.06 167.892 158.383Z" fill="#662483"/>
</g>
<g opacity="0.25">
<path opacity="0.25" d="M119.344 162.134C122.051 161.601 124.629 161.112 127.206 160.837C129.784 160.552 132.329 160.444 134.836 160.606C136.09 160.686 137.328 160.848 138.555 161.079C139.787 161.316 140.96 161.644 142.219 162.048C143.473 162.446 144.786 162.887 146.179 163.146C147.557 163.409 149.047 163.468 150.377 163.065C147.67 162.473 145.647 160.993 143.209 159.707C142.009 159.056 140.648 158.491 139.27 158.098C137.887 157.711 136.467 157.485 135.052 157.383C132.21 157.2 129.369 157.565 126.7 158.351C124.031 159.158 121.486 160.385 119.344 162.134Z" fill="#E6332A"/>
</g>
<path d="M250.904 77.5236C248.45 79.7728 237.973 90.4056 241.783 94.0808L268.591 95.383C268.591 95.383 254.38 86.273 252.007 78.1531C251.985 78.0832 251.969 78.0132 251.931 77.954L251.716 77.6312C251.533 77.346 251.146 77.2976 250.904 77.5236Z" fill="white"/>
<path d="M253.793 82.3988L245.706 93.8172" stroke="#C6C6C6" stroke-width="1.61429" stroke-miterlimit="10" stroke-linecap="round"/>
<path d="M258.163 87.5161L253.352 94.3714" stroke="#C6C6C6" stroke-width="1.61429" stroke-miterlimit="10" stroke-linecap="round"/>
<path d="M243.817 85.8264C243.817 85.8264 243.79 90.228 248.133 90.2388C248.133 90.2388 249.957 93.9624 253.417 93.306C253.417 93.306 253.713 94.4091 255.935 94.4736" stroke="#C6C6C6" stroke-width="1.61429" stroke-miterlimit="10" stroke-linecap="round"/>
<path d="M248.848 93.7848C247.761 93.2952 246.75 93.0046 245.835 92.6764C244.931 92.3589 244.129 91.9822 243.72 91.5894C243.51 91.3957 243.386 91.2074 243.268 90.9383C243.15 90.6747 243.096 90.298 243.08 89.8729C243.064 89.4478 243.101 88.9743 243.171 88.4738C243.241 87.968 243.306 87.4515 243.494 86.8972C243.187 86.9456 242.918 87.1178 242.671 87.2846C242.418 87.4568 242.197 87.6559 241.987 87.8765C241.573 88.3178 241.239 88.8344 241.008 89.4424C240.782 90.0451 240.653 90.75 240.782 91.5141C240.847 91.8908 240.97 92.2728 241.164 92.6279C241.352 92.9831 241.611 93.2898 241.885 93.5588C242.456 94.0808 243.107 94.3821 243.725 94.5597C244.355 94.7427 244.963 94.7857 245.55 94.7696C246.728 94.705 247.831 94.4037 248.848 93.7848Z" fill="#2D2E83"/>
<path d="M137.833 145.367C144.065 136.854 183.954 123.369 201.829 117.66C202.534 117.133 203.277 116.589 204.062 116.041C213.296 109.556 228.772 93.306 230.655 90.8845C232.538 88.4631 239.803 78.5083 243.031 74.3381C246.26 70.1678 258.233 49.9892 263.21 40.9761C267.337 33.5073 274.596 19.9526 276.964 15.5241C276.646 14.4748 276.469 13.361 276.469 12.2094C276.469 5.9137 281.57 0.81254 287.866 0.81254C290.265 0.81254 292.493 1.56049 294.328 2.82502C296.168 1.55511 298.391 0.807159 300.796 0.807159C307.092 0.807159 312.193 5.90832 312.193 12.204C312.193 18.4998 307.092 23.6009 300.796 23.6009C298.396 23.6009 296.168 22.853 294.334 21.5884C294.328 21.5938 294.323 21.5938 294.317 21.5992L294.516 21.7176C294.516 21.7176 285.81 30.7522 284.196 32.7701C280.095 37.8982 277.792 41.1752 276.469 45.8189C274.214 53.7236 278.357 54.6276 277.33 66.1698C277.012 69.7642 276.205 74.2358 275.145 84.5242C274.817 87.7044 274.602 90.1742 276.119 92.2352C277.755 94.4467 280.779 95.4745 280.903 97.8098C280.919 98.0896 280.849 98.3748 280.693 98.6923C279.751 100.576 275.984 98.1542 274.236 98.1542C274.236 98.1542 256.634 91.3042 251.377 76.4958C251.377 76.4958 236.122 91.0244 241.831 94.3445L267.047 95.1947C267.047 95.1947 280.461 101.733 260.918 101.377C255.171 101.275 247.395 126.087 244.21 137.172C244.167 137.322 244.124 137.468 244.086 137.607C243.521 139.717 241.444 149.193 246.529 159.357C249.758 165.814 239.803 159.626 231.462 159.357C223.122 159.088 217.203 163.393 207.248 163.931C197.293 164.469 189.222 159.895 181.957 159.895C174.693 159.895 159.088 164.286 153.169 163.974C147.25 163.662 135.95 159.626 128.417 160.434C120.883 161.241 113.619 164.469 112.812 161.51C112.005 158.55 129.762 156.398 137.833 145.367ZM269.958 46.0665C271.895 46.6207 272.589 43.1607 277.846 34.8579C280.634 30.4563 284.083 26.3937 286.714 23.5471C283.981 23.2727 281.538 22.0297 279.724 20.1733C275.871 26.0869 269.463 38.4524 268.989 40.1151C268.435 42.0523 268.021 45.5122 269.958 46.0665Z" stroke="#29235C" stroke-width="1.61429" stroke-miterlimit="10"/>
<path d="M219.71 101.194C219.92 101.184 205.887 115.847 199.499 117.935C199.499 117.935 207.431 101.824 219.71 101.194Z" fill="#432918" stroke="#29235C" stroke-width="0.538097" stroke-miterlimit="10"/>
<path d="M224.795 94.6619C224.795 94.6619 220.851 88.2048 218.338 88.9204C218.338 88.9204 201.722 45.8727 165.163 45.8727C139.641 45.8727 117.176 57.7108 108.206 86.768C99.2358 115.825 113.947 140.578 135.826 145.959C157.705 151.34 190.314 129.256 192.563 126.706H194.49C194.49 126.706 198.66 114.216 206.355 107.157C214.055 100.102 219.506 100.102 219.506 100.102L224.795 94.6619Z" fill="#95C11F"/>
<path opacity="0.52" d="M127.776 66.8047C126.652 66.3096 123.961 62.0049 124.069 61.0578C139.007 48.3749 154.95 47.2825 154.95 47.2825C154.95 47.2825 148.87 53.2177 150.602 60.8049C151.878 60.8049 155.596 61.2408 158.109 61.9618C160.622 62.6775 165.502 64.6953 165.502 64.6953C165.502 64.6953 165.368 52.9379 172.46 47.5247C181.823 49.9246 193.559 53.4276 199.499 61.2085C195.491 63.447 186.316 64.0711 182.151 78.9172C175.516 69.097 166.326 64.8299 166.326 64.8299C166.326 64.8299 152.281 70.7704 151.576 81.7261C151.496 81.5485 140.782 67.445 129.342 75.5272C126.022 75.8178 123.725 70.5983 123.595 70.4207C123.983 70.0709 127.809 66.8154 127.776 66.8047Z" fill="#008D36"/>
<path opacity="0.52" d="M111.865 77.9164C111.865 77.9164 115.126 79.6006 115.637 80.9458C111.58 89.8621 116.595 98.2349 116.595 98.2349C116.595 98.2349 117.305 89.5661 124.607 86.3752C124.887 86.2515 125.129 86.0847 125.414 86.0255C124.742 83.604 125 81.9467 125.952 79.8374C126.689 78.0132 132.738 76.0599 135.385 77.9217C135.6 78.0724 135.805 78.25 135.999 78.4491C136.117 78.6428 136.273 78.8311 136.472 79.0087C137.085 79.832 138.146 81.6077 138.382 82.6462C138.479 83.7117 137.952 86.429 137.72 86.6281C141.041 88.8989 143.317 91.6002 145.469 95.0278C147.821 98.773 148.332 102.518 148.332 102.518C149.639 101.609 151.587 97.9066 152.055 96.2439C152.529 94.5651 152.706 92.8324 152.992 91.1159C156.435 91.0513 159.874 90.2495 163.377 90.4809C166.858 90.7123 170.345 91.3311 173.622 92.5418C178.352 94.2852 185.907 99.4779 188.974 103.406C189.259 102.577 188.35 97.1156 188.275 96.2439C187.769 90.3302 185.665 88.4146 186.133 87.5967C189.152 82.2803 196.308 75.4949 210.982 74.6071C211.38 75.2151 218.65 87.4138 219.188 89.1895C203.519 95.4798 200.791 99.9191 196.287 108.798C193.021 115.228 191.546 121.83 192.488 126.221C184.75 132.813 173.843 137.435 167.499 141.019C150.075 125.748 147.282 104.805 146.384 104.057C146.19 104.219 143.72 105.655 143.171 105.876C134.675 124.607 150.35 146.265 150.35 146.265C150.35 146.265 130.375 150.032 117.327 134.287C117.423 133.69 115.707 118.15 127.868 107.286C126.34 107.221 121.949 104.897 120.959 103.788C113.361 108.061 108.717 118.214 108.265 119.393C108.206 119.274 100.925 99.0528 111.865 77.9164Z" fill="#008D36"/>
<g opacity="0.43">
<path opacity="0.43" d="M191.697 87.0479C191.729 84.2605 191.288 81.4624 190.551 78.7397C189.803 76.0169 188.721 73.3641 187.36 70.8512C184.626 65.8415 180.714 61.3053 175.689 58.1413C170.674 54.9881 164.867 53.433 159.174 53.1586C153.471 52.9003 147.767 53.8258 142.655 56.0427C148.203 55.8275 153.578 56.0051 158.749 56.9521C163.91 57.8884 168.844 59.5727 173.122 62.2416C177.384 64.9106 181.07 68.6342 184.153 72.8637C187.258 77.0985 189.733 81.8552 191.697 87.0479Z" fill="white"/>
</g>
<g opacity="0.5">
<path opacity="0.5" d="M159.277 82.9422C159.707 81.6077 159.766 80.1925 159.653 78.7935C159.535 77.389 159.174 75.9954 158.615 74.6609C157.501 71.9866 155.462 69.5974 152.938 68.0262C152.292 67.6603 151.652 67.289 150.974 66.9984C150.635 66.8477 150.301 66.7078 149.951 66.5948C149.607 66.4764 149.268 66.3473 148.918 66.2504C148.213 66.089 147.519 65.8792 146.809 65.8092C146.454 65.7662 146.104 65.7016 145.754 65.6747L144.7 65.6263C141.891 65.5617 139.157 66.0944 136.677 67.3374C137.344 67.558 137.995 67.7356 138.635 67.8809C139.276 68.0638 139.905 68.2199 140.524 68.3705C141.143 68.5535 141.751 68.6988 142.348 68.8602C142.94 69.0539 143.537 69.1777 144.102 69.3875C145.254 69.7373 146.346 70.1516 147.401 70.5929C147.912 70.8458 148.445 71.0395 148.924 71.3247C149.429 71.5615 149.898 71.8574 150.371 72.1318C152.228 73.2995 153.869 74.747 155.322 76.555C156.796 78.3684 158.055 80.4777 159.277 82.9422Z" fill="white"/>
</g>
<g opacity="0.25">
<path opacity="0.25" d="M162.989 112.537C158.416 113.969 153.966 115.282 149.499 116.288C147.266 116.788 145.039 117.214 142.816 117.52C140.594 117.832 138.377 118.037 136.176 118.042C135.622 118.075 135.078 118.042 134.53 118.031L133.706 118.01C133.432 117.999 133.163 117.962 132.894 117.945C132.356 117.897 131.801 117.897 131.269 117.805L129.654 117.59C127.513 117.235 125.43 116.643 123.402 115.847C121.352 115.077 119.441 113.947 117.569 112.683L116.17 111.693C115.728 111.327 115.293 110.955 114.835 110.59L114.152 110.035L113.511 109.433C113.07 109.04 112.64 108.631 112.172 108.233C113.98 112.667 117.305 116.681 121.696 119.253C123.875 120.539 126.27 121.486 128.734 122.089C129.972 122.352 131.22 122.589 132.474 122.708C132.786 122.74 133.104 122.777 133.416 122.799L134.357 122.837C134.982 122.858 135.611 122.901 136.235 122.874C136.859 122.847 137.484 122.847 138.108 122.799L139.964 122.638C141.191 122.46 142.418 122.299 143.618 122.024C146.023 121.508 148.369 120.797 150.624 119.904C152.884 119.011 155.063 117.956 157.14 116.74C159.207 115.519 161.208 114.173 162.989 112.537Z" fill="white"/>
</g>
<g opacity="0.25">
<path opacity="0.25" d="M174.289 126.689C170.334 129.358 166.412 131.769 162.365 133.808C158.335 135.853 154.175 137.478 149.919 138.42C147.794 138.91 145.641 139.206 143.478 139.276C141.315 139.351 139.13 139.286 136.962 138.931C132.592 138.318 128.32 136.725 123.934 134.804C125.538 136.569 127.351 138.205 129.418 139.502C131.446 140.863 133.722 141.885 136.095 142.644C136.693 142.816 137.295 142.999 137.898 143.161L139.744 143.516C140.357 143.656 140.987 143.688 141.611 143.758L142.553 143.849C142.865 143.871 143.182 143.871 143.494 143.882C144.124 143.892 144.753 143.925 145.383 143.882L147.266 143.769C148.509 143.607 149.758 143.44 150.974 143.161C155.865 142.074 160.396 139.894 164.345 137.064C166.32 135.643 168.166 134.072 169.845 132.35C171.502 130.601 173.063 128.761 174.289 126.689Z" fill="white"/>
</g>
<g opacity="0.55">
<path opacity="0.55" d="M224.257 95.722C223.875 95.2807 223.622 94.7749 223.364 94.2584C223.1 93.7472 222.847 93.2198 222.551 92.6925C222.25 92.1705 221.9 91.654 221.459 91.1697C221.012 90.6908 220.464 90.2495 219.807 89.9536C218.478 89.324 216.912 89.4047 215.653 89.776C214.351 90.1312 213.232 90.7392 212.172 91.3903C211.628 91.7185 211.171 92.0629 210.686 92.4019C210.207 92.7355 209.723 93.0799 209.26 93.4404C208.324 94.1507 207.393 94.8772 206.5 95.652C204.703 97.1856 202.997 98.8376 201.415 100.619C198.262 104.17 195.598 108.287 194.011 112.833C192.418 117.364 191.966 122.309 193.005 126.867C193.483 122.234 194.71 117.897 196.685 113.947C198.633 109.987 201.248 106.414 204.218 103.115C205.704 101.469 207.28 99.8868 208.916 98.364C209.739 97.6107 210.563 96.8412 211.424 96.1148C211.849 95.7435 212.268 95.3722 212.704 95.0117L213.974 93.9516C215.615 92.6441 217.434 91.4872 219.124 91.8315C219.985 91.993 220.846 92.6172 221.642 93.3974C222.051 93.7795 222.444 94.2045 222.858 94.6243C223.283 95.0332 223.724 95.4691 224.257 95.722Z" fill="white"/>
</g>
<g opacity="0.68">
<path opacity="0.68" d="M218.257 90.6154C215.083 82.431 210.751 74.4833 205.09 67.515C202.265 64.0281 199.074 60.7995 195.501 58.0122C191.934 55.2356 188.043 52.8357 183.921 50.9577C179.794 49.0798 175.398 47.7776 170.91 47.1857C168.666 46.8843 166.406 46.7606 164.157 46.809C161.924 46.8682 159.696 47.0242 157.479 47.2933C148.606 48.4179 140.131 51.5173 132.42 55.7414L132.587 56.0804C136.585 54.267 140.675 52.6796 144.872 51.4958C149.064 50.2905 153.363 49.5533 157.678 49.2197C159.836 49.0582 161.999 48.9991 164.163 49.0421C166.304 49.0905 168.435 49.3004 170.539 49.6717C174.742 50.4142 178.81 51.7972 182.603 53.7343C184.497 54.7083 186.327 55.8006 188.081 57.0059C189.835 58.2113 191.503 59.5457 193.123 60.934C196.357 63.716 199.376 66.7562 202.254 69.9472C205.149 73.1327 207.824 76.5388 210.407 80.0365C211.687 81.796 212.952 83.5718 214.184 85.3851L216.035 88.1079C216.659 89.0227 217.24 89.9374 217.956 90.8414L218.257 90.6154Z" fill="white"/>
</g>
<g opacity="0.5">
<path opacity="0.5" d="M162.424 144.425C166.261 142.913 169.963 141.105 173.477 138.764C175.226 137.586 176.905 136.251 178.471 134.739C179.256 133.986 179.988 133.174 180.698 132.334C181.387 131.479 182.06 130.596 182.657 129.671C185.084 125.979 186.564 121.766 187.306 117.563C188.054 113.35 188.248 109.148 188.28 105.004C188.296 102.932 188.237 100.872 188.151 98.8214C188.054 96.782 187.963 94.705 187.65 92.5795C187.489 91.5195 187.285 90.4594 186.994 89.4047C186.698 88.3662 186.381 87.3654 186.004 86.3753C185.261 84.3951 184.368 82.4902 183.335 80.6714C182.302 78.8527 181.139 77.12 179.886 75.4734C179.256 74.6501 178.589 73.8484 177.943 73.0735C177.292 72.2933 176.63 71.5077 175.947 70.7382C174.575 69.21 173.106 67.7194 171.389 66.5033C169.683 65.3088 167.644 64.394 165.524 64.4155L165.502 64.9536C167.466 65.1258 169.226 66.1267 170.711 67.3912C172.207 68.6557 173.493 70.1785 174.698 71.7659C175.301 72.5623 175.882 73.3802 176.463 74.2035C177.05 75.0376 177.615 75.8447 178.148 76.6841C179.213 78.3576 180.171 80.0903 180.994 81.8714C181.823 83.6525 182.533 85.482 183.077 87.3492C183.356 88.2747 183.582 89.2326 183.776 90.1581C183.959 91.0728 184.072 92.0145 184.142 92.9723C184.293 94.8772 184.277 96.8574 184.244 98.8699C184.212 100.872 184.147 102.863 184.013 104.843C183.76 108.798 183.168 112.699 182.146 116.401C181.129 120.103 179.827 123.622 178.045 126.867C176.28 130.112 173.864 133.023 171.072 135.783C168.284 138.549 165.147 141.127 162.145 143.957L162.424 144.425Z" fill="#006633"/>
</g>
<g opacity="0.25">
<path opacity="0.25" d="M194.915 125.075C193.591 125.237 192.606 125.323 191.939 125.183C191.611 125.113 191.417 125 191.326 124.903C191.229 124.795 191.202 124.752 191.1 124.661C191.003 124.575 190.852 124.419 190.691 124.209C190.524 123.988 190.362 123.762 190.174 123.402C189.803 122.702 189.518 121.658 188.861 120.474C187.785 121.265 187.075 122.229 186.795 123.558C186.526 124.898 186.865 126.555 188.135 127.782C188.764 128.395 189.679 128.826 190.572 128.912C191.482 129.009 192.321 128.766 192.956 128.395C194.226 127.631 194.904 126.42 194.915 125.075Z" fill="#006633"/>
</g>
<path d="M224.984 95.3723C224.984 95.3723 221.039 88.9151 218.526 89.6308C218.526 89.6308 201.91 46.583 165.352 46.583C139.83 46.583 117.364 58.4212 108.394 87.4784C99.4241 116.536 114.136 141.288 136.015 146.669C157.894 152.05 190.502 129.966 192.752 127.416H194.678C194.678 127.416 198.848 114.927 206.543 107.867C214.243 100.812 219.694 100.812 219.694 100.812L224.984 95.3723Z" stroke="#006633" stroke-width="1.61429" stroke-miterlimit="10" stroke-linecap="round" stroke-linejoin="round"/>
<path d="M135.929 78.6052C136.913 79.7997 137.747 81.1665 138.14 82.6409C138.339 83.3727 138.388 84.1476 138.205 84.8632C138.038 85.5843 137.607 86.2085 137.048 86.6874C136.488 87.1717 135.816 87.5376 135.105 87.8012C134.761 87.9573 134.384 88.0434 134.024 88.1671C133.652 88.2586 133.281 88.3555 132.904 88.4308C131.392 88.6998 129.832 88.9581 128.411 88.646C127.712 88.4685 127.066 88.1456 126.582 87.6559C126.092 87.1663 125.769 86.5259 125.592 85.8318C125.409 85.1376 125.366 84.3951 125.425 83.6525C125.484 82.9099 125.603 82.1674 125.812 81.4463C126.216 79.9988 126.851 78.5944 127.68 77.3406C128.503 76.0815 129.504 74.93 130.704 74.0959C131.296 73.6708 131.952 73.3587 132.625 73.1704C133.292 72.9713 134.034 72.9282 134.782 72.9282C136.284 72.9336 137.807 73.1596 139.281 73.5201C142.24 74.2358 145.092 75.5111 147.422 77.4052C148.585 78.3576 149.596 79.4715 150.398 80.7145C151.205 81.9575 151.749 83.3565 152.05 84.8094C152.351 86.2677 152.394 87.7689 152.26 89.2756L151.985 91.5625L151.539 93.8172C150.845 96.7874 149.58 99.6394 147.589 101.921C147.126 102.524 146.534 102.997 145.986 103.514C145.717 103.783 145.383 103.966 145.082 104.197C144.764 104.407 144.484 104.665 144.14 104.832C143.473 105.187 142.827 105.601 142.106 105.854C141.751 105.994 141.406 106.156 141.046 106.285L139.943 106.613C136.994 107.458 133.846 107.619 130.752 107.404C127.69 107.167 124.725 105.951 122.223 104.149C119.727 102.341 117.617 99.9461 116.25 97.1641C114.905 94.3822 114.211 91.272 114.378 88.1833C114.389 87.7958 114.405 87.4138 114.459 87.0264C114.507 86.6443 114.539 86.2569 114.598 85.8748C114.744 85.1161 114.873 84.352 115.099 83.6095C115.282 82.8561 115.567 82.1351 115.825 81.4086C115.954 81.0427 116.132 80.6984 116.283 80.3432C116.444 79.9934 116.579 79.6275 116.772 79.2885C118.161 76.5173 119.996 73.9829 122.073 71.6852C124.15 69.3876 126.528 67.3751 129.154 65.7608C131.78 64.1465 134.626 62.9035 137.597 62.091C143.543 60.4605 149.871 60.4605 155.881 61.7735C161.897 63.0865 167.617 65.7715 172.422 69.5813C174.817 71.4915 176.996 73.6762 178.831 76.1192C180.666 78.5567 182.076 81.3064 183.297 84.1368C185.729 89.8029 187.145 95.9157 187.559 102.077C187.963 108.238 187.285 114.502 185.234 120.329C184.207 123.24 182.861 126.038 181.177 128.632C179.498 131.226 177.454 133.588 175.167 135.681C172.869 137.769 170.34 139.598 167.639 141.164C164.916 142.692 162.042 143.935 159.104 145.012C159.061 145.028 159.04 145.071 159.056 145.114C159.072 145.157 159.115 145.178 159.158 145.168C162.155 144.226 165.093 143.075 167.897 141.622C170.679 140.131 173.326 138.372 175.715 136.294C178.11 134.217 180.262 131.85 182.06 129.224C183.857 126.603 185.331 123.751 186.429 120.76C188.635 114.776 189.437 108.335 189.119 101.985C188.802 95.6305 187.344 89.3402 184.89 83.4642C184.282 81.9898 183.572 80.5585 182.813 79.154C182.442 78.4491 181.995 77.7711 181.591 77.077C181.15 76.4043 180.682 75.7479 180.219 75.0914C178.288 72.5193 176.001 70.227 173.472 68.2576C168.413 64.3241 162.462 61.5959 156.209 60.2883C149.973 58.9646 143.392 59.0669 137.252 60.8587C131.096 62.6075 125.543 66.2774 121.416 71.0987C119.339 73.4879 117.52 76.1191 116.154 78.9872C115.965 79.337 115.831 79.7136 115.675 80.0742C115.529 80.4454 115.357 80.8006 115.228 81.1773C114.98 81.9306 114.701 82.6785 114.529 83.4534C114.303 84.2175 114.179 85.0031 114.033 85.7834C113.974 86.1762 113.942 86.5744 113.899 86.9672C113.845 87.36 113.834 87.7582 113.824 88.1564C113.678 91.3365 114.415 94.5382 115.82 97.3793C117.251 100.215 119.344 102.712 121.911 104.595C124.467 106.479 127.513 107.754 130.709 108.061C133.857 108.357 137.075 108.281 140.19 107.479L141.353 107.162C141.735 107.033 142.106 106.877 142.483 106.737C143.252 106.484 143.946 106.07 144.667 105.704C145.033 105.532 145.345 105.268 145.69 105.053C146.018 104.816 146.378 104.622 146.674 104.342C147.277 103.804 147.928 103.304 148.439 102.669C150.635 100.264 152.071 97.2448 152.852 94.1346L153.352 91.7831L153.67 89.4048C153.842 87.7958 153.799 86.1277 153.471 84.5135C153.142 82.8992 152.529 81.3225 151.636 79.9343C150.748 78.5352 149.602 77.3245 148.332 76.2967C147.062 75.2636 145.641 74.4457 144.178 73.7677C142.709 73.0897 141.17 72.5785 139.604 72.218C138.033 71.852 136.429 71.6314 134.793 71.6368C133.975 71.6476 133.136 71.696 132.296 71.9489C131.462 72.191 130.688 72.5785 130.01 73.0735C128.643 74.0529 127.556 75.3174 126.7 76.7003C126.27 77.3891 125.893 78.1155 125.576 78.8634C125.247 79.606 124.994 80.3809 124.795 81.1719C124.586 81.9575 124.473 82.7754 124.429 83.5987C124.386 84.422 124.451 85.2614 124.682 86.0793C124.908 86.8918 125.328 87.6936 125.963 88.2963C126.593 88.9097 127.411 89.2864 128.239 89.4693C129.068 89.6308 129.902 89.6361 130.709 89.5447C131.511 89.4532 132.286 89.3133 133.066 89.1357C133.453 89.0442 133.841 88.9312 134.223 88.8182C134.6 88.6783 134.987 88.5707 135.353 88.3931C136.095 88.081 136.816 87.6667 137.419 87.0963C138.027 86.5367 138.501 85.7887 138.657 84.9708C138.834 84.1529 138.743 83.3135 138.501 82.544C138.275 81.7692 137.909 81.0535 137.484 80.3809C137.059 79.7083 136.58 79.0787 136.042 78.4975C136.009 78.4653 135.961 78.4652 135.929 78.4922C135.902 78.5244 135.902 78.5675 135.929 78.6052Z" fill="#006633"/>
<path d="M302.109 23.0682C296.552 23.0682 292.047 18.5631 292.047 13.0058C292.047 7.44845 296.552 2.94336 302.109 2.94336C307.666 2.94336 312.171 7.44845 312.171 13.0058C312.171 18.5631 307.666 23.0682 302.109 23.0682Z" fill="white"/>
<g opacity="0.5">
<path opacity="0.5" d="M311.359 17.3267C309.809 17.4128 308.539 17.8325 307.372 18.1877C306.796 18.3814 306.263 18.5428 305.811 18.6612C305.354 18.7796 305.004 18.8334 304.444 18.9195C304.175 18.9625 303.847 19.0163 303.524 19.0863L303.024 19.1993L302.647 19.3069C302.125 19.4522 301.555 19.5975 300.99 19.7697C300.425 19.9365 299.849 20.1194 299.3 20.3024C299.031 20.3939 298.757 20.4692 298.552 20.5445C298.45 20.5714 298.391 20.6575 298.283 20.6414C298.159 20.6145 298.122 20.4208 298.111 20.2271C297.923 20.2863 297.723 20.3993 297.627 20.6952C297.541 21.0073 297.713 21.3571 297.874 21.5562C298.213 21.9813 298.574 22.2019 298.923 22.4117C299.628 22.8099 300.333 23.0305 301.038 23.1866C301.748 23.3426 302.443 23.4018 303.185 23.3803C303.368 23.3749 303.573 23.3588 303.756 23.3373L304.191 23.2942C304.493 23.2619 304.799 23.2243 305.155 23.1651C305.849 23.0574 306.742 22.7938 307.447 22.3848C308.152 21.9866 308.728 21.5077 309.212 20.9965C310.17 19.958 310.907 18.8119 311.359 17.3267Z" fill="#DADADA"/>
</g>
<path opacity="0.5" d="M299.854 22.4279C298.719 21.9866 297.541 21.5185 296.965 20.8889C296.733 20.6306 296.529 20.3185 295.953 20.227C295.846 20.8943 295.883 21.6153 296.706 22.1696C297.169 22.4817 297.837 22.713 298.531 22.9121C299.284 23.1328 300.097 23.3265 300.979 23.4018C301.743 23.4664 302.685 23.4502 303.352 23.2458C301.948 23.1489 300.931 22.8476 299.854 22.4279Z" fill="#008D36"/>
<path d="M292.418 15.3842C293.053 17.9455 294.5 20.3885 296.766 22.0297C297.896 22.8314 299.214 23.4072 300.608 23.6493C301.996 23.8915 303.449 23.8108 304.799 23.4341C306.15 23.052 307.409 22.374 308.469 21.4916C309.529 20.6091 310.412 19.549 311.09 18.3814C312.457 16.0514 312.989 13.2479 312.489 10.5305C312.231 9.17991 311.719 7.85082 310.934 6.68853C310.148 5.52624 309.11 4.53076 307.915 3.76666C306.72 3.00257 305.37 2.47523 303.965 2.23309C302.556 1.98556 301.097 2.05552 299.709 2.38914C298.332 2.75504 297.008 3.36309 295.889 4.24557C294.764 5.1119 293.86 6.24191 293.23 7.48491C291.966 9.9763 291.794 12.8228 292.418 15.3842ZM292.574 15.3465C292.273 14.0766 292.267 12.7367 292.552 11.4776C292.832 10.2131 293.403 9.04539 294.14 8.03377C295.646 6.03743 297.75 4.58995 300.113 4.05723C302.459 3.49761 305.004 3.842 307.119 5.06348C309.223 6.29034 310.88 8.31896 311.623 10.7404C312.376 13.1511 312.037 15.9438 310.638 18.1069C309.944 19.1885 309.007 20.1033 307.937 20.7705C306.866 21.4431 305.687 21.8844 304.477 22.1265C303.266 22.3633 302.034 22.4009 300.823 22.2341C299.612 22.0673 298.412 21.7176 297.293 21.1472C296.174 20.5822 295.13 19.8019 294.307 18.8011C293.483 17.8164 292.875 16.6218 292.574 15.3465Z" fill="#D60B52"/>
<path d="M308.125 16.794C307.064 16.794 306.204 15.0979 306.204 13.0058C306.204 10.9136 307.064 9.21758 308.125 9.21758C309.186 9.21758 310.046 10.9136 310.046 13.0058C310.046 15.0979 309.186 16.794 308.125 16.794Z" fill="black" stroke="#E6007E" stroke-width="1.07619" stroke-miterlimit="10"/>
<path d="M287.726 22.0297C282.168 22.0297 277.663 17.5246 277.663 11.9673C277.663 6.40994 282.168 1.90485 287.726 1.90485C293.283 1.90485 297.788 6.40994 297.788 11.9673C297.788 17.5246 293.283 22.0297 287.726 22.0297Z" fill="white"/>
<g opacity="0.5">
<path opacity="0.5" d="M293.849 18.4729C291.352 19.4199 289.168 19.2961 287.349 18.5482C286.44 18.1608 285.611 17.6657 284.841 17.0254C284.077 16.3904 283.389 15.6425 282.85 14.8515C282.312 14.0551 281.93 13.2156 281.764 12.4085C281.742 12.3063 281.726 12.204 281.715 12.1018C281.704 12.0103 281.694 11.8973 281.688 11.7628C281.672 11.5153 281.667 11.257 281.672 10.9933C281.688 10.4714 281.715 9.93326 281.801 9.39516C281.941 8.31359 282.205 7.22125 282.614 6.16658C283.033 5.11191 283.593 4.09491 284.562 3.21243C283.227 3.26086 281.93 4.03572 280.946 5.00429C279.95 5.98901 279.186 7.18359 278.643 8.47502C278.379 9.12612 278.148 9.79336 278.002 10.4983C277.927 10.848 277.868 11.2085 277.819 11.5745L277.787 11.8543L277.771 12.1664C277.765 12.3762 277.765 12.5807 277.776 12.7852C277.846 14.4425 278.46 15.9546 279.278 17.2137C280.106 18.4836 281.166 19.5329 282.393 20.367C283.007 20.7867 283.668 21.1257 284.368 21.4162C285.078 21.6745 285.805 21.8844 286.558 21.9705C288.054 22.1534 289.604 21.9436 290.906 21.2979C292.213 20.6898 293.263 19.6728 293.849 18.4729Z" fill="#DADADA"/>
</g>
<path d="M279.105 17.0415C280.434 19.3177 282.517 21.2548 285.154 22.1857C286.467 22.6377 287.892 22.8153 289.297 22.6539C290.701 22.4924 292.068 22.0082 293.257 21.2656C294.446 20.5176 295.458 19.5114 296.228 18.3652C296.997 17.2191 297.546 15.9546 297.863 14.6416C298.514 12.0211 298.235 9.17993 296.986 6.71545C296.357 5.49397 295.496 4.36396 294.409 3.47072C293.333 2.5721 292.052 1.90486 290.691 1.51205C289.329 1.11386 287.887 0.990099 286.467 1.15691C285.046 1.31834 283.663 1.79724 282.425 2.50753C281.209 3.24472 280.106 4.20792 279.288 5.37021C278.454 6.52173 277.905 7.86159 277.658 9.22836C277.147 11.978 277.782 14.7546 279.105 17.0415ZM279.245 16.9608C278.594 15.8254 278.217 14.5448 278.131 13.2533C278.04 11.9619 278.261 10.6812 278.68 9.50279C279.557 7.16207 281.172 5.18187 283.286 4.00344C285.38 2.80348 287.919 2.41605 290.292 2.99182C292.655 3.57296 294.818 5.05273 296.217 7.16207C297.621 9.26064 298.084 12.0372 297.352 14.5071C296.986 15.7393 296.351 16.8801 295.517 17.8271C294.683 18.7742 293.672 19.5329 292.585 20.1033C291.492 20.6737 290.319 21.0557 289.109 21.2387C287.898 21.4216 286.655 21.427 285.417 21.1956C284.185 20.9696 282.963 20.5176 281.887 19.7912C280.816 19.0701 279.896 18.0962 279.245 16.9608Z" fill="#D60B52"/>
<path d="M280.631 13.2108C280.176 11.1687 280.647 9.32629 281.683 9.09575C282.718 8.86521 283.926 10.3338 284.381 12.376C284.836 14.4181 284.365 16.2605 283.329 16.4911C282.294 16.7216 281.085 15.253 280.631 13.2108Z" fill="black" stroke="#E6007E" stroke-width="1.07619" stroke-miterlimit="10"/>
</svg>
