<svg width="271" height="241" viewBox="0 0 271 241" fill="none" xmlns="http://www.w3.org/2000/svg">
<path opacity="0.23" d="M90.797 171.218C92.4034 171.218 93.972 171.245 95.4922 171.299C100.112 169.31 107.702 168.011 116.295 168.011C120.418 168.011 124.31 168.313 127.755 168.841C132.434 167.105 139.517 166 147.447 166C155.102 166 161.969 167.03 166.643 168.663C169.78 168.243 173.241 168.005 176.885 168.005C182.001 168.005 186.755 168.469 190.75 169.256C194.739 168.464 199.499 168.005 204.614 168.005C218.695 168.005 230.112 171.493 230.112 175.789C230.112 180.091 218.695 183.573 204.614 183.573C199.499 183.573 194.744 183.11 190.75 182.323C186.761 183.115 182.001 183.573 176.885 183.573C169.23 183.573 162.363 182.544 157.689 180.91C154.552 181.331 151.091 181.568 147.447 181.568C143.323 181.568 139.431 181.266 135.986 180.738C131.307 182.474 124.224 183.579 116.295 183.579C107.702 183.579 100.112 182.28 95.4922 180.291C93.972 180.339 92.4034 180.371 90.797 180.371C76.7167 180.371 65.2993 178.323 65.2993 175.795C65.2993 173.272 76.7167 171.218 90.797 171.218Z" fill="#8C014F"/>
<path d="M210.853 158.555C211.058 158.626 191.928 167.249 184.997 166.778C185.002 166.78 198.845 154.402 210.853 158.555Z" fill="#432918"/>
<path d="M217.814 155.373C217.814 155.373 216.533 147.656 213.847 147.369C213.847 147.369 214.585 99.6692 179.539 85.5148C155.073 75.6333 128.954 78.2835 109.105 102.665C89.2559 127.047 93.7752 156.471 112.665 170.101C131.556 183.73 171.37 175.188 174.509 173.611L176.356 174.357C176.356 174.357 185.189 163.999 195.299 160.211C205.408 156.422 210.637 158.54 210.637 158.54L217.814 155.373Z" fill="#CA9E67"/>
<path opacity="0.52" d="M136.045 89.9911C135.159 89.0811 134.246 83.9128 134.716 83.0466C153.946 76.672 169.653 81.7979 169.653 81.7979C169.653 81.7979 161.526 85.1333 160.25 93.0773C161.472 93.5711 164.868 95.4285 166.998 97.0926C169.129 98.7516 173.027 102.576 173.027 102.576C173.027 102.576 177.445 91.2506 186.344 88.8093C194.389 94.7401 204.285 102.637 206.967 112.396C202.257 112.99 193.221 110.036 183.48 122.655C180.922 110.672 173.764 103.023 173.764 103.023C173.764 103.023 158.001 103.28 153.083 113.51C153.075 113.308 148.265 95.6405 134.169 98.959C130.874 97.9521 130.692 92.059 130.637 91.8387C131.139 91.6514 136.067 90.0119 136.045 89.9911Z" fill="#956037"/>
<path opacity="0.52" d="M116.24 95.1014C116.24 95.1014 118.714 97.9785 118.683 99.466C111.341 106.442 112.907 116.41 112.907 116.41C112.907 116.41 116.944 108.375 125.18 108.144C125.496 108.133 125.792 108.067 126.089 108.121C126.381 105.539 127.271 104.051 129 102.397C130.413 100.934 136.968 101.403 138.785 104.213C138.933 104.441 139.06 104.69 139.169 104.956C139.207 105.188 139.284 105.429 139.406 105.676C139.675 106.703 140.004 108.815 139.829 109.902C139.509 110.961 137.951 113.362 137.652 113.463C139.956 116.926 141.092 120.396 141.828 124.516C142.632 129.016 141.672 132.804 141.672 132.804C143.278 132.439 146.579 129.644 147.671 128.231C148.775 126.805 149.616 125.213 150.554 123.678C153.881 124.949 157.487 125.512 160.756 127.09C164.003 128.66 167.106 130.603 169.779 133.033C173.626 136.536 178.858 144.439 180.272 149.39C180.866 148.706 182.109 143.118 182.374 142.253C184.179 136.389 182.904 133.738 183.669 133.135C188.621 129.207 198.109 125.474 212.519 130.304C212.666 131.041 214.912 145.549 214.74 147.46C197.283 147.423 192.949 150.622 185.194 157.39C179.574 162.289 175.604 168.048 174.809 172.616C164.839 175.939 152.593 176.147 145.124 177.127C134.334 155.741 139.766 134.584 139.194 133.519C138.946 133.599 136.022 134.02 135.41 134.019C120.013 148.685 126.653 175.516 126.653 175.516C126.653 175.516 106.048 171.394 99.6346 151.248C99.9587 150.713 104.33 135.151 120.194 129.445C118.754 128.792 115.445 124.863 114.925 123.417C105.987 124.571 97.6043 132.507 96.7148 133.462C96.7214 133.326 97.5716 111.123 116.24 95.1014Z" fill="#956037"/>
<g opacity="0.43">
<path opacity="0.43" d="M189.483 134.145C190.593 131.485 191.253 128.632 191.601 125.737C191.938 122.837 191.928 119.875 191.596 116.939C190.916 111.079 188.922 105.215 185.329 100.237C181.742 95.2721 176.779 91.5334 171.427 89.0661C166.059 86.6101 160.233 85.289 154.475 85.435C159.876 87.3766 164.961 89.6281 169.551 92.5381C174.135 95.4336 178.213 98.9586 181.281 103.173C184.333 107.382 186.425 112.379 187.743 117.627C189.077 122.894 189.609 128.412 189.483 134.145Z" fill="white"/>
</g>
<g opacity="0.5">
<path opacity="0.5" d="M159.992 117.662C160.921 116.55 161.526 115.216 161.959 113.831C162.389 112.439 162.583 110.963 162.564 109.467C162.531 106.472 161.501 103.392 159.69 100.909C159.213 100.308 158.743 99.7045 158.205 99.1634C157.939 98.8878 157.673 98.6245 157.382 98.3807C157.097 98.1339 156.822 97.8789 156.525 97.6506C155.911 97.2229 155.327 96.753 154.673 96.4109C154.35 96.2322 154.039 96.0348 153.714 95.8736L152.722 95.4189C150.054 94.2694 147.228 93.7217 144.369 93.9529C144.923 94.4227 145.478 94.845 146.036 95.2322C146.579 95.6555 147.122 96.0489 147.657 96.4329C148.179 96.8479 148.706 97.2226 149.216 97.6086C149.708 98.0234 150.233 98.3733 150.693 98.7933C151.662 99.5744 152.548 100.395 153.389 101.226C153.781 101.666 154.216 102.058 154.565 102.517C154.958 102.94 155.293 103.405 155.64 103.851C156.968 105.689 157.981 107.712 158.673 110.008C159.385 112.317 159.775 114.827 159.992 117.662Z" fill="white"/>
</g>
<g opacity="0.25">
<path opacity="0.25" d="M152.087 147.468C147.149 147.069 142.374 146.605 137.703 145.84C135.369 145.456 133.069 145.001 130.82 144.434C128.568 143.873 126.364 143.211 124.252 142.364C123.708 142.18 123.2 141.939 122.678 141.716L121.897 141.376C121.638 141.26 121.395 141.12 121.143 141C120.646 140.745 120.115 140.531 119.639 140.237L118.175 139.405C116.26 138.236 114.493 136.862 112.856 135.313C111.189 133.782 109.795 131.959 108.49 130.022L107.532 128.531C107.251 128.009 106.977 127.485 106.68 126.957L106.239 126.161L105.859 125.335C105.588 124.788 105.334 124.229 105.039 123.666C105.055 128.617 106.689 133.752 109.902 137.918C111.494 139.995 113.422 141.829 115.552 143.361C116.636 144.093 117.741 144.804 118.897 145.403C119.184 145.554 119.473 145.713 119.764 145.855L120.652 146.256C121.242 146.518 121.829 146.803 122.438 147.019C123.047 147.235 123.645 147.476 124.262 147.672L126.104 148.236C127.349 148.54 128.588 148.861 129.844 149.062C132.35 149.498 134.874 149.726 137.381 149.742C139.894 149.761 142.391 149.594 144.853 149.232C147.307 148.861 149.754 148.344 152.087 147.468Z" fill="white"/>
</g>
<g opacity="0.25">
<path opacity="0.25" d="M157.443 165.404C152.618 166.432 147.924 167.224 143.255 167.612C138.6 168.012 133.984 167.959 129.539 167.214C127.312 166.86 125.134 166.311 123.033 165.54C120.93 164.775 118.861 163.867 116.92 162.687C112.969 160.407 109.49 157.226 106.029 153.687C106.883 156 107.988 158.27 109.467 160.313C110.884 162.404 112.671 164.265 114.652 165.911C115.158 166.307 115.664 166.716 116.18 167.104L117.811 168.159C118.345 168.531 118.936 168.805 119.508 169.114L120.375 169.567C120.666 169.708 120.97 169.831 121.265 169.962C121.865 170.216 122.456 170.491 123.076 170.693L124.925 171.314C126.179 171.641 127.44 171.964 128.714 172.167C133.824 173.019 139.011 172.684 143.893 171.5C146.336 170.902 148.714 170.111 150.99 169.11C153.261 168.077 155.469 166.917 157.443 165.404Z" fill="white"/>
</g>
<g opacity="0.55">
<path opacity="0.55" d="M217.335 155.072C217.135 154.499 217.093 153.918 217.046 153.323C216.991 152.731 216.953 152.127 216.873 151.507C216.786 150.89 216.651 150.26 216.416 149.625C216.173 148.993 215.818 148.357 215.303 147.819C214.272 146.701 212.74 146.172 211.389 146.041C210.004 145.877 208.695 146.026 207.427 146.24C206.779 146.344 206.207 146.497 205.612 146.635C205.023 146.769 204.426 146.912 203.843 147.078C202.67 147.397 201.496 147.733 200.34 148.13C198.023 148.904 195.749 149.827 193.543 150.922C189.145 153.106 184.998 156.02 181.715 159.765C178.434 163.491 176.086 168.057 175.317 172.828C177.57 168.572 180.426 164.889 183.848 161.868C187.249 158.826 191.139 156.413 195.263 154.401C197.324 153.397 199.448 152.491 201.606 151.665C202.687 151.262 203.774 150.843 204.881 150.48C205.432 150.288 205.978 150.095 206.535 149.918L208.163 149.393C210.243 148.775 212.434 148.371 213.921 149.355C214.683 149.843 215.267 150.775 215.734 151.833C215.978 152.358 216.19 152.917 216.424 153.48C216.67 154.029 216.92 154.616 217.335 155.072Z" fill="white"/>
</g>
<g opacity="0.68">
<path opacity="0.68" d="M213.563 147.849C213.688 138.774 212.613 129.478 209.885 120.606C208.527 116.17 206.718 111.839 204.372 107.784C202.027 103.741 199.227 99.9339 196.002 96.5378C192.773 93.1396 189.063 90.1892 184.99 87.8842C182.956 86.7266 180.837 85.733 178.662 84.9085C176.499 84.1007 174.303 83.3877 172.073 82.7873C163.132 80.4299 153.807 80.1198 144.78 81.1836L144.809 81.5731C149.344 81.3827 153.878 81.4444 158.36 81.9346C162.842 82.3948 167.254 83.3549 171.515 84.7038C173.646 85.3845 175.743 86.1653 177.8 87.0441C179.834 87.9197 181.795 88.9459 183.669 90.1164C187.41 92.4553 190.774 95.3561 193.661 98.6818C195.099 100.349 196.43 102.104 197.645 103.939C198.86 105.774 199.942 107.699 200.957 109.657C202.98 113.576 204.697 117.659 206.221 121.832C207.763 126.007 209.008 130.307 210.13 134.66C210.676 136.843 211.201 139.035 211.68 141.25L212.4 144.577C212.645 145.696 212.848 146.798 213.184 147.941L213.563 147.849Z" fill="white"/>
</g>
<g opacity="0.5">
<path opacity="0.5" d="M139.205 177.82C143.468 177.856 147.717 177.556 151.992 176.672C154.124 176.22 156.25 175.59 158.337 174.747C159.382 174.329 160.398 173.834 161.404 173.304C162.395 172.751 163.382 172.165 164.313 171.509C168.068 168.91 171.118 165.444 173.457 161.703C175.805 157.954 177.618 154 179.253 150.04C180.071 148.061 180.812 146.062 181.523 144.064C182.22 142.071 182.936 140.045 183.46 137.886C183.716 136.808 183.93 135.712 184.06 134.589C184.178 133.478 184.262 132.396 184.284 131.301C184.339 129.115 184.22 126.944 183.934 124.8C183.647 122.657 183.204 120.546 182.64 118.482C182.355 117.449 182.026 116.422 181.707 115.429C181.385 114.429 181.054 113.42 180.697 112.417C179.974 110.421 179.142 108.423 177.968 106.593C176.795 104.788 175.194 103.121 173.154 102.321L172.925 102.828C174.741 103.754 176.04 105.395 176.974 107.182C177.918 108.973 178.562 110.931 179.103 112.919C179.372 113.916 179.612 114.925 179.851 115.939C180.09 116.966 180.319 117.958 180.505 118.969C180.878 120.986 181.126 123.018 181.225 125.044C181.33 127.072 181.303 129.101 181.101 131.101C181.01 132.097 180.856 133.103 180.684 134.065C180.505 135.013 180.249 135.959 179.945 136.904C179.352 138.789 178.57 140.681 177.759 142.597C176.953 144.504 176.121 146.387 175.225 148.234C173.451 151.927 171.374 155.438 168.96 158.591C166.552 161.746 163.941 164.615 160.977 167.036C158.029 169.463 154.586 171.318 150.84 172.883C147.097 174.456 143.092 175.712 139.118 177.262L139.205 177.82Z" fill="#683C11"/>
</g>
<g opacity="0.25">
<path opacity="0.25" d="M177.844 171.845C176.513 171.487 175.536 171.188 174.95 170.796C174.663 170.601 174.521 170.418 174.471 170.29C174.419 170.149 174.41 170.097 174.348 169.97C174.288 169.85 174.204 169.642 174.131 169.379C174.056 169.103 173.989 168.823 173.948 168.405C173.863 167.591 173.994 166.479 173.823 165.09C172.485 165.432 171.431 166.08 170.648 167.246C169.871 168.426 169.555 170.146 170.297 171.814C170.663 172.646 171.373 173.413 172.196 173.841C173.031 174.286 173.929 174.379 174.681 174.269C176.195 174.028 177.311 173.135 177.844 171.845Z" fill="#683C11"/>
</g>
<path d="M218.166 155.018C218.166 155.018 216.885 147.301 214.199 147.014C214.199 147.014 214.937 99.3146 179.892 85.1602C155.426 75.2787 129.306 77.9289 109.457 102.311C89.6082 126.693 94.1274 156.117 113.018 169.746C131.908 183.375 171.723 174.833 174.861 173.257L176.708 174.003C176.708 174.003 185.541 163.645 195.651 159.856C205.761 156.068 210.989 158.186 210.989 158.186L218.166 155.018Z" stroke="#683C11" stroke-width="2.27725" stroke-miterlimit="10" stroke-linecap="round" stroke-linejoin="round"/>
<path d="M139.289 104.465C139.77 105.991 140.041 107.624 139.846 109.19C139.754 109.968 139.5 110.73 139.048 111.345C138.609 111.972 137.955 112.403 137.233 112.646C136.509 112.893 135.722 112.984 134.939 112.962C134.549 112.978 134.154 112.914 133.761 112.894C133.369 112.837 132.976 112.787 132.586 112.713C131.032 112.385 129.436 112.029 128.195 111.18C127.593 110.739 127.099 110.179 126.825 109.522C126.545 108.863 126.483 108.124 126.582 107.39C126.675 106.654 126.922 105.925 127.266 105.236C127.61 104.548 128.011 103.882 128.491 103.272C129.439 102.04 130.591 100.94 131.871 100.059C133.148 99.1705 134.553 98.4541 136.026 98.1191C136.758 97.9408 137.508 97.8958 138.226 97.9757C138.943 98.0432 139.671 98.2894 140.388 98.579C141.82 99.1633 143.198 99.9716 144.471 100.888C147.031 102.72 149.271 105.047 150.772 107.765C151.517 109.128 152.056 110.587 152.343 112.089C152.635 113.593 152.615 115.145 152.341 116.654C152.065 118.169 151.525 119.624 150.813 121.017L149.665 123.103L148.363 125.091C146.548 127.67 144.232 129.914 141.44 131.33C140.763 131.729 140.012 131.954 139.286 132.236C138.924 132.39 138.533 132.436 138.155 132.541C137.769 132.62 137.401 132.759 137.006 132.786C136.229 132.868 135.45 133.015 134.66 132.978C134.266 132.975 133.873 132.996 133.478 132.98L132.293 132.868C129.139 132.536 126.059 131.472 123.176 130.068C120.333 128.655 117.962 126.342 116.261 123.645C114.568 120.945 113.473 117.833 113.239 114.637C113.027 111.449 113.566 108.199 114.922 105.303C115.082 104.935 115.245 104.575 115.447 104.225C115.641 103.877 115.822 103.518 116.027 103.175C116.46 102.504 116.879 101.822 117.384 101.197C117.851 100.546 118.403 99.9651 118.932 99.3687C119.198 99.068 119.501 98.8066 119.783 98.5245C120.073 98.2517 120.344 97.953 120.661 97.703C123.065 95.584 125.805 93.8649 128.686 92.4665C131.566 91.0681 134.625 90.0597 137.768 89.5289C140.91 88.9981 144.12 88.9087 147.282 89.2798C153.613 90.0189 159.679 92.469 164.933 96.0547C170.191 99.6426 174.635 104.431 177.766 109.944C179.322 112.702 180.566 115.64 181.379 118.692C182.194 121.74 182.481 124.921 182.556 128.107C182.694 134.481 181.683 140.889 179.695 146.955C177.697 153.018 174.622 158.76 170.4 163.552C168.288 165.945 165.915 168.106 163.296 169.941C160.682 171.777 157.808 173.25 154.805 174.371C151.794 175.483 148.661 176.257 145.466 176.712C142.264 177.123 139.028 177.202 135.795 177.096C135.747 177.095 135.71 177.128 135.709 177.176C135.708 177.223 135.741 177.261 135.786 177.267C139.024 177.525 142.286 177.558 145.536 177.251C148.78 176.899 151.999 176.237 155.094 175.171C158.193 174.107 161.173 172.671 163.913 170.85C166.65 169.033 169.168 166.87 171.378 164.427C175.81 159.546 179.072 153.681 181.227 147.472C183.383 141.257 184.42 134.662 184.343 128.079C184.331 126.431 184.204 124.783 184.021 123.143C183.938 122.324 183.772 121.501 183.654 120.679C183.491 119.864 183.297 119.053 183.107 118.245C182.251 115.031 180.947 111.948 179.285 109.081C175.959 103.352 171.31 98.4325 165.822 94.7581C160.356 91.0746 154.008 88.6246 147.429 87.9652C140.851 87.2583 134.106 88.6262 128.283 91.6501C125.367 93.1362 122.605 94.9544 120.184 97.1746C119.868 97.437 119.594 97.746 119.304 98.0311C119.021 98.3308 118.719 98.6046 118.449 98.9157C117.92 99.542 117.362 100.151 116.897 100.827C116.385 101.472 115.962 102.177 115.521 102.869C115.312 103.222 115.127 103.592 114.933 103.951C114.73 104.307 114.56 104.683 114.401 105.062C113.03 108.055 112.497 111.409 112.743 114.676C113.018 117.949 114.058 121.153 115.789 123.952C117.51 126.747 119.936 129.149 122.881 130.68C125.784 132.183 128.898 133.357 132.195 133.794L133.432 133.94C133.848 133.964 134.265 133.958 134.68 133.97C135.515 134.025 136.341 133.897 137.174 133.825C137.592 133.802 137.993 133.67 138.406 133.597C138.813 133.497 139.233 133.451 139.625 133.297C140.411 133.015 141.229 132.787 141.965 132.377C145.001 130.921 147.547 128.583 149.499 125.904L150.889 123.843L152.115 121.686C152.903 120.211 153.507 118.595 153.817 116.92C154.128 115.246 154.15 113.497 153.831 111.82C153.522 110.135 152.892 108.531 152.073 107.054C151.255 105.572 150.21 104.238 149.07 103.021C147.924 101.803 146.647 100.717 145.285 99.7648C143.92 98.8057 142.469 97.9733 140.899 97.3452C140.11 97.0388 139.287 96.7602 138.384 96.6777C137.491 96.5869 136.598 96.6582 135.757 96.8703C134.067 97.2799 132.536 98.0713 131.18 99.0657C130.501 99.5593 129.858 100.11 129.264 100.704C128.662 101.289 128.12 101.934 127.623 102.615C127.117 103.287 126.692 104.027 126.332 104.799C125.972 105.572 125.709 106.402 125.614 107.275C125.516 108.142 125.608 109.073 125.984 109.896C126.35 110.728 126.988 111.406 127.711 111.902C128.443 112.378 129.241 112.706 130.05 112.931C130.854 113.153 131.651 113.319 132.468 113.451C132.874 113.514 133.29 113.555 133.7 113.595C134.115 113.606 134.528 113.653 134.947 113.625C135.78 113.613 136.632 113.495 137.43 113.182C138.23 112.881 138.973 112.347 139.44 111.623C139.926 110.908 140.164 110.068 140.23 109.236C140.313 108.406 140.239 107.578 140.092 106.769C139.945 105.96 139.73 105.171 139.439 104.405C139.421 104.362 139.374 104.343 139.333 104.356C139.297 104.372 139.278 104.418 139.289 104.465Z" fill="#683C11"/>
<path d="M103.505 47.3371C114.974 47.5952 122.991 52.6286 127.556 62.4373C128.897 66.3809 129.439 70.726 129.211 75.4583C129.211 86.5433 125.202 96.9973 117.185 106.792C111.251 112.513 103.804 115.611 94.8602 116.098C94.8602 120.415 96.3152 123.297 93.4051 123.297C90.495 123.297 91.9501 117.332 91.9501 116.098V116.127L91.7646 116.113C89.7817 115.926 87.913 115.568 86.1727 115.066C85.1884 116.586 84.6891 118.751 84.6891 120.415C84.6891 123.297 87.5992 131.93 83.234 131.93C78.8689 131.93 81.779 126.165 81.779 120.616C81.779 117.317 80.2526 114.464 79.6107 112.04C74.8889 108.871 71.508 103.938 69.4824 97.2124C68.4125 93.4266 67.8847 89.1532 67.9132 84.3779C69.2684 67.0262 77.3996 55.2959 92.321 49.2156C96.2581 47.968 99.9956 47.3371 103.505 47.3371Z" fill="#BE1622"/>
<path d="M103.11 76.6302C108.116 74.9065 115.002 70.5802 118.957 64.2019C119.013 64.1152 121.618 59.9085 125.902 55.5769C126.748 54.7198 128.796 52.7099 131.739 52.2844C132.466 52.1803 134.383 51.9048 135.082 52.9417C135.367 53.3633 135.465 54.0264 135.186 54.4915C134.577 55.5019 132.585 54.9258 131.304 55.1487C127.597 55.7931 126.262 63.7192 125.07 67.7987C122.737 75.7889 117.526 80.7705 113.022 85.0786C113.022 85.0786 100.593 96.4331 81.4476 94.7228C80.8012 94.6649 79.4934 94.4975 78.3224 93.5882C75.8915 91.6972 75.3288 87.6083 76.4738 84.5936C77.3646 82.2414 79.1837 80.8318 80.4755 80.002C88.1373 75.0781 93.8481 79.8148 103.11 76.6302Z" fill="#E6332A"/>
<path d="M56.8128 84.1539C57.0072 83.8613 57.4455 83.7505 57.7899 83.7891C59.0422 83.9376 59.0611 86.1218 60.3719 87.5114C61.7829 89.0043 64.0261 88.8841 67.6401 88.6878C70.2804 88.547 73.0781 88.3562 75.3228 86.295C76.0049 85.6708 76.4585 85.035 76.7433 84.5723C77.0673 84.7329 77.5402 85.0096 78.024 85.4451C79.8082 87.0539 80.0003 89.301 80.0313 89.8439C80.0882 90.8215 79.9061 91.6067 79.7877 92.0909C79.5847 92.9499 79.2856 93.6336 79.0354 94.1186C73.8529 91.3627 69.6044 90.555 66.6076 90.3537C64.2919 90.1974 61.4668 90.3147 59.1399 88.3365C57.7637 87.1606 56.2582 84.9901 56.8128 84.1539Z" fill="#95C11F"/>
<path d="M77.1385 84.7943C78.3609 82.9651 80.3759 80.6068 83.4819 79.4385C86.0023 78.4932 86.9662 78.5294 91.5724 79.1992C100.849 80.5455 109.455 74.8863 110.508 74.194C111.539 73.5143 112.751 72.446 112.815 72.3954C114.14 71.2891 116.344 69.3181 119.003 66.1034C122.262 62.1631 122.501 60.3049 125.343 57.145C125.552 56.9133 126.948 55.2083 129.24 54.1812C129.368 54.1244 130.303 53.7051 130.379 53.8393C130.485 54.0156 128.879 54.8175 127.256 56.387C125.691 57.8997 124.723 59.5372 123.21 62.0733C122.078 63.9697 121.486 65.2951 121.028 66.2232C120.316 67.6638 116.828 74.7298 110.79 78.7794C105.911 82.0482 97.7065 84.4687 91.3068 82.9549C89.9308 82.6281 87.5988 82.051 84.8547 82.9038C82.1723 83.7335 80.3507 85.584 79.2297 87.0013C79.0021 86.5803 78.6392 86.0205 78.0566 85.4856C77.7329 85.184 77.4172 84.9631 77.1385 84.7943Z" fill="#E94E1B"/>
<path d="M57.5508 83.8914C57.7087 83.7841 58.2265 84.0748 58.2265 84.0748C58.2265 84.0748 58.5952 84.65 59.3066 85.766C59.3066 85.766 59.7223 86.5965 60.4169 87.314C61.2359 88.1523 62.2725 88.3242 63.7408 88.5681C65.3167 88.829 66.5833 88.7214 67.96 88.6255C68.6847 88.5749 69.4655 88.4859 70.3236 88.3327C72.3756 87.9715 73.4064 87.7979 74.4013 87.1273C74.9224 86.7787 75.8016 86.0457 76.4686 84.5911C76.8233 84.5863 77.0214 84.6927 77.1385 84.7942C77.2999 84.932 77.2737 85.0386 77.4472 85.185C77.7228 85.4165 78.0071 85.3412 78.0537 85.4778C78.1147 85.653 77.7076 85.9414 77.6796 85.9607C75.0227 87.837 75.2027 87.7653 74.9947 87.8562C72.9109 88.7925 70.8614 89.078 70.5434 89.1219C69.4335 89.2723 62.7889 90.1555 59.7534 87.7641C58.7992 87.0115 58.161 85.9033 58.1139 85.8241C57.649 85.0032 57.3354 84.0334 57.5508 83.8914Z" fill="#DEDC00"/>
</svg>
