<svg width="284" height="267" viewBox="0 0 284 267" fill="none" xmlns="http://www.w3.org/2000/svg">
<path d="M283.397 93.9063C282.807 82.8579 279.405 72.7928 272.244 64.3473C268.334 59.7429 263.857 55.5317 259.171 51.6908C243.692 39.0111 225.945 30.3459 207.319 23.3697C187.732 16.0349 167.486 10.9792 147.206 5.96984C133.219 2.53382 119.162 -0.0692178 104.666 0.000196617C85.2187 0.0927492 67.6337 5.71532 52.0849 17.3422C29.5252 34.2215 13.9069 56.1449 5.31113 82.962C0.556241 97.782 -1.27167 113.007 0.903313 128.475C3.44851 146.603 9.47599 163.645 18.4073 179.61C36.6864 212.293 63.6308 235.327 97.7711 250.1C120.516 259.946 144.256 265.591 172.681 266.135C176.533 265.719 183.949 265.302 191.226 264.053C205.768 261.565 218.934 255.827 230.04 245.878C237.04 239.619 242.419 232.053 247.243 224.081C255.932 209.701 261.867 194.141 266.749 178.141C272.175 160.371 275.981 142.207 280.019 124.102C282.251 114.152 283.952 104.168 283.397 93.9063ZM90.2281 183.497C89.6728 185.707 88.967 188.46 88.296 191.214C87.0697 196.316 85.3459 201.198 81.9215 205.27C77.9649 209.967 73.0017 212.073 66.8586 210.534C60.727 209.007 58.3322 202.609 62.1731 197.588C63.8159 195.436 66.0025 193.574 68.27 192.07C71.2895 190.068 74.6214 188.53 78.0343 186.679C78.6359 183.833 79.33 181.16 77.5599 178.361C76.4262 176.556 77.3517 174.589 79.4457 173.825C81.0422 173.235 81.5628 172.194 82.0719 170.806C82.9743 168.342 84.0502 165.947 85.1493 163.309C80.082 161.447 74.9569 160.232 69.6236 160.475C66.1644 160.625 64.6836 163.089 65.5281 166.537C66.095 168.851 67.7147 170.297 69.4963 171.674C71.7176 173.397 71.6019 175.387 69.103 176.741C66.766 178.002 64.3944 177.828 62.2194 176.278C60.056 174.739 58.7834 172.599 58.0545 170.065C55.787 162.175 60.8079 153.742 68.9063 152.677C72.7819 152.168 76.8542 152.515 80.753 153.059C90.043 154.366 99.2172 156.518 108.669 156.726C110.856 156.773 111.608 157.652 111.469 159.827C111.284 162.534 109.768 164.535 107.339 165.334C105.094 166.074 102.619 166.34 100.235 166.387C98.176 166.433 96.1052 165.866 93.7219 165.53C93.0394 168.446 92.3684 171.303 91.6626 174.277C95.0408 176.081 98.2917 174.207 101.415 174.346C103.405 177.898 102.329 181.461 98.5578 182.606C96.0936 183.347 93.3633 183.196 90.2281 183.497ZM223.145 176.567C221.792 175.931 220.496 175.029 219.073 174.705C215.938 173.987 214.584 175.353 215.232 178.453C215.544 179.957 216.192 181.392 216.69 182.849C217.326 184.723 218.032 186.598 218.61 188.495C219.524 191.491 218.807 194.291 216.921 196.616C213.381 200.966 208.614 202.713 203.084 202.227C199.579 201.915 197.288 199.752 195.715 196.258C194.084 197.496 192.857 198.653 191.434 199.439C189.63 200.457 187.732 201.522 185.742 201.961C180.328 203.165 177.008 200.816 175.284 194.684C174.555 195.274 173.942 195.807 173.282 196.304C171.339 197.762 169.511 199.428 167.417 200.596C161.621 203.812 158.104 201.846 157.664 195.032C156.021 196.327 154.645 197.75 152.979 198.653C150.885 199.786 148.629 200.909 146.326 201.267C143.272 201.742 142.138 200.457 141.861 197.38C141.815 196.871 141.849 196.35 141.849 195.286C140.507 196.848 139.593 198.063 138.529 199.127C137.673 199.983 136.713 200.758 135.695 201.395C131.773 203.836 126.925 202.401 127.261 196.964C127.284 196.64 127.214 196.304 127.145 195.598C126.347 196.212 125.745 196.744 125.086 197.16C122.494 198.815 120.053 200.897 117.242 201.961C111.862 204.009 107.859 200.319 109.109 194.696C109.71 192.012 110.717 189.421 111.619 186.817C112.117 185.383 112.279 184.238 110.185 183.81C108.808 185.904 107.489 188.044 106.008 190.08C105.245 191.133 104.296 192.139 103.22 192.857C101.982 193.69 100.606 193.423 99.7031 192.174C98.847 190.982 99.3214 189.953 100.305 188.969C101.624 187.65 102.908 186.274 104.007 184.77C105.233 183.104 106.332 181.415 105.326 179.032C104.932 178.094 105.36 176.602 105.823 175.538C107.35 172.09 109.93 169.533 113.274 167.821C114.037 167.428 114.94 167.208 115.807 167.15C117.3 167.058 118.746 167.347 119.417 168.92C120.134 170.575 119.301 171.662 117.901 172.449C117.138 172.877 116.386 173.305 115.622 173.744C115.807 174.057 115.992 174.369 116.189 174.682C117.716 175.248 119.255 175.757 120.747 176.382C123.512 177.539 124.091 178.789 123.003 181.588C121.997 184.157 120.655 186.598 119.706 189.178C119.209 190.52 118.214 192.012 119.694 193.909C120.655 193.412 121.846 193.076 122.645 192.313C124.634 190.415 126.555 188.414 128.279 186.274C128.88 185.533 129.216 184.203 129.042 183.254C128.244 178.858 134.063 171.963 138.46 170.806C139.697 170.482 141.41 170.702 142.497 171.35C143.92 172.194 143.573 173.953 142.995 175.283C141.757 178.106 140.357 180.871 139.015 183.648C137.812 186.146 136.909 188.68 137.731 191.723C140.542 191.318 142.393 190.022 143.272 187.512C144.441 184.18 145.505 180.802 146.674 177.47C147.217 175.908 147.796 174.346 148.571 172.888C150.48 169.29 154.251 169.047 156.912 172.217C157.965 173.478 157.537 174.763 157.039 175.966C155.778 179.032 154.379 182.028 153.037 185.059C152.319 186.679 151.556 188.275 150.954 189.93C150.676 190.693 150.734 191.572 150.642 192.417C152.77 192.776 153.789 191.457 154.864 190.427C158.289 187.188 160.753 183.277 162.708 179.02C163.264 177.817 163.796 176.59 164.49 175.468C165.068 174.543 165.751 173.629 166.572 172.923C168.03 171.662 169.835 171.396 171.524 172.275C173.132 173.108 173.213 174.855 172.958 176.382C172.669 178.106 172.091 179.795 171.489 181.461C170.552 184.052 169.453 186.598 168.528 189.189C168.192 190.126 168.169 191.167 168.412 192.324C173.387 189.363 177.065 185.556 178.327 179.864C175.423 177.389 175.573 175.248 178.917 173.64C180.212 173.016 180.675 172.183 181.057 170.991C182.086 167.844 183.035 164.663 184.273 161.585C185.87 157.617 188.704 155.731 192.337 155.859C195.414 155.963 196.883 157.513 196.351 160.544C196.097 161.99 195.298 163.425 194.442 164.651C192.742 167.081 191.006 169.441 190.254 172.657C191.55 172.657 192.626 172.657 193.713 172.657C195.796 172.657 196.49 173.305 196.583 175.329C196.71 177.967 195.136 179.795 192.499 179.969C191.087 180.061 189.653 179.98 188.01 179.98C186.98 184.261 185.534 188.426 185.962 193.308C187.177 193.238 188.357 193.47 189.225 193.053C192.325 191.572 195.379 189.918 196.097 186.054C196.12 185.95 196.154 185.846 196.201 185.742C197.323 182.433 198.908 181.299 201.071 182.271C203.628 183.428 204.646 186.332 203.408 188.969C202.355 191.225 202.645 192.66 204.426 194.06C206.324 195.552 208.545 194.708 208.695 192.278C208.776 190.901 208.302 189.455 207.955 188.079C207.168 184.978 206.196 181.924 205.537 178.8C205.236 177.331 205.34 175.711 205.537 174.196C206.382 167.74 211.46 164.35 217.731 165.97C222.37 167.139 225.008 172.252 223.145 176.567ZM168.481 160.949C168.724 159.584 168.851 158.149 169.256 156.784C169.881 154.736 171.304 154.077 173.387 154.655C176.985 155.639 178.535 159.017 176.834 162.372C176.244 163.529 175.527 164.721 174.613 165.611C172.311 167.856 169.8 167.092 168.956 163.945C168.701 162.997 168.643 162.002 168.481 160.949ZM253.375 119.266C251.05 120.272 248.25 120.261 245.647 120.515C244.478 120.631 243.252 120.261 241.852 120.087C241.285 121.209 240.742 122.262 240.221 123.338C238.081 127.746 235.478 131.841 231.764 135.115C227.807 138.609 223.307 140.715 217.881 140.379C212.502 140.044 208.73 137.452 206.729 132.397C206.451 131.691 206.185 130.985 205.78 129.944C204.785 130.719 203.94 131.332 203.131 132.003C199.625 134.907 195.981 137.661 191.596 139.037C189.329 139.755 186.853 140.159 184.481 140.113C180.016 140.009 177.887 137.661 177.667 133.23C177.621 132.397 177.656 131.552 177.656 130.222C176.325 131.24 175.376 131.945 174.439 132.674C170.911 135.381 167.209 137.776 162.87 138.979C161.922 139.245 160.938 139.465 159.955 139.535C153.615 139.951 150.075 137.464 150.538 130.812C150.572 130.372 150.538 129.932 150.538 129.088C149.612 129.655 148.895 130.025 148.259 130.499C143.261 134.109 137.8 136.677 131.749 137.927C126.034 139.118 120.701 138.655 116.883 134.132C112.637 135.451 108.831 137.024 104.863 137.753C101.786 138.32 98.419 138.32 95.3532 137.707C88.4927 136.342 84.9179 130.985 85.7856 124.021C86.1789 120.874 86.8152 117.773 87.4052 114.314C83.7957 114.823 80.4522 115.286 77.5715 115.691C74.5289 120.608 72.0184 125.039 69.1261 129.192C65.8752 133.866 61.7566 137.742 56.7241 140.507C51.0899 143.595 45.1319 144.868 38.8151 143.191C28.2989 140.414 22.0747 129.099 25.2562 118.699C26.5866 114.326 29.7334 111.723 33.8636 110.149C39.0118 108.194 44.4261 107.882 49.8405 107.581C54.6879 107.315 59.5469 107.153 64.6373 106.933C66.0372 101.125 67.1478 95.3987 67.4833 89.5679C67.8882 82.6033 67.599 75.7082 65.8173 68.8361C63.6771 60.5874 70.2252 53.8658 78.74 55.1268C81.5281 55.5433 83.5527 57.2208 84.2469 59.8123C85.184 63.3061 86.0516 66.9272 86.1095 70.5021C86.2599 80.8448 84.2006 90.9331 81.9909 100.987L88.6663 103.324C90.0314 103.011 90.0777 101.854 90.3322 100.767C91.7899 94.7624 93.1666 88.7234 94.8094 82.7653C96.2556 77.5361 98.1645 72.4688 101.277 67.9453C103.937 64.0928 107.431 61.4319 112.209 61.4204C114.662 61.4204 117.3 61.9757 119.509 63.0053C122.888 64.5787 124.276 68.4197 123.42 72.0408C122.83 74.5513 121.823 75.5462 119.162 75.7892C115.125 76.1594 112.29 78.1492 110.867 81.9208C109.386 85.8311 108.079 89.8109 106.76 93.6055C111.307 98.7191 111.284 103.289 106.332 107.986C104.076 110.126 102.873 112.382 102.503 115.332C102.248 117.415 101.681 119.462 101.531 121.545C101.346 124.102 102.41 125.363 104.932 125.386C107.431 125.409 109.93 124.981 112.556 124.749C112.799 121.637 112.88 118.896 113.251 116.2C114.315 108.622 117.647 102.086 122.899 96.6019C126.96 92.3676 131.958 89.9613 138.008 90.2274C145.979 90.5744 150.688 96.8911 148.733 104.585C147.807 108.24 145.968 111.376 142.983 113.666C139.651 116.223 136.157 118.548 132.721 120.966C131.842 121.591 130.94 122.17 129.956 122.841C131.252 125.131 133.323 125.444 135.209 125.004C138.182 124.321 141.063 123.176 143.943 122.112C144.961 121.73 145.841 120.99 146.824 120.469C151.637 117.901 154.286 113.99 155.2 108.53C156.727 99.4942 158.659 90.5282 160.464 81.539C161.436 76.7031 163.275 72.2143 166.41 68.3734C169.476 64.6134 173.259 62.1261 178.361 62.3228C182.769 62.4963 185.303 64.7985 185.141 69.1485C185.037 71.8441 184.516 74.6901 183.463 77.1659C181.531 81.7357 179.009 86.0509 176.846 90.5166C175.643 92.9924 174.416 95.4797 173.629 98.0943C171.304 105.811 169.175 113.585 167.035 121.36C166.665 122.702 166.619 124.125 166.434 125.49C168.238 126.554 169.58 125.825 170.668 124.992C175.897 121.024 180.814 116.882 182.063 109.791C183.556 101.311 185.43 92.8882 187.038 84.4313C188.056 79.0401 189.687 73.915 193.077 69.5303C196.27 65.4117 200.25 62.6467 205.791 63.0053C209.818 63.2599 212.328 65.4927 212.259 69.4956C212.212 72.1912 211.68 75.0487 210.627 77.513C208.545 82.3835 205.919 86.9996 203.593 91.766C202.587 93.8369 201.546 95.9425 200.886 98.1406C198.549 105.973 196.34 113.84 194.153 121.718C193.748 123.164 193.679 124.692 193.343 126.936C195.113 126.485 196.478 126.485 197.404 125.837C201.87 122.725 206.081 119.405 207.504 113.666C208.614 109.224 210.766 105.221 213.589 101.611C216.065 98.4298 219.119 96.2086 223.295 96.1391C227.634 89.1283 235.408 88.92 240.221 95.6417C242.662 99.0546 243.75 102.976 244.236 107.095C244.328 107.859 244.374 108.622 244.444 109.351C247.972 110.843 249.465 110.288 252.588 106.32C253.121 106.574 253.745 106.771 254.266 107.118C259.541 110.67 259.206 116.755 253.375 119.266Z" fill="white"/>
<path d="M58.6552 120.434C56.6653 124.946 54.7101 129.099 50.6841 131.772C46.0449 134.861 38.5944 130.973 38.1201 125.351C37.9697 123.535 38.7332 122.343 40.3992 121.776C41.4404 121.429 42.5395 121.151 43.6385 121.082C48.486 120.827 53.3218 120.654 58.6552 120.434Z" fill="white"/>
<path d="M231.254 119.613C229.831 122.921 227.783 126.288 224.741 128.937C223.595 129.944 222.311 130.985 220.587 130.349C218.76 129.678 218.297 128.093 218.146 126.369C217.603 120.029 219.511 114.43 223.19 109.339C225.863 112.741 228.466 116.061 231.254 119.613Z" fill="white"/>
<path d="M125.015 118.49C124.263 114.464 124.425 111.075 126.242 108.113C127.213 106.528 128.833 105.198 130.43 104.179C132.049 103.15 133.912 103.659 135.277 104.989C136.781 106.447 136.515 108.286 135.543 109.848C134.687 111.213 133.553 112.509 132.292 113.504C130.083 115.216 127.676 116.686 125.015 118.49Z" fill="white"/>
<path d="M67.7947 206.311C67.5171 206.23 67.1237 205.895 66.8923 205.467C66.418 204.564 66.8692 203.477 67.1237 202.84C67.5749 201.765 68.2344 201.059 68.5699 200.723C70.4672 198.826 73.0008 197.808 74.2734 197.368C70.3284 205.085 68.6161 206.554 67.7947 206.311Z" fill="white"/>
</svg>
