<svg width="311" height="185" viewBox="0 0 311 185" fill="none" xmlns="http://www.w3.org/2000/svg">
<path opacity="0.18" d="M93.6273 172.287C95.2462 172.287 96.8272 172.315 98.3592 172.369C103.015 170.364 110.664 169.055 119.324 169.055C123.48 169.055 127.402 169.359 130.874 169.892C135.59 168.142 142.728 167.029 150.72 167.029C158.434 167.029 165.355 168.066 170.066 169.712C173.227 169.289 176.715 169.05 180.388 169.05C185.543 169.05 190.335 169.517 194.361 170.31C198.381 169.511 203.178 169.05 208.334 169.05C222.524 169.05 234.03 172.565 234.03 176.894C234.03 181.224 222.524 184.739 208.334 184.739C203.178 184.739 198.386 184.272 194.361 183.479C190.34 184.277 185.543 184.739 180.388 184.739C172.673 184.739 165.752 183.702 161.042 182.055C157.88 182.479 154.392 182.718 150.72 182.718C146.564 182.718 142.641 182.414 139.17 181.882C134.454 183.631 127.316 184.745 119.324 184.745C110.664 184.745 103.015 183.435 98.3592 181.431C96.8272 181.48 95.2462 181.512 93.6273 181.512C79.4371 181.512 67.9306 179.448 67.9306 176.9C67.9306 174.352 79.4371 172.287 93.6273 172.287Z" fill="#2C4F9E"/>
<path opacity="0.25" d="M64.0354 172.537C65.7249 172.537 67.3819 172.565 68.9846 172.619C73.8577 170.614 81.8601 169.305 90.9164 169.305C95.2626 169.305 99.3697 169.609 102.999 170.142C107.932 168.392 115.396 167.279 123.763 167.279C131.836 167.279 139.072 168.316 143.999 169.962C147.308 169.539 150.959 169.299 154.8 169.299C160.189 169.299 165.209 169.767 169.414 170.56C173.624 169.761 178.638 169.299 184.028 169.299C198.875 169.299 210.909 172.814 210.909 177.144C210.909 181.474 198.875 184.989 184.028 184.989C178.638 184.989 173.619 184.522 169.414 183.729C165.203 184.527 160.189 184.989 154.8 184.989C146.727 184.989 139.49 183.951 134.563 182.305C131.254 182.729 127.603 182.968 123.763 182.968C119.416 182.968 115.309 182.664 111.68 182.132C106.747 183.881 99.2828 184.995 90.9164 184.995C81.8601 184.995 73.8523 183.685 68.9846 181.681C67.3819 181.73 65.7249 181.762 64.0354 181.762C49.1878 181.762 37.1543 179.698 37.1543 177.15C37.1543 174.602 49.1878 172.537 64.0354 172.537Z" fill="#2C4F9E"/>
<path opacity="0.23" d="M25.6967 172.537C27.3156 172.537 28.8966 172.565 30.4286 172.619C35.0844 170.614 42.7337 169.305 51.3934 169.305C55.5494 169.305 59.4718 169.609 62.9433 170.142C67.6589 168.392 74.7975 167.279 82.789 167.279C90.5035 167.279 97.4247 168.316 102.135 169.962C105.297 169.539 108.785 169.299 112.457 169.299C117.613 169.299 122.404 169.767 126.43 170.56C130.45 169.761 135.247 169.299 140.403 169.299C154.593 169.299 166.1 172.814 166.1 177.144C166.1 181.474 154.593 184.989 140.403 184.989C135.247 184.989 130.456 184.522 126.43 183.729C122.41 184.527 117.613 184.989 112.457 184.989C104.743 184.989 97.8213 183.951 93.1112 182.305C89.9493 182.729 86.4615 182.968 82.789 182.968C78.633 182.968 74.7106 182.664 71.2391 182.132C66.5235 183.881 59.3849 184.995 51.3934 184.995C42.7337 184.995 35.0844 183.685 30.4286 181.681C28.8966 181.73 27.3156 181.762 25.6967 181.762C11.5064 181.762 -2.4344e-05 179.698 -2.4344e-05 177.15C-2.4344e-05 174.602 11.501 172.537 25.6967 172.537Z" fill="#2C4F9E"/>
<path d="M134.307 162.068C140.598 153.473 180.871 139.859 198.919 134.095C199.63 133.562 200.38 133.013 201.173 132.459C210.496 125.913 226.12 109.506 228.022 107.061C229.923 104.617 237.257 94.5662 240.517 90.3558C243.776 86.1455 255.864 65.7728 260.89 56.673C265.056 49.1324 272.385 35.4474 274.776 30.9763C274.455 29.917 274.276 28.7924 274.276 27.6298C274.276 21.2735 279.426 16.1233 285.782 16.1233C288.205 16.1233 290.454 16.8785 292.307 18.1551C294.159 16.873 296.409 16.1233 298.832 16.1233C305.188 16.1233 310.338 21.2735 310.338 27.6298C310.338 33.986 305.188 39.1363 298.832 39.1363C296.409 39.1363 294.159 38.3811 292.307 37.1044C292.301 37.1099 292.296 37.1099 292.291 37.1153L292.492 37.2348C292.492 37.2348 283.701 46.3563 282.072 48.3936C280.442 50.4309 276.911 56.9501 274.27 61.5679C271.63 66.1857 270.527 71.89 268.626 86.1509C266.724 100.412 270.663 104.622 273.923 108.425C277.182 112.228 279.491 113.043 278.54 114.944C277.59 116.846 273.787 114.401 272.021 114.401C272.021 114.401 254.251 107.485 248.943 92.5343C248.943 92.5343 233.541 107.203 239.305 110.555L264.763 111.413C264.763 111.413 278.307 118.014 258.575 117.655C252.773 117.552 244.923 142.602 241.707 153.794C241.663 153.946 241.62 154.092 241.582 154.234C241.011 156.363 238.914 165.93 244.048 176.193C247.308 182.712 237.257 176.464 228.837 176.193C220.416 175.921 214.44 180.267 204.389 180.81C194.339 181.354 186.19 176.736 178.856 176.736C171.521 176.736 155.767 181.169 149.791 180.854C143.815 180.539 132.406 176.464 124.8 177.279C117.194 178.094 109.86 181.354 109.045 178.366C108.23 175.378 126.158 173.205 134.307 162.068ZM267.697 61.8124C269.652 62.3719 270.353 58.8787 275.661 50.496C278.475 46.0521 281.958 41.9504 284.614 39.0765C281.854 38.7994 279.388 37.5445 277.557 35.6702C273.667 41.6407 267.202 54.1251 266.719 55.8038C266.159 57.7596 265.741 61.2528 267.697 61.8124Z" fill="#36A9E1"/>
<path d="M262.172 57.0434C259.977 60.7974 258.575 64.1657 256.587 68.0284C254.131 72.7874 251.344 78.1169 249.144 83.0009C246.107 89.7483 242.261 96.0937 238.42 102.423C235.904 106.568 233.297 110.822 229.423 113.745C227.272 115.369 224.653 116.678 223.518 119.123C222.339 121.649 222.415 125.555 219.672 126.05C217.89 126.37 215.956 124.746 214.402 126.24C214.022 126.604 213.777 127.093 213.641 127.603C212.848 130.64 214.163 133.797 213.207 136.839C212.837 138.018 212.049 139.045 210.947 139.588C207.676 141.202 206.345 136.872 203.314 137.996C202.379 138.344 201.678 139.126 201.32 140.055C200.054 143.331 202.162 146.629 200.717 149.888C200.255 150.926 199.342 151.73 198.223 151.871C195.686 152.186 194.86 149.253 192.818 148.487C189.411 147.216 186.842 152.686 187.26 155.794C187.45 157.223 187.206 158.684 186.396 159.879C181.36 167.306 175.514 155.946 170.739 160.623C169.837 161.504 169.316 162.688 169.082 163.927C168.696 165.98 167.029 168.963 164.693 168.593C165.969 165.757 162.248 162.791 159.195 163.389C155.853 164.041 153.545 167.067 151.198 169.441C150.861 169.783 150.464 170.065 150.013 170.234C146.221 171.646 144.994 164.41 141.652 165.35C139.61 165.926 139.001 169.365 136.888 169.191C136.182 169.131 135.6 168.648 134.959 168.349C132.341 167.143 129.494 169.213 127.125 170.848C122.888 173.765 117.151 174.939 112.033 175.498C115.977 174.145 120.421 172.793 123.958 170.576C128.771 167.561 131.341 164.138 135.443 160.205C147.889 148.253 169.723 144.885 185.348 138.23C191.818 135.475 197.734 134.563 203.281 130.885C211.131 125.686 218.232 117.211 225.104 109.665C229.211 105.155 232.134 100.945 235.97 96.2621C240.908 90.2373 245.216 83.7126 248.704 76.7479C251.295 71.5705 254.218 68.1044 256.587 62.9325C258.955 57.766 262.117 53.5122 265.632 46.9929C267.094 44.2874 269.071 41.533 269.826 38.5505C270.25 36.8663 273.053 32.3952 274.775 30.9718C275.221 30.6024 274.699 31.5097 274.574 32.0747C272.966 39.5718 265.779 50.8773 262.172 57.0434Z" fill="#1D71B8"/>
<path opacity="0.75" d="M215.363 142.587C213.863 142.587 212.647 140.641 212.647 138.241C212.647 135.84 213.863 133.895 215.363 133.895C216.864 133.895 218.08 135.84 218.08 138.241C218.08 140.641 216.864 142.587 215.363 142.587Z" fill="#2D2E83"/>
<path opacity="0.75" d="M225.077 141.026C224.065 140.014 225.16 137.278 227.524 134.915C229.887 132.551 232.623 131.456 233.635 132.468C234.647 133.48 233.552 136.216 231.188 138.579C228.825 140.943 226.089 142.038 225.077 141.026Z" fill="#2D2E83"/>
<path opacity="0.75" d="M188.104 152.333C187.091 148.142 187.715 144.395 189.496 143.965C191.278 143.534 193.544 146.582 194.557 150.773C195.57 154.964 194.946 158.71 193.164 159.141C191.382 159.572 189.117 156.523 188.104 152.333Z" fill="#2D2E83"/>
<path opacity="0.75" d="M155.468 166.67C151.369 166.67 148.047 165.617 148.047 164.318C148.047 163.019 151.369 161.965 155.468 161.965C159.566 161.965 162.889 163.019 162.889 164.318C162.889 165.617 159.566 166.67 155.468 166.67Z" fill="#2D2E83"/>
<path opacity="0.75" d="M136.997 172.651C134.971 172.651 133.33 171.778 133.33 170.701C133.33 169.624 134.971 168.751 136.997 168.751C139.022 168.751 140.664 169.624 140.664 170.701C140.664 171.778 139.022 172.651 136.997 172.651Z" fill="#2D2E83"/>
<path opacity="0.75" d="M203.276 167.8C201.394 167.8 199.869 166.849 199.869 165.676C199.869 164.503 201.394 163.552 203.276 163.552C205.157 163.552 206.682 164.503 206.682 165.676C206.682 166.849 205.157 167.8 203.276 167.8Z" fill="#2D2E83"/>
<path opacity="0.75" d="M228.674 118.14C227.623 118.14 226.772 116.863 226.772 115.288C226.772 113.712 227.623 112.435 228.674 112.435C229.724 112.435 230.575 113.712 230.575 115.288C230.575 116.863 229.724 118.14 228.674 118.14Z" fill="#2D2E83"/>
<path opacity="0.75" d="M251.581 79.0728C250.699 78.1902 251.282 76.1762 252.884 74.5744C254.485 72.9727 256.499 72.3896 257.382 73.2722C258.265 74.1548 257.682 76.1688 256.08 77.7705C254.478 79.3723 252.464 79.9554 251.581 79.0728Z" fill="#2D2E83"/>
<path opacity="0.75" d="M262.628 70.3318C262.028 70.3318 261.541 69.6021 261.541 68.702C261.541 67.8019 262.028 67.0722 262.628 67.0722C263.228 67.0722 263.715 67.8019 263.715 68.702C263.715 69.6021 263.228 70.3318 262.628 70.3318Z" fill="#2D2E83"/>
<path opacity="0.25" d="M270.413 65.7249C257.918 65.7249 250.35 92.2691 263.383 98.7829C265.524 99.8532 267.68 96.3328 267.794 95.2951L270.413 65.7249Z" fill="#1D71B8"/>
<path opacity="0.25" d="M255.022 119.411C257.32 117.569 254.479 117.873 252.724 118.286C235.09 122.459 223.317 164.296 234.894 163.954C237.29 163.883 240.137 162.09 240.245 161.047L243.521 145.303L249.225 129.999L255.022 119.411Z" fill="#1D71B8"/>
<path opacity="0.25" d="M236.823 172.657C236.823 172.657 232.205 168.99 229.353 168.827C226.5 168.664 225.8 172.798 227.918 173.314C230.032 173.825 236.823 175.83 236.823 172.657Z" fill="#1D71B8"/>
<path opacity="0.25" d="M196.349 177.568C193.872 178.454 191.096 177.834 188.694 176.759C187.233 176.101 185.848 175.286 184.44 174.52C184.169 174.374 184.337 173.966 184.636 174.053C188.444 175.178 194.763 176.976 196.349 176.965C198.658 176.949 196.349 177.568 196.349 177.568Z" fill="#1D71B8"/>
<path opacity="0.25" d="M129.119 175.074C129.119 175.074 139.849 175.227 144.738 176.835C149.628 178.443 150.35 178.986 150.35 178.986C150.35 178.986 130.521 175.688 129.119 175.074Z" fill="#1D71B8"/>
<path d="M245.461 92.7254C246.324 92.5353 246.96 92.2093 247.509 92.0246C248.052 91.8182 248.454 91.7421 248.818 91.6824C248.992 91.6552 249.139 91.6443 249.269 91.6335C249.394 91.6172 249.546 91.6172 249.758 91.6769C250.192 91.7856 250.763 92.2256 251.545 92.6277C251.79 91.7965 251.784 90.9707 251.236 90.1286C250.964 89.7212 250.513 89.3517 249.986 89.1562C249.465 88.9552 248.916 88.9226 248.421 88.9986C247.438 89.1399 246.601 89.732 246.129 90.4165C245.64 91.1011 245.439 91.8508 245.461 92.7254Z" fill="#2D2E83"/>
<path d="M233.943 105.351C233.987 105.275 233.949 105.161 233.878 105.09C233.807 105.02 233.71 104.96 233.579 104.949C233.313 104.954 233.123 105.128 232.993 105.237C232.743 105.443 232.525 105.65 232.313 105.878C231.89 106.334 231.52 106.861 231.232 107.464C230.95 108.067 230.76 108.763 230.743 109.507C230.711 110.246 230.901 111.028 231.205 111.686C231.841 113.011 232.884 113.935 234.041 114.532C235.204 115.119 236.529 115.369 237.773 115.059C236.785 114.261 235.986 113.554 235.291 112.799C234.601 112.055 234.019 111.273 233.666 110.528C233.487 110.154 233.373 109.806 233.313 109.398C233.242 108.996 233.242 108.551 233.275 108.057C233.313 107.562 233.395 107.035 233.498 106.476C233.541 106.193 233.601 105.905 233.639 105.612C233.65 105.481 233.65 105.405 233.672 105.335C233.682 105.286 233.856 105.221 233.943 105.351Z" fill="#2D2E83"/>
<path d="M282.957 35.155C280.485 33.4437 277.926 31.6346 276.682 29.2062C276.172 28.2175 275.743 27.006 274.488 26.6528C274.254 29.2334 274.33 32.0041 276.128 34.15C277.128 35.3452 278.589 36.2416 280.094 37.0185C281.735 37.866 283.5 38.6157 285.418 38.909C287.086 39.1698 289.129 39.1046 290.568 38.3114C287.504 37.9311 285.304 36.7794 282.957 35.155Z" fill="#1D71B8"/>
<path d="M287.043 41.5602C286.983 41.6254 286.918 41.6797 286.847 41.7286C285.961 42.348 279.312 48.3837 271.864 57.1684C271.679 57.3857 271.347 57.1358 271.505 56.8968L275.123 49.693C275.134 49.6713 275.145 49.6495 275.161 49.6332C275.666 48.927 284.478 38.105 284.869 38.0833L293.209 33.8512C294.192 33.7969 294.741 34.9649 294.072 35.6875L287.043 41.5602Z" fill="#1D71B8"/>
<path d="M197.751 176.889C196.267 176.742 194.833 176.422 193.448 175.944C192.052 175.487 190.699 174.911 189.346 174.33C186.641 173.173 183.881 171.902 180.822 171.478C179.312 171.266 177.704 171.348 176.253 171.608C174.776 171.858 173.303 172.163 171.869 172.581C168.984 173.385 166.23 174.504 163.497 175.656C166.371 174.901 169.213 174.053 172.076 173.401C173.51 173.086 174.95 172.809 176.4 172.624C177.867 172.396 179.252 172.342 180.676 172.554C183.522 172.918 186.244 174.102 189.031 175.112C190.422 175.634 191.845 176.112 193.307 176.454C194.768 176.764 196.267 176.987 197.751 176.889Z" fill="#1D71B8"/>
<path d="M238.219 172.581C237.045 171.663 235.91 170.707 234.606 169.913C233.949 169.533 233.237 169.207 232.493 169.006C231.77 168.783 231.026 168.637 230.276 168.512C228.777 168.256 227.245 168.218 225.729 168.322C224.213 168.436 222.714 168.729 221.252 169.12C219.775 169.522 218.33 170.207 217.091 171.109C215.852 172.016 214.75 173.01 213.625 173.961C212.49 174.901 211.338 175.808 210.061 176.514C208.801 177.242 207.388 177.715 205.894 177.791C207.383 177.97 208.909 177.59 210.3 176.992C211.685 176.367 212.951 175.52 214.152 174.624C215.358 173.738 216.483 172.755 217.678 171.951C218.862 171.13 220.15 170.527 221.54 170.163C224.344 169.365 227.266 169.033 230.162 169.343C230.885 169.419 231.607 169.533 232.319 169.691C233.025 169.821 233.693 170.071 234.356 170.381C235.698 170.984 236.91 171.864 238.219 172.581Z" fill="#1D71B8"/>
<path d="M149.443 176.742C147.422 176.601 145.466 176.253 143.527 175.802C141.587 175.346 139.664 174.808 137.714 174.298C135.763 173.809 133.78 173.341 131.754 173.119C129.733 172.891 127.652 172.896 125.68 173.369C127.701 173.347 129.679 173.58 131.629 173.955C133.579 174.341 135.508 174.841 137.448 175.346C139.392 175.835 141.359 176.329 143.369 176.628C145.374 176.938 147.438 177.057 149.443 176.742Z" fill="#1D71B8"/>
<g opacity="0.25">
<path opacity="0.25" d="M207.768 177.025C209.806 176.742 211.664 175.764 213.326 174.738C214.994 173.689 216.499 172.554 217.993 171.57C219.476 170.592 221.024 169.756 222.687 169.012C224.349 168.262 226.104 167.648 228.032 166.985C226.109 166.284 223.996 166.214 221.964 166.551C219.927 166.898 217.938 167.691 216.2 168.843C214.472 169.989 213.044 171.364 211.713 172.749L207.768 177.025Z" fill="#2D2E83"/>
</g>
<g opacity="0.25">
<path opacity="0.25" d="M164.22 175.031C166.007 174.906 167.626 174.607 169.234 174.314C170.832 174.01 172.396 173.684 173.95 173.341C175.509 172.999 177.063 172.641 178.644 172.249C180.225 171.847 181.822 171.435 183.495 170.793C181.849 170.071 180.121 169.783 178.399 169.696C176.672 169.625 174.939 169.783 173.254 170.158C171.57 170.527 169.93 171.109 168.392 171.902C166.86 172.706 165.415 173.689 164.22 175.031Z" fill="#2D2E83"/>
</g>
<g opacity="0.25">
<path opacity="0.25" d="M115.206 178.812C117.939 178.274 120.541 177.78 123.143 177.503C125.745 177.215 128.315 177.106 130.847 177.269C132.113 177.351 133.362 177.514 134.601 177.747C135.845 177.986 137.029 178.318 138.3 178.725C139.566 179.127 140.892 179.573 142.299 179.833C143.69 180.1 145.195 180.159 146.536 179.752C143.804 179.154 141.761 177.66 139.3 176.362C138.089 175.705 136.714 175.134 135.323 174.738C133.927 174.346 132.493 174.118 131.064 174.015C128.196 173.83 125.327 174.2 122.633 174.993C119.938 175.813 117.368 177.047 115.206 178.812Z" fill="#2D2E83"/>
</g>
<path d="M248.03 93.3882C245.553 95.6591 234.975 106.394 238.822 110.105L265.888 111.419C265.888 111.419 251.54 102.222 249.144 94.0239C249.122 93.9532 249.106 93.8826 249.068 93.8228L248.851 93.4969C248.666 93.2144 248.275 93.1655 248.03 93.3882Z" fill="white"/>
<path d="M250.948 98.3103L242.782 109.844" stroke="#C6C6C6" stroke-width="1.62981" stroke-miterlimit="10" stroke-linecap="round"/>
<path d="M255.359 103.477L250.502 110.404" stroke="#C6C6C6" stroke-width="1.62981" stroke-miterlimit="10" stroke-linecap="round"/>
<path d="M240.875 101.771C240.875 101.771 240.848 106.215 245.232 106.226C245.232 106.226 247.074 109.985 250.567 109.322C250.567 109.322 250.866 110.436 253.11 110.501" stroke="#C6C6C6" stroke-width="1.62981" stroke-miterlimit="10" stroke-linecap="round"/>
<path d="M245.955 109.806C244.858 109.312 243.836 109.018 242.913 108.687C242 108.366 241.191 107.986 240.778 107.589C240.566 107.394 240.441 107.204 240.321 106.932C240.202 106.666 240.147 106.285 240.131 105.856C240.115 105.427 240.153 104.949 240.223 104.444C240.294 103.933 240.359 103.412 240.549 102.852C240.24 102.901 239.968 103.075 239.718 103.243C239.463 103.417 239.24 103.618 239.028 103.841C238.61 104.286 238.273 104.808 238.04 105.422C237.811 106.03 237.681 106.742 237.811 107.513C237.877 107.894 238.002 108.279 238.197 108.638C238.387 108.996 238.648 109.306 238.925 109.578C239.501 110.105 240.158 110.409 240.783 110.588C241.419 110.773 242.033 110.816 242.625 110.8C243.815 110.735 244.928 110.431 245.955 109.806Z" fill="#29235C"/>
<path opacity="0.8" d="M241.185 89.4387L246.227 82.0013L257.635 74.6617L254.463 66.5127L259.814 57.1304L263.459 70.9131L270.581 66.3279L268.854 77.0738L265.491 78.5787L267.881 87.6296L266.73 98.0278L260.096 80.9854L241.185 89.4387Z" fill="white"/>
<path d="M133.873 161.884C140.164 153.289 180.437 139.675 198.484 133.911C199.196 133.378 199.945 132.83 200.739 132.276C210.061 125.729 225.686 109.322 227.587 106.878C229.488 104.433 236.823 94.3824 240.082 90.1721C243.342 85.9617 255.43 65.5891 260.455 56.4893C264.622 48.9487 271.951 35.2637 274.341 30.7926C274.02 29.7332 273.841 28.6086 273.841 27.446C273.841 21.0898 278.991 15.9396 285.348 15.9396C287.771 15.9396 290.02 16.6947 291.872 17.9714C293.725 16.6893 295.974 15.9396 298.397 15.9396C304.753 15.9396 309.903 21.0898 309.903 27.446C309.903 33.8023 304.759 38.9525 298.402 38.9525C295.979 38.9525 293.73 38.1974 291.878 36.9207C291.872 36.9261 291.867 36.9261 291.861 36.9315L292.062 37.0511C292.062 37.0511 283.272 46.1726 281.642 48.2098C280.013 50.2471 276.481 56.7664 273.841 61.3842C271.201 66.002 270.098 71.7063 268.197 85.9672C266.295 100.228 270.234 104.438 273.493 108.241C276.753 112.044 279.062 112.859 278.111 114.761C277.16 116.662 273.358 114.217 271.592 114.217C271.592 114.217 253.822 107.301 248.514 92.3506C248.514 92.3506 233.112 107.019 238.876 110.371L264.334 111.229C264.334 111.229 277.878 117.83 258.146 117.471C252.344 117.368 244.494 142.418 241.277 153.61C241.234 153.762 241.191 153.909 241.152 154.05C240.582 156.179 238.485 165.746 243.619 176.009C246.879 182.528 236.828 176.281 228.407 176.009C219.987 175.737 214.011 180.083 203.96 180.627C193.91 181.17 185.761 176.552 178.426 176.552C171.092 176.552 155.337 180.985 149.361 180.67C143.385 180.355 131.977 176.281 124.371 177.095C116.765 177.91 109.431 181.17 108.616 178.182C107.801 175.194 125.724 173.021 133.873 161.884ZM267.268 61.6286C269.223 62.1882 269.924 58.695 275.232 50.3123C278.046 45.8683 281.528 41.7667 284.185 38.8927C281.425 38.6157 278.959 37.3607 277.128 35.4864C273.238 41.457 266.768 53.9413 266.29 55.6201C265.73 57.5758 265.312 61.0691 267.268 61.6286Z" stroke="#2D2E83" stroke-width="1.62981" stroke-miterlimit="10"/>
<path d="M299.576 38.6971C293.965 38.6971 289.417 34.1487 289.417 28.538C289.417 22.9272 293.965 18.3788 299.576 18.3788C305.187 18.3788 309.735 22.9272 309.735 28.538C309.735 34.1487 305.187 38.6971 299.576 38.6971Z" fill="white"/>
<path opacity="0.5" d="M297.647 38.1322C296.485 37.7247 295.279 37.2955 294.676 36.6816C294.431 36.4317 294.219 36.122 293.632 36.0514C293.551 36.7305 293.611 37.4531 294.464 37.98C294.942 38.2734 295.626 38.4853 296.332 38.6646C297.104 38.8601 297.93 39.0231 298.821 39.0666C299.598 39.1046 300.543 39.0557 301.206 38.8221C299.782 38.7786 298.75 38.5124 297.647 38.1322Z" fill="#008D36"/>
<path d="M299.498 27.8086C299.42 25.6978 300.576 23.942 302.078 23.887C303.58 23.832 304.86 25.4985 304.938 27.6093C305.015 29.7201 303.86 31.4759 302.358 31.5309C300.855 31.5859 299.575 29.9194 299.498 27.8086Z" fill="black" stroke="#36A9E1" stroke-width="1.08654" stroke-miterlimit="10"/>
<path d="M294.98 26.077C297.533 26.1041 307.209 25.751 309.496 25.5446Z" fill="#D60B52"/>
<path d="M294.98 26.077C296.191 26.5279 297.419 26.7343 298.636 26.8702C299.853 26.9951 301.07 27.0331 302.281 26.9897C303.493 26.9462 304.704 26.8213 305.91 26.6094C307.111 26.3866 308.322 26.0933 309.496 25.55C308.257 25.1969 307.046 25.0176 305.829 24.9035C304.617 24.8003 303.406 24.7731 302.2 24.822C300.994 24.8655 299.788 24.9796 298.587 25.1751C297.386 25.3653 296.191 25.6315 294.98 26.077Z" fill="#2D2E83"/>
<path d="M290.041 26.1313C293.029 26.3758 296.403 26.4899 300.097 26.3432C303.591 26.2074 306.78 25.8597 309.61 25.4142C308.083 21.231 304.014 18.4929 299.565 18.6559C295.116 18.8189 291.258 21.8503 290.041 26.1313Z" fill="#1D71B8"/>
<path d="M309.306 31.9552C308.16 32.781 306.367 33.8512 303.976 34.5194C301.7 35.1496 299.864 35.1442 299.185 35.1279C296.664 35.0573 294.654 34.3945 293.361 33.8403L291.856 35.1388C292.524 35.8015 293.54 36.6816 294.942 37.4477C295.262 37.6215 297.913 39.0394 300.315 39.0557C303.786 39.072 307.274 36.1655 309.306 31.9552Z" fill="#1D71B8"/>
<path d="M309.306 31.9552C307.969 32.4713 306.693 32.9602 305.389 33.3188C304.09 33.6882 302.792 33.9544 301.472 34.112C300.157 34.275 298.826 34.313 297.479 34.2587C296.131 34.2098 294.779 34.0359 293.355 33.8403C294.529 34.6715 295.892 35.2148 297.31 35.5299C298.728 35.8396 300.211 35.9156 301.662 35.7309C303.118 35.5571 304.536 35.1442 305.845 34.514C307.149 33.8729 308.355 33.0309 309.306 31.9552Z" fill="#2D2E83"/>
<path d="M289.884 31.3032C290.617 33.8621 292.171 36.2742 294.513 37.8442C295.681 38.6102 297.033 39.1481 298.451 39.3382C299.864 39.5284 301.32 39.398 302.672 38.9688C304.025 38.5342 305.264 37.8008 306.302 36.8718C307.339 35.9428 308.192 34.8399 308.833 33.6393C310.126 31.2381 310.561 28.3913 309.952 25.6695C309.643 24.3168 309.078 22.9966 308.241 21.8503C307.41 20.704 306.323 19.7316 305.095 19.0036C303.862 18.2756 302.482 17.7921 301.054 17.602C299.625 17.4009 298.152 17.5259 296.767 17.9171C295.393 18.3354 294.078 19.0036 292.986 19.9326C291.883 20.8507 291.014 22.0242 290.427 23.2954C289.227 25.8597 289.161 28.7336 289.884 31.3032ZM290.041 31.2544C289.688 29.9831 289.639 28.6304 289.878 27.3537C290.112 26.0715 290.65 24.8655 291.356 23.8224C292.801 21.7525 294.871 20.2151 297.234 19.5903C299.581 18.9438 302.162 19.1937 304.34 20.3455C306.508 21.5026 308.252 23.491 309.094 25.9086C309.947 28.3153 309.708 31.1457 308.371 33.3785C307.709 34.4922 306.801 35.4484 305.747 36.1655C304.693 36.8826 303.52 37.377 302.308 37.6595C301.097 37.9474 299.853 38.0289 298.625 37.904C297.397 37.779 296.175 37.4748 295.023 36.9424C293.877 36.4154 292.79 35.6657 291.921 34.6878C291.052 33.7099 290.389 32.531 290.041 31.2544Z" fill="#29235C"/>
<path d="M285.022 38.1865C279.411 38.1865 274.862 33.6381 274.862 28.0273C274.862 22.4166 279.411 17.8682 285.022 17.8682C290.632 17.8682 295.181 22.4166 295.181 28.0273C295.181 33.6381 290.632 38.1865 285.022 38.1865Z" fill="white"/>
<g opacity="0.5">
<path opacity="0.5" d="M291.443 34.3673C288.955 35.4158 286.749 35.3723 284.886 34.6878C283.951 34.3293 283.098 33.8621 282.3 33.2427C281.501 32.6343 280.784 31.9008 280.208 31.124C279.632 30.3417 279.219 29.5105 279.018 28.6955C278.991 28.5923 278.975 28.4945 278.959 28.3913C278.942 28.299 278.932 28.1849 278.915 28.0545C278.893 27.8046 278.872 27.5438 278.872 27.2776C278.866 26.7506 278.877 26.2019 278.942 25.6587C279.046 24.5613 279.268 23.453 279.643 22.3719C280.023 21.2962 280.55 20.2477 281.501 19.3187C280.154 19.4165 278.877 20.2477 277.921 21.2636C276.954 22.2904 276.226 23.529 275.721 24.8492C275.482 25.512 275.27 26.2019 275.15 26.9136C275.085 27.2722 275.042 27.6362 275.004 28.0056L274.982 28.2881L274.976 28.6032C274.976 28.8151 274.987 29.0215 275.004 29.228C275.139 30.8958 275.808 32.4007 276.682 33.6393C277.562 34.8888 278.676 35.9102 279.942 36.7034C280.572 37.1054 281.257 37.4259 281.974 37.6921C282.702 37.9257 283.441 38.1104 284.201 38.1702C285.717 38.3006 287.271 38.0289 288.564 37.3336C289.873 36.6599 290.894 35.5951 291.443 34.3673Z" fill="#DADADA"/>
</g>
<path d="M280.717 28.5122C280.64 26.4014 281.912 24.6413 283.558 24.581C285.204 24.5208 286.601 26.183 286.678 28.2938C286.756 30.4046 285.484 32.1647 283.838 32.2249C282.192 32.2852 280.795 30.623 280.717 28.5122Z" fill="black" stroke="#36A9E1" stroke-width="1.08654" stroke-miterlimit="10"/>
<path d="M274.982 26.9245C278.568 26.9353 292.166 26.441 295.382 26.1748Z" fill="#D60B52"/>
<path d="M274.982 26.9245C276.688 27.37 278.405 27.5547 280.11 27.6742C281.816 27.7828 283.522 27.8046 285.228 27.7394C286.928 27.6796 288.629 27.5384 290.324 27.3048C292.019 27.0603 293.714 26.7506 295.382 26.1748C293.654 25.8488 291.954 25.6858 290.248 25.5989C288.542 25.5174 286.842 25.5065 285.147 25.5717C283.452 25.6369 281.757 25.7673 280.062 25.9738C278.367 26.1911 276.682 26.4736 274.982 26.9245Z" fill="#2D2E83"/>
<path d="M294.947 31.4608C293.85 32.3083 290.291 34.8345 285.103 34.8562C280.366 34.878 277.019 32.7972 275.835 31.9823C277.171 36.1547 281.083 38.9797 285.424 38.9362C289.878 38.8873 293.806 35.8178 294.947 31.4608Z" fill="#1D71B8"/>
<path d="M275.346 26.843C278.285 27.0875 281.604 27.207 285.239 27.0657C288.803 26.9299 292.046 26.5768 294.915 26.1259C294.1 21.2636 289.775 17.7215 284.869 17.8736C279.926 18.0203 275.808 21.8884 275.346 26.843Z" fill="#1D71B8"/>
<path d="M294.447 31.8139C292.975 32.6125 291.508 33.2699 289.998 33.7425C288.488 34.2043 286.95 34.4922 285.396 34.552C283.843 34.6335 282.289 34.4814 280.741 34.1608C279.198 33.824 277.677 33.297 276.139 32.6288C277.291 33.8566 278.774 34.7747 280.377 35.3778C281.985 35.9862 283.734 36.2687 285.467 36.1764C287.2 36.1058 288.922 35.6711 290.465 34.916C292.008 34.1826 293.404 33.1341 294.447 31.8139Z" fill="#2D2E83"/>
<path d="M276.514 33.4655C277.943 35.7146 280.11 37.5889 282.805 38.431C284.141 38.8384 285.592 38.9688 287.005 38.7515C288.412 38.5342 289.775 37.9964 290.949 37.2032C292.122 36.4046 293.105 35.3506 293.839 34.1663C294.572 32.982 295.078 31.6836 295.355 30.3471C295.914 27.6796 295.528 24.822 294.176 22.3828C293.497 21.1713 292.584 20.0684 291.454 19.2046C290.335 18.3354 289.015 17.7161 287.629 17.3629C286.244 17.0098 284.777 16.9392 283.354 17.1619C281.925 17.3738 280.55 17.9116 279.328 18.6777C278.127 19.4708 277.052 20.4759 276.269 21.6819C275.471 22.8717 274.966 24.2462 274.765 25.6315C274.352 28.4294 275.096 31.2055 276.514 33.4655ZM276.65 33.3786C275.949 32.2594 275.52 30.9773 275.389 29.6789C275.254 28.3805 275.427 27.0766 275.808 25.876C276.606 23.4802 278.16 21.4212 280.252 20.1553C282.322 18.8678 284.864 18.3843 287.282 18.8732C289.688 19.373 291.927 20.7855 293.415 22.8608C294.909 24.9253 295.48 27.7122 294.833 30.233C294.513 31.488 293.909 32.6669 293.1 33.6502C292.291 34.6389 291.302 35.443 290.226 36.0569C289.145 36.6762 287.977 37.1054 286.76 37.3281C285.549 37.5563 284.288 37.6052 283.033 37.4205C281.784 37.2358 280.529 36.8229 279.42 36.1329C278.312 35.4484 277.351 34.4977 276.65 33.3786Z" fill="#29235C"/>
<path fill-rule="evenodd" clip-rule="evenodd" d="M126.858 17.0238L122.828 0.315099L123.893 0.124954L129.765 16.1103C132.248 16.1876 134.237 18.2244 134.237 20.7258C134.237 21.7756 133.886 22.7435 133.296 23.5192C135.607 30.4418 137.918 37.3654 140.229 44.2891L140.267 44.4042L140.275 44.4282C142.826 52.0709 145.376 59.7135 147.927 67.3547C145.292 67.496 142.652 67.6372 140.017 67.773C137.95 60.1984 135.883 52.6252 133.817 45.0519C132.01 38.4281 130.203 31.8043 128.395 25.1796C126.439 24.6432 125.001 22.8523 125.001 20.7258C125.001 19.2106 125.731 17.8658 126.858 17.0238Z" fill="#683C11"/>
<path d="M128.733 16.8903L122.964 0L127.131 17.276L128.733 16.8903Z" fill="#936037"/>
<path d="M140.392 62.0633L129.918 25.0231L128.511 25.2078L138.903 62.5631L140.392 62.0633Z" fill="#936037"/>
<path d="M144.244 74.7812C140.262 74.7812 137.035 71.5535 137.035 67.572C137.035 63.5905 140.262 60.3628 144.244 60.3628C148.225 60.3628 151.453 63.5905 151.453 67.572C151.453 71.5535 148.225 74.7812 144.244 74.7812Z" fill="#683C11"/>
<mask id="path-59-inside-1" fill="white">
<path fill-rule="evenodd" clip-rule="evenodd" d="M87.5433 41.1877L76.9815 27.6307L77.8724 27.0168L89.8168 39.1563C90.3613 38.9305 90.9584 38.8058 91.5846 38.8058C94.1349 38.8058 96.2024 40.8733 96.2024 43.4236C96.2024 43.7774 96.1626 44.1219 96.0873 44.4528C106.556 55.752 117.025 67.0513 127.489 78.3505C126.319 78.9589 125.147 79.566 123.974 80.1731L123.974 80.1732L123.968 80.1764C122.798 80.7825 121.628 81.3885 120.459 81.9958L120.435 81.9659L120.248 81.7407C110.931 70.4877 101.614 59.2347 92.302 47.986C92.0682 48.0225 91.8286 48.0414 91.5846 48.0414C89.0342 48.0414 86.9668 45.974 86.9668 43.4236C86.9668 42.6125 87.1759 41.8501 87.5433 41.1877Z"/>
</mask>
<path fill-rule="evenodd" clip-rule="evenodd" d="M87.5433 41.1877L76.9815 27.6307L77.8724 27.0168L89.8168 39.1563C90.3613 38.9305 90.9584 38.8058 91.5846 38.8058C94.1349 38.8058 96.2024 40.8733 96.2024 43.4236C96.2024 43.7774 96.1626 44.1219 96.0873 44.4528C106.556 55.752 117.025 67.0513 127.489 78.3505C126.319 78.9589 125.147 79.566 123.974 80.1731L123.974 80.1732L123.968 80.1764C122.798 80.7825 121.628 81.3885 120.459 81.9958L120.435 81.9659L120.248 81.7407C110.931 70.4877 101.614 59.2347 92.302 47.986C92.0682 48.0225 91.8286 48.0414 91.5846 48.0414C89.0342 48.0414 86.9668 45.974 86.9668 43.4236C86.9668 42.6125 87.1759 41.8501 87.5433 41.1877Z" fill="#683C11"/>
<path d="M87.5433 41.1877L89.121 39.9585L89.9334 41.0013L89.2924 42.1575L87.5433 41.1877ZM76.9815 27.6307L75.4038 28.8599L74.1005 27.187L75.8467 25.9838L76.9815 27.6307ZM77.8724 27.0168L76.7377 25.3699L78.1204 24.4172L79.2981 25.6141L77.8724 27.0168ZM89.8168 39.1563L90.583 41.0037L89.3371 41.5204L88.3911 40.559L89.8168 39.1563ZM96.0873 44.4528L94.6202 45.8121L93.9029 45.038L94.1372 44.0089L96.0873 44.4528ZM127.489 78.3505L128.957 76.9916L130.739 78.9157L128.412 80.1251L127.489 78.3505ZM123.974 80.1731L123.018 78.4164L123.036 78.4066L123.055 78.3972L123.974 80.1731ZM123.974 80.1732L124.93 81.9299L124.913 81.9396L124.894 81.949L123.974 80.1732ZM123.968 80.1764L124.888 81.9522L124.888 81.9523L123.968 80.1764ZM120.459 81.9958L121.382 83.7705L119.949 84.5152L118.919 83.2713L120.459 81.9958ZM120.435 81.9659L121.975 80.6904L121.975 80.6905L120.435 81.9659ZM120.248 81.7407L118.708 83.0162L118.708 83.0162L120.248 81.7407ZM92.302 47.986L91.9938 46.0099L93.1174 45.8347L93.8426 46.7106L92.302 47.986ZM85.9655 42.4168L75.4038 28.8599L78.5592 26.4016L89.121 39.9585L85.9655 42.4168ZM75.8467 25.9838L76.7377 25.3699L79.0072 28.6638L78.1162 29.2777L75.8467 25.9838ZM79.2981 25.6141L91.2424 37.7536L88.3911 40.559L76.4468 28.4196L79.2981 25.6141ZM91.5846 40.8058C91.2259 40.8058 90.8889 40.8769 90.583 41.0037L89.0506 37.3089C89.8337 36.9841 90.6909 36.8058 91.5846 36.8058V40.8058ZM94.2024 43.4236C94.2024 41.9779 93.0304 40.8058 91.5846 40.8058V36.8058C95.2395 36.8058 98.2024 39.7687 98.2024 43.4236H94.2024ZM94.1372 44.0089C94.1796 43.8226 94.2024 43.627 94.2024 43.4236H98.2024C98.2024 43.9278 98.1457 44.4211 98.0374 44.8967L94.1372 44.0089ZM126.022 79.7094C115.558 68.4104 105.089 57.1114 94.6202 45.8121L97.5544 43.0935C108.024 54.3927 118.493 65.6921 128.957 76.9916L126.022 79.7094ZM123.055 78.3972C124.227 77.79 125.398 77.1836 126.567 76.5759L128.412 80.1251C127.24 80.7343 126.066 81.3421 124.894 81.949L123.055 78.3972ZM123.018 78.4165L123.018 78.4164L124.93 81.9298L124.93 81.9299L123.018 78.4165ZM123.048 78.4006L123.054 78.3974L124.894 81.949L124.888 81.9522L123.048 78.4006ZM119.537 80.2212C120.707 79.6131 121.878 79.0064 123.048 78.4005L124.888 81.9523C123.718 82.5585 122.549 83.1639 121.382 83.7705L119.537 80.2212ZM121.975 80.6905L122 80.7204L118.919 83.2713L118.894 83.2414L121.975 80.6905ZM121.789 80.4653L121.975 80.6904L118.894 83.2414L118.708 83.0162L121.789 80.4653ZM93.8426 46.7106C103.155 57.9592 112.472 69.2122 121.789 80.4653L118.708 83.0162C109.391 71.7631 100.074 60.5101 90.7615 49.2614L93.8426 46.7106ZM91.5846 46.0414C91.725 46.0414 91.8616 46.0306 91.9938 46.0099L92.6103 49.9621C92.2749 50.0145 91.9322 50.0414 91.5846 50.0414V46.0414ZM88.9668 43.4236C88.9668 44.8694 90.1388 46.0414 91.5846 46.0414V50.0414C87.9297 50.0414 84.9668 47.0785 84.9668 43.4236H88.9668ZM89.2924 42.1575C89.0854 42.5308 88.9668 42.9604 88.9668 43.4236H84.9668C84.9668 42.2646 85.2665 41.1695 85.7941 40.2178L89.2924 42.1575Z" fill="#432918" mask="url(#path-59-inside-1)"/>
<path d="M89.1942 40.2944L76.976 27.2831L87.8958 41.3049L89.1942 40.2944Z" fill="#936037"/>
<path d="M118.444 76.6338L93.6273 47.2102L92.4212 47.9599L117.292 77.704L118.444 76.6338Z" fill="#936037"/>
<path d="M124.224 87.2765C120.243 87.2765 117.015 84.0488 117.015 80.0673C117.015 76.0857 120.243 72.8581 124.224 72.8581C128.206 72.8581 131.434 76.0857 131.434 80.0673C131.434 84.0488 128.206 87.2765 124.224 87.2765Z" fill="#683C11"/>
<path d="M126.376 18.2159C126.137 18.1833 124.615 21.4809 126.647 23.5291C127.984 24.8764 130.32 25.1371 131.955 23.8659C130.537 24.018 128.782 23.9528 127.647 22.85C125.974 21.2202 126.598 18.2485 126.376 18.2159Z" fill="#936037"/>
<mask id="path-65-inside-2" fill="white">
<path fill-rule="evenodd" clip-rule="evenodd" d="M127.03 16.8989L123 0.190145L124.065 0L129.937 15.9853C132.42 16.0627 134.409 18.0995 134.409 20.6008C134.409 21.6506 134.058 22.6186 133.468 23.3942C135.779 30.3168 138.09 37.2405 140.401 44.1641L140.439 44.2793L140.447 44.3033C142.998 51.9459 145.548 59.5885 148.099 67.2298C145.464 67.371 142.824 67.5123 140.189 67.6481C138.122 60.0735 136.055 52.5002 133.989 44.927C132.182 38.3032 130.375 31.6794 128.567 25.0546C126.611 24.5182 125.173 22.7274 125.173 20.6008C125.173 19.0856 125.903 17.7409 127.03 16.8989Z"/>
</mask>
<path d="M127.03 16.8989L128.002 16.6644L128.157 17.3054L127.629 17.7L127.03 16.8989ZM123 0.190145L122.028 0.424615L121.779 -0.607621L122.824 -0.794283L123 0.190145ZM124.065 0L123.889 -0.984427L124.714 -1.13181L125.003 -0.344839L124.065 0ZM129.937 15.9853L129.906 16.9848L129.232 16.9638L128.999 16.3301L129.937 15.9853ZM133.468 23.3942L132.52 23.7108L132.352 23.2094L132.672 22.7887L133.468 23.3942ZM140.401 44.1641L141.349 43.8476L141.349 43.8476L140.401 44.1641ZM140.439 44.2793L141.388 43.9627L141.388 43.9628L140.439 44.2793ZM140.447 44.3033L139.498 44.6199L139.498 44.6198L140.447 44.3033ZM148.099 67.2298L149.048 66.9131L149.463 68.1581L148.153 68.2283L148.099 67.2298ZM140.189 67.6481L140.241 68.6468L139.436 68.6882L139.224 67.9114L140.189 67.6481ZM133.989 44.927L133.024 45.1902L133.024 45.1902L133.989 44.927ZM128.567 25.0546L128.831 24.0902L129.381 24.2411L129.532 24.7914L128.567 25.0546ZM126.058 17.1333L122.028 0.424615L123.972 -0.0443259L128.002 16.6644L126.058 17.1333ZM122.824 -0.794283L123.889 -0.984427L124.241 0.984427L123.176 1.17457L122.824 -0.794283ZM125.003 -0.344839L130.876 15.6405L128.999 16.3301L123.126 0.344839L125.003 -0.344839ZM129.969 14.9858C132.989 15.0799 135.409 17.5576 135.409 20.6008H133.409C133.409 18.6413 131.851 17.0454 129.906 16.9848L129.969 14.9858ZM135.409 20.6008C135.409 21.8768 134.982 23.056 134.264 23.9997L132.672 22.7887C133.135 22.1811 133.409 21.4244 133.409 20.6008H135.409ZM134.417 23.0776C136.728 30.0003 139.038 36.9239 141.349 43.8476L139.452 44.4807C137.141 37.5571 134.831 30.6334 132.52 23.7108L134.417 23.0776ZM141.349 43.8476L141.388 43.9627L139.49 44.5959L139.452 44.4807L141.349 43.8476ZM141.388 43.9628L141.396 43.9868L139.498 44.6198L139.49 44.5958L141.388 43.9628ZM141.396 43.9867C143.946 51.6293 146.497 59.2719 149.048 66.9131L147.151 67.5464C144.6 59.9051 142.049 52.2625 139.498 44.6199L141.396 43.9867ZM148.153 68.2283C145.518 68.3696 142.877 68.5109 140.241 68.6468L140.138 66.6494C142.771 66.5136 145.411 66.3725 148.046 66.2312L148.153 68.2283ZM139.224 67.9114C137.157 60.3367 135.091 52.7634 133.024 45.1902L134.954 44.6638C137.02 52.237 139.086 59.8102 141.154 67.3848L139.224 67.9114ZM133.024 45.1902C131.217 38.5664 129.41 31.9426 127.602 25.3179L129.532 24.7914C131.34 31.4161 133.147 38.04 134.954 44.6638L133.024 45.1902ZM128.302 26.019C125.923 25.3666 124.173 23.1893 124.173 20.6008H126.173C126.173 22.2655 127.298 23.6699 128.831 24.0902L128.302 26.019ZM124.173 20.6008C124.173 18.7569 125.063 17.1204 126.432 16.0977L127.629 17.7C126.743 18.3614 126.173 19.4144 126.173 20.6008H124.173Z" fill="#432918" mask="url(#path-65-inside-2)"/>
<path d="M87.4068 42.3099C87.1786 42.3751 87.108 46.0042 89.7863 47.0635C91.552 47.7589 93.7957 47.0635 94.7844 45.2436C93.5458 45.9553 91.9105 46.5963 90.4328 46.0422C88.2435 45.2219 87.6187 42.2502 87.4068 42.3099Z" fill="#936037"/>
<mask id="path-68-inside-3" fill="white">
<path fill-rule="evenodd" clip-rule="evenodd" d="M87.5433 41.1876L76.9815 27.6307L77.8724 27.0168L89.8168 39.1563C90.3613 38.9305 90.9584 38.8058 91.5846 38.8058C94.1349 38.8058 96.2024 40.8733 96.2024 43.4236C96.2024 43.7774 96.1626 44.1218 96.0873 44.4528C106.556 55.752 117.025 67.0513 127.489 78.3505C126.319 78.9589 125.147 79.566 123.974 80.1731L123.974 80.1732L123.968 80.1764C122.798 80.7824 121.628 81.3885 120.459 81.9958L120.435 81.9659L120.248 81.7407C110.931 70.4877 101.614 59.2346 92.302 47.986C92.0682 48.0225 91.8286 48.0414 91.5846 48.0414C89.0342 48.0414 86.9668 45.974 86.9668 43.4236C86.9668 42.6124 87.1759 41.8501 87.5433 41.1876Z"/>
</mask>
<path d="M87.5433 41.1876L88.3321 40.5731L88.7383 41.0945L88.4178 41.6726L87.5433 41.1876ZM76.9815 27.6307L76.1926 28.2453L75.541 27.4089L76.4141 26.8073L76.9815 27.6307ZM77.8724 27.0168L77.3051 26.1934L77.9964 25.717L78.5853 26.3155L77.8724 27.0168ZM89.8168 39.1563L90.1999 40.08L89.5769 40.3384L89.1039 39.8577L89.8168 39.1563ZM96.0873 44.4528L95.3537 45.1324L94.9951 44.7454L95.1122 44.2309L96.0873 44.4528ZM127.489 78.3505L128.223 77.671L129.114 78.6331L127.951 79.2378L127.489 78.3505ZM123.974 80.1731L123.496 79.2948L123.505 79.2899L123.515 79.2852L123.974 80.1731ZM123.974 80.1732L124.452 81.0515L124.443 81.0564L124.434 81.0611L123.974 80.1732ZM123.968 80.1764L124.428 81.0643L124.428 81.0644L123.968 80.1764ZM120.459 81.9958L120.921 82.8831L120.204 83.2555L119.689 82.6335L120.459 81.9958ZM120.435 81.9659L121.205 81.3282L121.205 81.3282L120.435 81.9659ZM120.248 81.7407L119.478 82.3785L119.478 82.3785L120.248 81.7407ZM92.302 47.986L92.1479 46.998L92.7097 46.9103L93.0723 47.3483L92.302 47.986ZM86.7544 41.8022L76.1926 28.2453L77.7703 27.0162L88.3321 40.5731L86.7544 41.8022ZM76.4141 26.8073L77.3051 26.1934L78.4398 27.8403L77.5488 28.4542L76.4141 26.8073ZM78.5853 26.3155L90.5296 38.4549L89.1039 39.8577L77.1596 27.7182L78.5853 26.3155ZM91.5846 39.8058C91.0921 39.8058 90.6251 39.9037 90.1999 40.08L89.4337 38.2326C90.0975 37.9573 90.8246 37.8058 91.5846 37.8058V39.8058ZM95.2024 43.4236C95.2024 41.4256 93.5826 39.8058 91.5846 39.8058V37.8058C94.6872 37.8058 97.2024 40.321 97.2024 43.4236H95.2024ZM95.1122 44.2309C95.1711 43.9722 95.2024 43.7022 95.2024 43.4236H97.2024C97.2024 43.8526 97.1541 44.2715 97.0623 44.6747L95.1122 44.2309ZM126.756 79.03C116.292 67.7308 105.823 56.4317 95.3537 45.1324L96.8208 43.7731C107.29 55.0724 117.759 66.3717 128.223 77.671L126.756 79.03ZM123.515 79.2852C124.687 78.678 125.858 78.0712 127.028 77.4632L127.951 79.2378C126.779 79.8466 125.606 80.454 124.434 81.0611L123.515 79.2852ZM123.496 79.2948L123.496 79.2948L124.452 81.0515L124.452 81.0515L123.496 79.2948ZM123.508 79.2885L123.514 79.2853L124.434 81.0611L124.428 81.0643L123.508 79.2885ZM119.998 81.1085C121.168 80.5008 122.338 79.8944 123.508 79.2885L124.428 81.0644C123.258 81.6704 122.089 82.2761 120.921 82.8831L119.998 81.1085ZM121.205 81.3282L121.23 81.3581L119.689 82.6335L119.664 82.6036L121.205 81.3282ZM121.018 81.103L121.205 81.3282L119.664 82.6036L119.478 82.3785L121.018 81.103ZM93.0723 47.3483C102.385 58.5969 111.702 69.8499 121.018 81.103L119.478 82.3785C110.161 71.1254 100.844 59.8724 91.5317 48.6237L93.0723 47.3483ZM91.5846 47.0414C91.7768 47.0414 91.9649 47.0265 92.1479 46.998L92.4562 48.9741C92.1715 49.0185 91.8804 49.0414 91.5846 49.0414V47.0414ZM87.9668 43.4236C87.9668 45.4217 89.5865 47.0414 91.5846 47.0414V49.0414C88.482 49.0414 85.9668 46.5262 85.9668 43.4236H87.9668ZM88.4178 41.6726C88.1307 42.1905 87.9668 42.7864 87.9668 43.4236H85.9668C85.9668 42.4385 86.2212 41.5098 86.6687 40.7027L88.4178 41.6726Z" fill="#432918" mask="url(#path-68-inside-3)"/>
<path d="M218.786 115.814C218.998 115.804 204.829 130.608 198.381 132.716C198.381 132.716 206.394 116.45 218.786 115.814Z" fill="#432918" stroke="#29235C" stroke-width="0.543271" stroke-miterlimit="10"/>
<path d="M223.925 109.219C223.925 109.219 219.943 102.7 217.406 103.422C217.406 103.422 200.63 59.9608 163.72 59.9608C137.953 59.9608 115.271 71.9128 106.215 101.249C97.1586 130.586 112.012 155.576 134.101 161.009C156.19 166.442 189.113 144.146 191.383 141.571H193.328C193.328 141.571 197.539 128.962 205.307 121.834C213.082 114.712 218.585 114.712 218.585 114.712L223.925 109.219Z" fill="#E6332A"/>
<path opacity="0.25" d="M125.974 81.0941C124.838 80.5942 122.122 76.2481 122.23 75.2919C137.312 62.487 153.409 61.3842 153.409 61.3842C153.409 61.3842 147.27 67.3765 149.019 75.0366C150.307 75.0366 154.061 75.4766 156.598 76.2046C159.135 76.9272 164.062 78.9644 164.062 78.9644C164.062 78.9644 163.927 67.094 171.087 61.6287C180.54 64.0516 192.388 67.5883 198.386 75.444C194.339 77.704 185.076 78.3342 180.871 93.3231C174.173 83.4084 164.894 79.1003 164.894 79.1003C164.894 79.1003 150.714 85.098 150.003 96.159C149.921 95.9797 139.104 81.7405 127.555 89.9005C124.203 90.1938 121.883 84.9241 121.752 84.7448C122.138 84.3917 126.001 81.1049 125.974 81.0941Z" fill="#F9B233"/>
<path opacity="0.52" d="M182.827 96.9087L205.671 82.8271L214.766 97.7507L187.048 111.93C187.048 111.93 184.804 100.603 182.827 96.9087Z" fill="#2A4B9B"/>
<path opacity="0.52" d="M150.051 109.817L179.904 92.5842L185.695 108.187L111.963 145.906L106.079 134.682C106.079 134.682 120.503 125.18 126.359 121.845C143.462 125.186 151.165 112.044 150.051 109.817Z" fill="#2A4B9B"/>
<path opacity="0.52" d="M186.999 121.725L219.938 103.797C219.987 103.873 223.876 110.262 223.925 110.338C224.001 110.463 218.531 115.146 218.607 115.277C202.808 118.944 196.827 134.557 196.827 134.557C196.827 134.557 185.88 139.941 180.404 142.63C181.773 140.191 183.039 137.089 184.44 133.563C186.342 128.799 187.988 123.572 186.999 121.725Z" fill="#2A4B9B"/>
<path opacity="0.52" d="M187.048 119.248L185.701 130.2L183.267 137.866L134.644 162.215L120.818 154.968L187.048 119.248Z" fill="#2A4B9B"/>
<path opacity="0.52" d="M197.224 74.5313C196.132 74.5694 174.031 86.3638 174.031 86.3638L169.022 81.3168L161.33 77.2422L181.621 63.7963L190.335 68.6205L197.224 74.5313Z" fill="#2A4B9B"/>
<path opacity="0.52" d="M172.722 84.5329C171.63 84.571 149.829 96.0014 149.829 96.0014L145.629 90.4111L136.828 87.2439L155.185 75.08L164.72 78.9481L172.722 84.5329Z" fill="#2A4B9B"/>
<path opacity="0.52" d="M147.781 92.9102C146.689 92.9482 126.099 103.77 126.099 103.77L123.415 101L122.904 98.4244L125.517 90.7751L133.199 86.505L139.784 87.3199L147.781 92.9102Z" fill="#2A4B9B"/>
<path opacity="0.52" d="M124.04 101.695C122.948 101.733 104.02 111.724 104.02 111.724L105.09 106.046L106.644 100.549L109.453 95.2952L129.201 86.505L125.517 90.7751L123.958 94.7519L122.91 98.4244L124.04 101.695Z" fill="#2A4B9B"/>
<path opacity="0.52" d="M166.692 60.6236C165.6 60.6616 113.457 85.0817 113.457 85.0817L121.861 75.042L132.085 68.224L139.577 64.8611L149.231 62.0252L166.692 60.6236Z" fill="#2A4B9B"/>
<path opacity="0.5" d="M150.673 107L124.673 120.934C124.673 120.94 146.297 127.722 150.673 107Z" fill="#2B4B9A"/>
<path opacity="0.25" d="M109.909 92.9645C109.909 92.9645 113.201 94.665 113.717 96.0231C109.621 105.025 114.684 113.478 114.684 113.478C114.684 113.478 115.402 104.726 122.774 101.505C123.056 101.38 123.301 101.211 123.589 101.152C122.91 98.7069 123.17 97.0336 124.132 94.904C124.876 93.0623 130.983 91.0902 133.656 92.97C133.873 93.1221 134.079 93.3014 134.275 93.5024C134.394 93.6979 134.552 93.8881 134.753 94.0674C135.372 94.8986 136.442 96.6914 136.682 97.7399C136.779 98.8156 136.247 101.559 136.013 101.76C139.365 104.053 141.663 106.78 143.836 110.241C146.21 114.022 146.727 117.803 146.727 117.803C148.047 116.885 150.013 113.147 150.486 111.468C150.964 109.773 151.143 108.024 151.431 106.291C154.908 106.226 158.38 105.416 161.916 105.65C165.431 105.884 168.952 106.508 172.26 107.731C177.036 109.491 184.663 114.733 187.76 118.699C188.048 117.863 187.13 112.348 187.054 111.468C186.543 105.498 184.419 103.564 184.891 102.738C187.939 97.3705 195.165 90.5198 209.98 89.6234C210.382 90.2373 217.721 102.553 218.264 104.346C202.444 110.697 199.69 115.179 195.143 124.143C191.845 130.635 190.357 137.301 191.307 141.729C183.495 148.384 172.483 153.05 166.078 156.668C148.487 141.25 145.667 120.106 144.76 119.351C144.564 119.514 142.071 120.965 141.517 121.187C132.938 140.099 148.764 161.965 148.764 161.965C148.764 161.965 128.598 165.768 115.423 149.872C115.521 149.269 113.788 133.579 126.066 122.611C124.523 122.546 120.09 120.199 119.09 119.08C111.419 123.393 106.731 133.645 106.275 134.834C106.215 134.715 98.8644 114.299 109.909 92.9645Z" fill="#F39200"/>
<g opacity="0.43">
<path opacity="0.43" d="M190.503 101.532C190.536 98.7178 190.09 95.8928 189.346 93.1438C188.591 90.3949 187.499 87.7165 186.125 85.1795C183.365 80.1216 179.415 75.5418 174.341 72.3474C169.278 69.1638 163.416 67.5938 157.668 67.3167C151.909 67.056 146.151 67.9904 140.99 70.2287C146.591 70.0114 152.018 70.1906 157.239 71.1468C162.449 72.0921 167.431 73.7925 171.75 76.4871C176.052 79.1818 179.774 82.9412 182.887 87.2113C186.021 91.4868 188.526 96.2894 190.503 101.532Z" fill="white"/>
</g>
<g opacity="0.5">
<path opacity="0.5" d="M157.771 97.3867C158.206 96.0394 158.266 94.6106 158.152 93.1981C158.032 91.7802 157.668 90.3731 157.103 89.0258C155.978 86.3257 153.919 83.9136 151.372 82.3273C150.72 81.9578 150.073 81.583 149.389 81.2896C149.046 81.1375 148.71 80.9963 148.356 80.8822C148.009 80.7627 147.666 80.6323 147.313 80.5345C146.602 80.3715 145.901 80.1596 145.184 80.089C144.825 80.0455 144.472 79.9803 144.119 79.9532L143.054 79.9043C140.218 79.8391 137.458 80.3769 134.954 81.6319C135.628 81.8546 136.285 82.0339 136.931 82.1806C137.578 82.3653 138.214 82.5228 138.838 82.675C139.463 82.8597 140.077 83.0064 140.68 83.1693C141.278 83.3649 141.881 83.4899 142.451 83.7018C143.614 84.0549 144.716 84.4732 145.781 84.9187C146.292 85.174 146.835 85.3696 147.319 85.6575C147.829 85.8966 148.302 86.1954 148.78 86.4724C150.654 87.6513 152.311 89.1127 153.778 90.9381C155.272 92.7689 156.538 94.8986 157.771 97.3867Z" fill="white"/>
</g>
<g opacity="0.25">
<path opacity="0.25" d="M161.52 127.267C156.902 128.712 152.409 130.037 147.9 131.053C145.645 131.558 143.396 131.988 141.153 132.297C138.909 132.612 136.671 132.819 134.449 132.824C133.889 132.857 133.34 132.824 132.786 132.813L131.955 132.792C131.678 132.781 131.406 132.743 131.135 132.727C130.591 132.678 130.032 132.678 129.494 132.585L127.864 132.368C125.702 132.009 123.6 131.412 121.551 130.608C119.482 129.831 117.553 128.69 115.662 127.413L114.25 126.414C113.804 126.044 113.364 125.669 112.903 125.3L112.213 124.74L111.566 124.132C111.121 123.735 110.686 123.322 110.213 122.92C112.039 127.397 115.396 131.45 119.829 134.047C122.029 135.345 124.447 136.301 126.935 136.91C128.185 137.176 129.445 137.415 130.711 137.534C131.026 137.567 131.347 137.605 131.662 137.627L132.612 137.665C133.243 137.687 133.878 137.73 134.508 137.703C135.139 137.676 135.769 137.676 136.399 137.627L138.273 137.464C139.512 137.285 140.751 137.122 141.962 136.845C144.391 136.323 146.759 135.606 149.035 134.704C151.317 133.802 153.517 132.737 155.614 131.51C157.701 130.276 159.727 128.918 161.52 127.267Z" fill="white"/>
</g>
<g opacity="0.25">
<path opacity="0.25" d="M172.929 141.555C168.935 144.249 164.975 146.683 160.89 148.742C156.821 150.807 152.621 152.447 148.324 153.398C146.178 153.892 144.005 154.191 141.821 154.262C139.637 154.338 137.431 154.273 135.242 153.914C130.83 153.295 126.517 151.687 122.089 149.747C123.708 151.529 125.539 153.181 127.625 154.49C129.673 155.864 131.971 156.897 134.367 157.663C134.97 157.836 135.579 158.021 136.187 158.184L138.051 158.543C138.67 158.684 139.306 158.717 139.936 158.787L140.886 158.88C141.202 158.901 141.522 158.901 141.837 158.912C142.473 158.923 143.108 158.956 143.744 158.912L145.645 158.798C146.9 158.635 148.161 158.467 149.389 158.184C154.327 157.087 158.901 154.886 162.889 152.029C164.883 150.595 166.746 149.008 168.441 147.27C170.12 145.504 171.695 143.646 172.929 141.555Z" fill="white"/>
</g>
<g opacity="0.55">
<path opacity="0.55" d="M223.382 110.289C222.991 109.844 222.741 109.333 222.48 108.812C222.214 108.296 221.959 107.763 221.66 107.231C221.356 106.704 221.003 106.182 220.557 105.693C220.106 105.21 219.552 104.764 218.889 104.466C217.547 103.83 215.966 103.911 214.695 104.286C213.38 104.645 212.25 105.259 211.18 105.916C210.632 106.248 210.17 106.595 209.681 106.937C209.197 107.274 208.708 107.622 208.241 107.986C207.296 108.703 206.356 109.437 205.454 110.219C203.64 111.767 201.917 113.435 200.32 115.233C197.137 118.819 194.447 122.975 192.845 127.565C191.237 132.14 190.78 137.132 191.829 141.734C192.312 137.056 193.551 132.678 195.545 128.69C197.512 124.692 200.152 121.084 203.151 117.754C204.65 116.092 206.242 114.494 207.893 112.957C208.725 112.196 209.556 111.419 210.425 110.686C210.854 110.311 211.278 109.936 211.718 109.572L213 108.502C214.657 107.182 216.493 106.014 218.199 106.362C219.069 106.525 219.938 107.155 220.742 107.943C221.155 108.328 221.551 108.757 221.97 109.181C222.399 109.594 222.839 110.034 223.382 110.289Z" fill="white"/>
</g>
<g opacity="0.68">
<path opacity="0.68" d="M217.325 105.134C214.119 96.8706 209.746 88.8465 204.031 81.8112C201.179 78.2908 197.957 75.0311 194.35 72.217C190.748 69.4137 186.82 66.9962 182.659 65.0947C178.492 63.1987 174.053 61.884 169.522 61.2864C167.257 60.9822 164.975 60.8572 162.704 60.9061C160.45 60.9659 158.2 61.1234 155.962 61.3951C147.004 62.5305 138.447 65.6597 130.662 69.9244L130.83 70.2667C134.867 68.4358 138.996 66.8332 143.233 65.638C147.465 64.4211 151.806 63.6768 156.163 63.34C158.342 63.177 160.526 63.1172 162.71 63.1607C164.872 63.2096 167.023 63.4215 169.147 63.7963C173.39 64.546 177.497 65.9422 181.327 67.898C183.24 68.8813 185.087 69.9842 186.858 71.2011C188.629 72.418 190.313 73.7653 191.948 75.167C195.213 77.9757 198.261 81.0452 201.168 84.2668C204.091 87.4829 206.791 90.9218 209.398 94.4531C210.691 96.2296 211.968 98.0224 213.212 99.8532L215.081 102.602C215.711 103.526 216.298 104.449 217.02 105.362L217.325 105.134Z" fill="white"/>
</g>
<g opacity="0.5">
<path opacity="0.5" d="M160.955 159.461C164.828 157.934 168.566 156.109 172.114 153.746C173.879 152.556 175.574 151.209 177.155 149.682C177.948 148.921 178.687 148.101 179.404 147.254C180.1 146.39 180.779 145.499 181.382 144.564C183.832 140.838 185.326 136.584 186.076 132.341C186.831 128.087 187.026 123.844 187.059 119.661C187.075 117.569 187.016 115.489 186.929 113.419C186.831 111.36 186.738 109.263 186.423 107.117C186.26 106.046 186.054 104.976 185.761 103.911C185.462 102.863 185.141 101.852 184.761 100.853C184.011 98.8536 183.109 96.9304 182.066 95.0941C181.023 93.2579 179.85 91.5086 178.584 89.8461C177.948 89.0149 177.275 88.2055 176.623 87.4232C175.965 86.6354 175.297 85.8422 174.607 85.0654C173.222 83.5225 171.739 82.0176 170.006 80.7898C168.284 79.5838 166.225 78.6602 164.084 78.6819L164.062 79.2252C166.045 79.399 167.822 80.4095 169.321 81.6862C170.832 82.9629 172.13 84.5004 173.347 86.103C173.955 86.907 174.542 87.7328 175.129 88.564C175.721 89.4061 176.291 90.221 176.829 91.0685C177.905 92.7581 178.872 94.5074 179.703 96.3056C180.54 98.1039 181.257 99.951 181.806 101.836C182.088 102.771 182.316 103.738 182.512 104.672C182.697 105.596 182.811 106.546 182.881 107.508C183.033 109.431 183.017 111.43 182.984 113.462C182.952 115.483 182.887 117.493 182.751 119.492C182.496 123.485 181.898 127.424 180.866 131.162C179.839 134.9 178.524 138.453 176.726 141.729C174.944 145.004 172.505 147.944 169.685 150.731C166.871 153.523 163.704 156.125 160.672 158.983L160.955 159.461Z" fill="#BE1622"/>
</g>
<g opacity="0.25">
<path opacity="0.25" d="M193.752 139.925C192.416 140.088 191.421 140.175 190.748 140.034C190.416 139.963 190.221 139.849 190.128 139.751C190.031 139.642 190.004 139.599 189.9 139.507C189.803 139.42 189.65 139.262 189.487 139.05C189.319 138.827 189.156 138.599 188.966 138.235C188.591 137.529 188.303 136.475 187.64 135.28C186.554 136.079 185.837 137.051 185.554 138.393C185.283 139.746 185.625 141.419 186.907 142.658C187.543 143.277 188.466 143.711 189.368 143.798C190.286 143.896 191.134 143.652 191.775 143.277C193.062 142.505 193.747 141.283 193.752 139.925Z" fill="#BE1622"/>
</g>
<path opacity="0.5" d="M202.287 125.452L207.475 121.448L160.542 60.6779L153.409 61.3788L202.287 125.452Z" fill="#2A4B9B"/>
<path opacity="0.5" d="M163.492 60.6779L209.246 120.22" stroke="#2A4B9B" stroke-width="2.11197" stroke-miterlimit="10"/>
<path opacity="0.5" d="M183.131 138.855L185.902 131.716L141.734 74.5313L134.612 76.0308L183.131 138.855Z" fill="#2A4B9B"/>
<path opacity="0.5" d="M186.836 131.135L186.69 126.935L145.624 74.037L143.239 74.4009L186.836 131.135Z" fill="#2A4B9B"/>
<path opacity="0.5" d="M188.624 143.744L194.268 140.278L186.331 130.684L183.267 137.866L188.624 143.744Z" fill="#2A4B9B"/>
<path opacity="0.5" d="M186.69 126.935L195.518 138.425" stroke="#2A4B9B" stroke-width="2.11197" stroke-miterlimit="10"/>
<path opacity="0.5" d="M136.122 75.5853L143.239 74.401L136.122 66L130.901 69.2725L136.122 75.5853Z" fill="#2A4B9B"/>
<path opacity="0.5" d="M138.673 65L145.673 74" stroke="#2A4B9B" stroke-width="2.11197" stroke-miterlimit="10"/>
<path opacity="0.5" d="M140.664 120.965C141.674 120.389 142.353 119.042 143.364 118.466C144.266 117.95 145.167 117.433 146.069 116.917C142.413 111.968 138.757 107.019 135.101 102.07C133.835 102.602 132.265 103.124 130.423 103.444C129.619 103.58 128.864 103.667 128.158 103.71C129.728 105.878 132.558 109.79 134.128 111.957C135.948 114.462 138.844 118.455 140.664 120.965Z" fill="#2A4B9B"/>
<path opacity="0.5" d="M136.643 100.016L148.297 115.537" stroke="#2A4B9B" stroke-width="2.11197" stroke-miterlimit="10"/>
<path opacity="0.5" d="M128.109 122.383L130.456 121.986L112.821 98.495L112.251 101.26L128.109 122.383Z" fill="#2A4B9B"/>
<path opacity="0.5" d="M129.82 103.732C130.619 103.618 131.738 103.363 132.971 102.781C134.253 102.173 135.182 101.434 135.785 100.875C132.96 96.8163 130.135 92.7581 127.31 88.6998C126.729 89.0856 125.539 89.9874 124.735 91.6063C124.094 92.8993 123.974 94.0836 123.958 94.7573C125.914 97.7453 127.864 100.739 129.82 103.732Z" fill="#2A4B9B"/>
<path opacity="0.5" d="M129.201 87.5916L136.834 97.7996" stroke="#2A4B9B" stroke-width="2.11197" stroke-miterlimit="10"/>
<path opacity="0.5" d="M122.91 97.1694L126.408 90.7317L118.52 79.4479L114.049 84.4949L122.91 97.1694Z" fill="#2A4B9B"/>
<path opacity="0.5" d="M120.416 78.3451L128.049 88.5586" stroke="#2A4B9B" stroke-width="2.11197" stroke-miterlimit="10"/>
<path opacity="0.5" d="M115.031 113.773C113.894 112.38 112.358 110.06 111.934 106.985C111.7 105.32 111.856 103.859 112.105 102.699C109.554 100.368 110.672 101.422 108.121 99.0907L105.564 104.358L115.031 113.773Z" fill="#2A4B9B"/>
<path opacity="0.5" d="M108.673 96L112.673 101" stroke="#2A4B9B" stroke-width="2.11197" stroke-miterlimit="10"/>
<path opacity="0.5" d="M169.832 154.213L175.085 150.285L147.846 113.853L143.581 119.096L169.832 154.213Z" fill="#2A4B9B"/>
<path opacity="0.5" d="M175.987 149.666L177.231 147.813L149.677 110.909L148.438 112.908L175.987 149.666Z" fill="#2A4B9B"/>
<path opacity="0.5" d="M150.361 161.726C152.474 160.901 154.588 160.08 156.701 159.254L128.636 122.154C127.109 121.991 125.001 121.595 122.681 120.568C119.422 119.128 117.254 117.124 116.043 115.809C127.478 131.118 138.92 146.422 150.361 161.726Z" fill="#2A4B9B"/>
<path opacity="0.5" d="M158.749 160.129L160.422 158.842L132.406 122.377L129.255 121.747L158.749 160.129Z" fill="#2A4B9B"/>
<path opacity="0.5" d="M126.673 159C129.173 160 132.673 161.445 136.332 161.445L108.266 124.345C106.673 122.5 105.173 120 103.673 117.5C103.673 121.5 104.173 124.845 104.173 128C115.609 143.309 115.232 143.696 126.673 159Z" fill="#2A4B9B"/>
<path opacity="0.5" d="M138.38 162.32L140.053 161.033L103.673 114V117L138.38 162.32Z" fill="#2A4B9B"/>
<path opacity="0.5" d="M218.373 114.858L223.561 110.854L191.557 69.4083L178.35 63.0357L218.373 114.858Z" fill="#2A4B9B"/>
<path opacity="0.5" d="M112.142 103.797C116.075 109.447 120.818 115.814 125.686 121.644C123.964 120.84 118.971 117.944 116.613 115.293C112.446 110.61 112.332 105.84 112.142 103.797Z" fill="#2A4B9B"/>
<path d="M224.116 109.936C224.116 109.936 220.133 103.417 217.596 104.14C217.596 104.14 200.82 60.6779 163.91 60.6779C138.143 60.6779 115.461 72.6299 106.405 101.967C97.3487 131.303 112.202 156.294 134.291 161.726C156.381 167.159 189.303 144.863 191.574 142.288H193.518C193.518 142.288 197.729 129.679 205.498 122.551C213.272 115.429 218.775 115.429 218.775 115.429L224.116 109.936Z" stroke="#29235C" stroke-width="1.62981" stroke-miterlimit="10" stroke-linecap="round" stroke-linejoin="round"/>
<path d="M134.204 93.008C135.198 94.214 136.04 95.5939 136.437 97.0825C136.638 97.8213 136.687 98.6036 136.502 99.3262C136.334 100.054 135.899 100.684 135.334 101.168C134.769 101.657 134.09 102.026 133.373 102.292C133.025 102.45 132.645 102.537 132.281 102.662C131.906 102.754 131.531 102.852 131.151 102.928C129.624 103.2 128.049 103.46 126.615 103.145C125.908 102.966 125.256 102.64 124.768 102.146C124.273 101.651 123.947 101.005 123.768 100.304C123.583 99.6033 123.54 98.8536 123.6 98.1038C123.659 97.3541 123.779 96.6044 123.991 95.8764C124.398 94.415 125.039 92.9971 125.876 91.7313C126.707 90.46 127.718 89.2974 128.929 88.4554C129.527 88.0262 130.189 87.7111 130.868 87.5209C131.542 87.3199 132.292 87.2764 133.047 87.2764C134.563 87.2819 136.1 87.5101 137.589 87.8686C140.577 88.5912 143.456 89.8787 145.808 91.791C146.982 92.7526 148.003 93.8772 148.813 95.1321C149.628 96.3871 150.176 97.7996 150.481 99.2664C150.785 100.739 150.828 102.254 150.692 103.776L150.415 106.084L149.964 108.361C149.264 111.36 147.987 114.239 145.977 116.542C145.51 117.151 144.912 117.629 144.358 118.151C144.086 118.422 143.749 118.607 143.445 118.84C143.125 119.052 142.842 119.313 142.494 119.482C141.821 119.84 141.169 120.258 140.441 120.514C140.082 120.655 139.735 120.818 139.371 120.948L138.257 121.28C135.28 122.133 132.102 122.296 128.978 122.078C125.887 121.839 122.893 120.612 120.367 118.792C117.846 116.966 115.717 114.549 114.337 111.74C112.979 108.931 112.278 105.791 112.446 102.673C112.457 102.282 112.473 101.896 112.528 101.505C112.577 101.119 112.609 100.728 112.669 100.342C112.816 99.5761 112.946 98.8047 113.174 98.0549C113.359 97.2944 113.647 96.5664 113.908 95.833C114.038 95.4635 114.217 95.1158 114.369 94.7573C114.532 94.4042 114.668 94.0347 114.864 93.6925C116.265 90.8946 118.118 88.3358 120.215 86.0161C122.312 83.6963 124.713 81.6645 127.364 80.0347C130.016 78.4048 132.889 77.1499 135.888 76.3295C141.891 74.6834 148.28 74.6834 154.349 76.009C160.422 77.3346 166.197 80.0455 171.049 83.8919C173.466 85.8205 175.667 88.0262 177.519 90.4926C179.372 92.9536 180.795 95.7297 182.028 98.5873C184.484 104.308 185.913 110.48 186.331 116.7C186.738 122.92 186.054 129.244 183.984 135.128C182.946 138.067 181.588 140.892 179.888 143.51C178.193 146.129 176.128 148.514 173.819 150.627C171.5 152.735 168.946 154.582 166.219 156.163C163.47 157.706 160.569 158.961 157.603 160.048C157.559 160.064 157.538 160.107 157.554 160.151C157.57 160.194 157.614 160.216 157.657 160.205C160.683 159.254 163.649 158.092 166.48 156.625C169.289 155.12 171.961 153.344 174.374 151.247C176.791 149.15 178.964 146.759 180.779 144.108C182.593 141.462 184.082 138.583 185.19 135.562C187.418 129.521 188.227 123.018 187.906 116.608C187.586 110.192 186.114 103.841 183.636 97.9083C183.022 96.4197 182.305 94.9746 181.539 93.5567C181.165 92.845 180.714 92.1605 180.306 91.4596C179.861 90.7806 179.388 90.1178 178.921 89.455C176.97 86.8581 174.662 84.5438 172.108 82.5554C167.001 78.5841 160.993 75.8297 154.68 74.5096C148.384 73.1731 141.739 73.2764 135.541 75.0855C129.326 76.8511 123.719 80.5562 119.552 85.4239C117.455 87.836 115.619 90.4926 114.239 93.3882C114.049 93.7414 113.913 94.1217 113.755 94.4857C113.609 94.8605 113.435 95.2191 113.305 95.5994C113.055 96.3599 112.772 97.1151 112.598 97.8974C112.37 98.6688 112.245 99.462 112.098 100.25C112.039 100.646 112.006 101.048 111.963 101.445C111.908 101.842 111.897 102.244 111.887 102.646C111.74 105.856 112.484 109.089 113.902 111.957C115.347 114.82 117.461 117.341 120.052 119.243C122.633 121.144 125.707 122.431 128.934 122.741C132.113 123.04 135.361 122.964 138.507 122.154L139.68 121.834C140.066 121.704 140.441 121.546 140.821 121.405C141.598 121.149 142.299 120.731 143.027 120.362C143.396 120.188 143.711 119.922 144.059 119.704C144.39 119.465 144.754 119.27 145.053 118.987C145.662 118.444 146.319 117.939 146.835 117.298C149.052 114.869 150.502 111.821 151.29 108.681L151.795 106.307L152.116 103.906C152.29 102.282 152.246 100.597 151.915 98.9676C151.583 97.3378 150.964 95.746 150.062 94.3444C149.166 92.9319 148.009 91.7095 146.727 90.6719C145.444 89.6288 144.01 88.803 142.533 88.1185C141.049 87.434 139.496 86.9179 137.915 86.5539C136.328 86.1845 134.709 85.9617 133.058 85.9672C132.232 85.978 131.385 86.0269 130.537 86.2823C129.695 86.5267 128.913 86.9179 128.228 87.4177C126.848 88.4065 125.751 89.6831 124.887 91.0793C124.452 91.7747 124.072 92.5081 123.752 93.2633C123.42 94.013 123.165 94.7953 122.964 95.5939C122.752 96.3871 122.638 97.2129 122.594 98.0441C122.551 98.8753 122.616 99.7228 122.85 100.549C123.078 101.369 123.502 102.178 124.143 102.787C124.778 103.406 125.604 103.786 126.441 103.971C127.277 104.134 128.12 104.14 128.934 104.047C129.744 103.955 130.526 103.814 131.314 103.634C131.705 103.542 132.096 103.428 132.482 103.314C132.862 103.173 133.253 103.064 133.623 102.885C134.373 102.57 135.101 102.151 135.709 101.575C136.323 101.01 136.801 100.255 136.959 99.4294C137.138 98.6036 137.045 97.7561 136.801 96.9793C136.573 96.197 136.203 95.4744 135.774 94.7953C135.345 94.1162 134.862 93.4806 134.318 92.8939C134.286 92.8613 134.237 92.8613 134.204 92.8884C134.177 92.9265 134.172 92.9754 134.204 93.008Z" fill="#29235C"/>
<path fill-rule="evenodd" clip-rule="evenodd" d="M170.35 28.3342L172.309 16.6295L173.037 16.7979L172.447 28.5407C173.537 29.0477 174.292 30.1524 174.292 31.4336C174.292 32.62 173.644 33.655 172.683 34.2043C172.259 39.4898 171.833 44.7753 171.408 50.0601L171.408 50.0613C171.149 53.2789 170.89 56.4962 170.631 59.7132C171.62 60.6236 172.239 61.9285 172.239 63.378C172.239 66.1293 170.008 68.3598 167.257 68.3598C164.505 68.3598 162.275 66.1293 162.275 63.378C162.275 61.1561 163.73 59.274 165.738 58.6318C166.174 55.4435 166.61 52.255 167.047 49.0663L167.048 49.0578L167.048 49.0566L167.049 49.0479C167.739 44.0088 168.428 38.9691 169.116 33.9284C168.384 33.3441 167.914 32.4437 167.914 31.4336C167.914 29.932 168.952 28.6727 170.35 28.3342Z" fill="#683C11"/>
<path d="M167.012 59.4121L170.131 33.8566L169.213 33.6067L165.964 59.336L167.012 59.4121Z" fill="#936037"/>
<path d="M165.817 59.3632C165.627 59.2002 162.449 61.2429 163.084 64.1657C163.503 66.0943 165.404 67.6263 167.545 67.4253C166.219 66.768 164.714 65.7303 164.339 64.1277C163.785 61.7699 165.996 59.5153 165.817 59.3632Z" fill="#936037"/>
<path d="M170.783 28.7445C170.707 28.6195 168.561 29.1791 168.381 30.9284C168.262 32.0801 169.044 33.2862 170.277 33.5633C169.658 32.9548 169.006 32.0964 169.088 31.1349C169.207 29.7169 170.853 28.8585 170.783 28.7445Z" fill="#936037"/>
<mask id="path-123-inside-4" fill="white">
<path fill-rule="evenodd" clip-rule="evenodd" d="M170.35 28.3342L172.309 16.6295L173.037 16.7979L172.447 28.5407C173.537 29.0477 174.292 30.1524 174.292 31.4336C174.292 32.62 173.644 33.655 172.683 34.2043C172.259 39.4898 171.833 44.7753 171.408 50.0601L171.408 50.0613C171.149 53.2789 170.89 56.4962 170.631 59.7132C171.62 60.6236 172.239 61.9285 172.239 63.378C172.239 66.1293 170.008 68.3598 167.257 68.3598C164.505 68.3598 162.275 66.1293 162.275 63.378C162.275 61.1561 163.73 59.274 165.738 58.6318C166.174 55.4435 166.61 52.255 167.047 49.0663L167.048 49.0578L167.048 49.0566L167.049 49.0479C167.739 44.0088 168.428 38.9691 169.116 33.9284C168.384 33.3441 167.914 32.4437 167.914 31.4336C167.914 29.932 168.952 28.6727 170.35 28.3342Z"/>
</mask>
<path d="M170.35 28.3342L171.336 28.4993L171.227 29.1506L170.585 29.3061L170.35 28.3342ZM172.309 16.6295L171.323 16.4644L171.499 15.4156L172.535 15.6552L172.309 16.6295ZM173.037 16.7979L173.263 15.8237L174.078 16.0123L174.036 16.8482L173.037 16.7979ZM172.447 28.5407L172.025 29.4473L171.414 29.1632L171.448 28.4904L172.447 28.5407ZM172.683 34.2043L171.686 34.1243L171.729 33.598L172.187 33.3361L172.683 34.2043ZM171.408 50.0601L170.411 49.9801L170.411 49.9798L171.408 50.0601ZM171.408 50.0613L172.405 50.1412L172.405 50.1415L171.408 50.0613ZM170.631 59.7132L169.954 60.4487L169.596 60.1186L169.635 59.6331L170.631 59.7132ZM165.738 58.6318L166.729 58.7673L166.644 59.3923L166.043 59.5843L165.738 58.6318ZM167.047 49.0663L166.056 48.9308L166.056 48.9307L167.047 49.0663ZM167.048 49.0578L166.057 48.9222L166.057 48.9213L167.048 49.0578ZM167.048 49.0566L168.039 49.1923L168.039 49.1931L167.048 49.0566ZM167.049 49.0479L168.04 49.1834L168.04 49.1835L167.049 49.0479ZM169.116 33.9284L169.74 33.1465L170.184 33.5007L170.107 34.0637L169.116 33.9284ZM169.363 28.1691L171.323 16.4644L173.295 16.7946L171.336 28.4993L169.363 28.1691ZM172.535 15.6552L173.263 15.8237L172.812 17.7722L172.084 17.6038L172.535 15.6552ZM174.036 16.8482L173.445 28.5909L171.448 28.4904L172.038 16.7477L174.036 16.8482ZM172.869 27.634C174.298 28.2989 175.292 29.7491 175.292 31.4336H173.292C173.292 30.5557 172.775 29.7964 172.025 29.4473L172.869 27.634ZM175.292 31.4336C175.292 32.9932 174.439 34.3524 173.179 35.0725L172.187 33.3361C172.849 32.9575 173.292 32.2467 173.292 31.4336H175.292ZM173.68 34.2843C173.256 39.5699 172.83 44.8555 172.405 50.1403L170.411 49.9798C170.837 44.695 171.262 39.4097 171.686 34.1243L173.68 34.2843ZM172.405 50.14L172.405 50.1412L170.411 49.9813L170.411 49.9801L172.405 50.14ZM172.405 50.1415C172.146 53.3591 171.887 56.5764 171.628 59.7934L169.635 59.6331C169.893 56.416 170.152 53.1986 170.411 49.981L172.405 50.1415ZM171.309 58.9778C172.494 60.0695 173.239 61.6375 173.239 63.378H171.239C171.239 62.2194 170.745 61.1777 169.954 60.4487L171.309 58.9778ZM173.239 63.378C173.239 66.6816 170.56 69.3598 167.257 69.3598V67.3598C169.456 67.3598 171.239 65.5771 171.239 63.378H173.239ZM167.257 69.3598C163.953 69.3598 161.275 66.6816 161.275 63.378H163.275C163.275 65.5771 165.058 67.3598 167.257 67.3598V69.3598ZM161.275 63.378C161.275 60.7086 163.023 58.45 165.434 57.6793L166.043 59.5843C164.436 60.0979 163.275 61.6036 163.275 63.378H161.275ZM164.748 58.4964C165.183 55.3079 165.62 52.1195 166.056 48.9308L168.037 49.2019C167.601 52.3906 167.165 55.579 166.729 58.7673L164.748 58.4964ZM166.056 48.9307L166.057 48.9222L168.039 49.1933L168.037 49.2019L166.056 48.9307ZM166.057 48.9213L166.057 48.9202L168.039 49.1931L168.039 49.1942L166.057 48.9213ZM166.057 48.921L166.058 48.9122L168.04 49.1835L168.039 49.1923L166.057 48.921ZM166.058 48.9123C166.748 43.8732 167.437 38.8337 168.126 33.7931L170.107 34.0637C169.419 39.1046 168.729 44.1443 168.04 49.1834L166.058 48.9123ZM168.493 34.7102C167.533 33.9444 166.914 32.7609 166.914 31.4336H168.914C168.914 32.1265 169.235 32.7438 169.74 33.1465L168.493 34.7102ZM166.914 31.4336C166.914 29.4598 168.278 27.807 170.114 27.3623L170.585 29.3061C169.626 29.5385 168.914 30.4042 168.914 31.4336H166.914Z" fill="#432918" mask="url(#path-123-inside-4)"/>
<path d="M204.042 39.5718L208.703 28.2121L203.037 39.0449L204.042 39.5718Z" fill="#936037"/>
<path d="M189.623 68.2348L200.972 44.3146L200.157 43.7713L188.624 67.8219L189.623 68.2348Z" fill="#936037"/>
<path fill-rule="evenodd" clip-rule="evenodd" d="M208.491 28.3161L203.013 38.7886C202.929 38.782 202.845 38.7787 202.76 38.7787C201.004 38.7787 199.581 40.2016 199.581 41.9568C199.581 42.6048 199.775 43.2076 200.108 43.7101C198.045 47.9587 195.982 52.2063 193.918 56.454C192.059 60.2795 190.2 64.1049 188.342 67.9311C185.971 68.3034 184.158 70.3554 184.158 72.8309C184.158 75.5702 186.379 77.7909 189.118 77.7909C191.857 77.7909 194.078 75.5702 194.078 72.8309C194.078 71.6908 193.693 70.6405 193.047 69.8028C194.55 66.2123 196.053 62.6222 197.556 59.0322L197.561 59.021C199.507 54.371 201.454 49.721 203.402 45.07C204.849 44.7731 205.938 43.4921 205.938 41.9568C205.938 41.0392 205.549 40.2125 204.927 39.6324L209.127 28.7018L208.491 28.3161Z" fill="#683C11"/>
<path d="M264.198 117.542C266.686 121.361 264.193 127.745 262.813 127.723C261.672 127.701 261.324 123.284 260.493 123.344C258.928 123.447 260.411 138.817 257.918 138.55C254.919 138.23 255.582 123.605 253.539 123.605C252.491 123.605 252.235 127.739 251.219 127.728C249.937 127.712 247.884 121.106 250.48 116.874C250.893 116.2 251.621 115.048 252.8 114.94C253.968 114.837 255.207 115.798 255.989 117.357C255.853 116.358 256.598 115.543 257.342 115.521C258.108 115.499 258.923 116.32 258.792 117.357C258.901 117.135 259.705 115.57 261.112 115.423C262.704 115.255 263.872 117.042 264.198 117.542Z" fill="#F9B233"/>
<path d="M254.919 117.477C254.794 117.102 254.642 116.727 254.403 116.39C254.164 116.059 253.805 115.766 253.349 115.679C253.235 115.668 253.126 115.646 253.001 115.662C252.882 115.668 252.762 115.689 252.654 115.733C252.539 115.766 252.436 115.814 252.344 115.874C252.241 115.929 252.148 115.988 252.067 116.064C251.725 116.336 251.447 116.662 251.208 116.999C250.736 117.683 250.377 118.417 250.073 119.183C249.763 119.981 249.622 120.791 249.524 121.611C249.432 122.431 249.421 123.263 249.508 124.094C249.551 124.512 249.617 124.931 249.72 125.354C249.774 125.566 249.839 125.783 249.932 126.006C250.035 126.229 250.122 126.463 250.41 126.745C250.453 126.783 250.497 126.816 250.54 126.848C250.6 126.886 250.66 126.919 250.719 126.946C250.79 126.973 250.877 126.995 250.953 127.011C251.045 127.022 251.176 127.017 251.279 127C251.371 126.973 251.469 126.935 251.545 126.892C251.605 126.854 251.665 126.805 251.719 126.761C251.795 126.685 251.866 126.598 251.909 126.533C252.089 126.256 252.154 126.05 252.235 125.843C252.376 125.43 252.485 125.05 252.594 124.675C252.702 124.3 252.816 123.942 252.947 123.616C253.066 123.295 253.257 122.98 253.354 122.915C253.403 122.882 253.327 122.92 253.322 122.904C253.327 122.915 253.409 122.931 253.501 123.018C253.697 123.181 253.908 123.475 254.088 123.779C254.452 124.387 254.772 125.115 255.022 125.794C255.278 126.479 255.419 127.191 255.5 127.946L255.712 130.293C255.87 131.89 256.13 133.454 256.462 135.019C256.554 135.41 256.652 135.801 256.777 136.187C256.837 136.383 256.907 136.573 256.989 136.768C257.076 136.964 257.157 137.154 257.369 137.35C257.423 137.393 257.505 137.442 257.608 137.453C257.711 137.464 257.804 137.42 257.863 137.377C257.983 137.285 258.037 137.187 258.092 137.089C258.189 136.893 258.255 136.703 258.309 136.508C258.412 136.116 258.483 135.725 258.543 135.334C258.412 135.709 258.271 136.078 258.103 136.432C258.021 136.605 257.934 136.779 257.825 136.926C257.771 136.991 257.711 137.062 257.668 137.078C257.619 137.084 257.668 137.078 257.624 137.045C257.554 136.959 257.483 136.774 257.434 136.6C257.385 136.421 257.342 136.236 257.309 136.046C257.239 135.671 257.19 135.28 257.152 134.894C257.065 134.117 257 133.335 256.945 132.553C256.891 131.77 256.842 130.993 256.82 130.211C256.799 129.429 256.793 128.647 256.739 127.832C256.69 127.017 256.56 126.158 256.293 125.349C256.022 124.539 255.707 123.817 255.278 123.056C255.049 122.681 254.821 122.312 254.419 121.948C254.224 121.774 253.952 121.584 253.577 121.497C253.371 121.47 253.164 121.459 252.952 121.524C252.751 121.584 252.572 121.687 252.442 121.796C251.936 122.252 251.795 122.687 251.621 123.089C251.464 123.496 251.35 123.893 251.241 124.279C251.132 124.664 251.035 125.045 250.92 125.381C250.866 125.544 250.796 125.713 250.758 125.767C250.747 125.789 250.752 125.773 250.763 125.767C250.779 125.751 250.801 125.735 250.817 125.724C250.85 125.702 250.904 125.68 250.948 125.675C251.002 125.659 251.078 125.659 251.121 125.669C251.154 125.669 251.187 125.686 251.214 125.697C251.23 125.702 251.252 125.713 251.263 125.724C251.268 125.729 251.274 125.729 251.279 125.735C251.279 125.745 251.181 125.615 251.121 125.485C251.056 125.343 251.002 125.186 250.948 125.017C250.85 124.681 250.774 124.317 250.719 123.953C250.616 123.214 250.578 122.459 250.605 121.704C250.633 120.954 250.736 120.188 250.926 119.487C251.132 118.759 251.415 118.036 251.773 117.379C252.127 116.743 252.605 116.064 253.273 116.075C253.61 116.086 253.947 116.265 254.213 116.537C254.517 116.792 254.729 117.129 254.919 117.477Z" fill="#F39200"/>
<path d="M202.108 39.4034C202.015 39.2839 199.869 40.0445 199.837 41.8536C199.815 43.0433 200.722 44.2114 202.015 44.3852C201.325 43.8148 200.581 42.9945 200.581 42.0003C200.581 40.5389 202.189 39.5121 202.108 39.4034Z" fill="#936037"/>
<path d="M187.923 68.8976C187.754 68.7238 184.527 70.3862 184.864 73.2492C185.087 75.1344 186.771 76.7805 188.841 76.7805C187.629 76.0308 186.288 74.8953 186.07 73.3253C185.755 71.0109 188.075 69.0552 187.923 68.8976Z" fill="#936037"/>
<path d="M171.532 28.5271L172.505 16.6295L170.451 28.337L171.532 28.5271Z" fill="#936037"/>
<mask id="path-133-inside-5" fill="white">
<path fill-rule="evenodd" clip-rule="evenodd" d="M208.491 28.3161L203.013 38.7886C202.929 38.782 202.845 38.7787 202.76 38.7787C201.004 38.7787 199.581 40.2016 199.581 41.9568C199.581 42.6048 199.775 43.2076 200.108 43.7101C198.045 47.9587 195.982 52.2063 193.918 56.454C192.059 60.2795 190.2 64.105 188.342 67.9311C185.971 68.3034 184.158 70.3554 184.158 72.8309C184.158 75.5702 186.379 77.7909 189.118 77.7909C191.857 77.7909 194.078 75.5702 194.078 72.8309C194.078 71.6908 193.693 70.6405 193.047 69.8028C194.55 66.2123 196.053 62.6223 197.556 59.0322L197.561 59.021C199.507 54.3711 201.454 49.7211 203.402 45.07C204.849 44.7731 205.938 43.4921 205.938 41.9568C205.938 41.0392 205.549 40.2125 204.927 39.6324L209.127 28.7018L208.491 28.3161Z"/>
</mask>
<path d="M203.013 38.7886L203.899 39.2521L203.593 39.8375L202.934 39.7855L203.013 38.7886ZM208.491 28.3161L207.605 27.8526L208.099 26.9084L209.01 27.4612L208.491 28.3161ZM200.108 43.7101L200.942 43.1577L201.257 43.6335L201.008 44.1469L200.108 43.7101ZM193.918 56.454L194.817 56.891L194.817 56.891L193.918 56.454ZM188.342 67.9311L189.242 68.3679L189.014 68.8379L188.497 68.919L188.342 67.9311ZM193.047 69.8028L192.255 70.4138L191.9 69.9532L192.124 69.4166L193.047 69.8028ZM197.556 59.0322L198.478 59.4183L198.478 59.4184L197.556 59.0322ZM197.561 59.021L196.638 58.6349L196.638 58.6349L197.561 59.021ZM203.402 45.07L202.479 44.6838L202.683 44.1966L203.201 44.0905L203.402 45.07ZM204.927 39.6324L204.245 40.3636L203.752 39.9034L203.993 39.2737L204.927 39.6324ZM209.127 28.7018L209.645 27.8469L210.36 28.2804L210.06 29.0605L209.127 28.7018ZM202.127 38.3252L207.605 27.8526L209.377 28.7796L203.899 39.2521L202.127 38.3252ZM202.76 37.7787C202.871 37.7787 202.982 37.7831 203.092 37.7917L202.934 39.7855C202.877 39.781 202.819 39.7787 202.76 39.7787V37.7787ZM198.581 41.9568C198.581 39.6493 200.452 37.7787 202.76 37.7787V39.7787C201.557 39.7787 200.581 40.7539 200.581 41.9568H198.581ZM199.275 44.2625C198.837 43.6012 198.581 42.8073 198.581 41.9568H200.581C200.581 42.4024 200.714 42.8139 200.942 43.1577L199.275 44.2625ZM193.018 56.017C195.082 51.7693 197.146 47.5218 199.209 43.2733L201.008 44.1469C198.945 48.3956 196.881 52.6434 194.817 56.891L193.018 56.017ZM187.443 67.4943C189.301 63.668 191.16 59.8424 193.018 56.017L194.817 56.891C192.959 60.7165 191.1 64.5419 189.242 68.3679L187.443 67.4943ZM183.158 72.8309C183.158 69.8554 185.337 67.3907 188.187 66.9432L188.497 68.919C186.605 69.2161 185.158 70.8554 185.158 72.8309H183.158ZM189.118 78.7909C185.826 78.7909 183.158 76.1225 183.158 72.8309H185.158C185.158 75.018 186.931 76.7909 189.118 76.7909V78.7909ZM195.078 72.8309C195.078 76.1225 192.41 78.7909 189.118 78.7909V76.7909C191.305 76.7909 193.078 75.018 193.078 72.8309H195.078ZM193.838 69.1917C194.615 70.1983 195.078 71.462 195.078 72.8309H193.078C193.078 71.9195 192.771 71.0827 192.255 70.4138L193.838 69.1917ZM198.478 59.4184C196.975 63.0084 195.473 66.5985 193.969 70.189L192.124 69.4166C193.628 65.8261 195.131 62.2361 196.634 58.6461L198.478 59.4184ZM198.483 59.4072L198.478 59.4183L196.634 58.6461L196.638 58.6349L198.483 59.4072ZM204.324 45.4563C202.376 50.1073 200.43 54.7572 198.483 59.4072L196.638 58.6349C198.585 53.9849 200.532 49.3349 202.479 44.6838L204.324 45.4563ZM206.938 41.9568C206.938 43.9763 205.506 45.6592 203.603 46.0496L203.201 44.0905C204.192 43.887 204.938 43.0078 204.938 41.9568H206.938ZM205.609 38.9011C206.425 39.6625 206.938 40.7506 206.938 41.9568H204.938C204.938 41.3279 204.672 40.7625 204.245 40.3636L205.609 38.9011ZM210.06 29.0605L205.86 39.991L203.993 39.2737L208.193 28.3432L210.06 29.0605ZM209.01 27.4612L209.645 27.8469L208.608 29.5567L207.972 29.171L209.01 27.4612Z" fill="#432918" mask="url(#path-133-inside-5)"/>
</svg>
