<svg width="284" height="284" viewBox="0 0 284 284" fill="none" xmlns="http://www.w3.org/2000/svg">
<path d="M189.678 99.6583C188.849 114.713 184.097 132.335 174.846 151.496C151.523 199.688 106.651 232.238 75.1681 220.536C51.0836 211.575 46.8916 178.184 59.4675 139.018L87.5982 130.572C85.1407 134.19 82.7661 138.116 80.5902 142.256C64.7839 172.29 63.6866 203.65 78.187 212.301C92.6588 220.964 117.223 203.623 133.045 173.608C144.967 150.956 148.532 127.557 143.338 113.699L189.678 99.6583Z" fill="white"/>
<path d="M259.33 78.5785C259.274 78.8385 259.208 79.0914 259.126 79.3457C232.079 183.416 131.211 254.964 70.4017 229.385C37.8776 215.683 25.8218 185.732 26.2219 149.102L50.4149 141.762C42.0453 179.527 49.0948 211.347 73.3793 222.334C107.676 237.821 161.599 197.436 187.221 145.075C196.032 126.99 201.825 110.181 204.376 95.2077L259.33 78.5785Z" fill="white"/>
<path d="M85.7437 109.012C110.442 81.1545 145.447 62.6222 162.202 78.037L176.474 58.6645C149.372 34.7058 106.823 61.0734 80.4687 97.9352L85.7437 109.012Z" fill="white"/>
<path d="M92.7117 123.657C107.224 105.62 124.339 96.9079 135.449 103.564C137.372 104.715 139.026 106.242 140.402 108.124L156.85 85.5408C141.284 69.6116 109.225 86.7552 86.931 111.514L92.7117 123.657Z" fill="white"/>
</svg>
