<svg width="284" height="186" viewBox="0 0 284 186" fill="none" xmlns="http://www.w3.org/2000/svg">
<path d="M141.75 175.444C77.0625 175.444 24.3562 138.206 24.3562 92.5875C24.3562 46.9688 77.0625 9.73125 141.75 9.73125C206.438 9.73125 259.144 46.9688 259.144 92.5875C259.144 138.206 206.438 175.444 141.75 175.444ZM141.75 0C63.3375 0 0 41.175 0 92.5875C0 144 63.3375 185.175 141.75 185.175C220.162 185.175 283.5 143.55 283.5 92.5875C283.5 41.625 220.162 0 141.75 0Z" fill="white"/>
<path d="M147.938 141.3H132.413C127.519 141.3 124.875 139.106 124.875 135.112V99.675C124.875 97.4812 125.775 96.5812 127.969 96.5812H147.938C160.481 96.5812 170.719 106.65 170.944 119.194C171.113 131.287 161.438 141.187 149.344 141.356C148.894 141.356 148.444 141.356 147.938 141.3ZM124.931 50.9625C124.931 46.9687 127.575 44.775 132.469 44.775H142.65C153.169 44.325 162.113 52.4812 162.563 63V63.8437C162.394 74.7 153.506 83.4187 142.65 83.3062H128.025C125.831 83.3062 124.931 82.4062 124.931 80.2125V50.9625ZM187.369 90.3937C184.275 89.0437 184.275 88.5937 187.369 86.85C195.3 81.9562 200.025 73.1812 199.744 63.8437C199.744 46.575 176.738 29.3062 139.95 29.3062C118.688 29.1937 98.0438 36.0562 81.0563 48.7687C77.9625 51.4125 78.4125 52.7625 79.3125 53.6625L84.6563 59.85C86.4 61.65 87.3 61.2 88.2 60.3C92.1938 57.2062 92.6438 58.95 92.6438 62.4937V123.637C92.6438 127.181 92.1938 128.981 88.2 125.831C87.3 124.931 86.4563 124.481 84.6563 126.281L78.9188 132.919C78.0188 134.269 77.175 135.562 80.7188 137.812C98.4938 149.962 119.419 156.6 140.963 156.881C182.138 156.881 207.844 139.612 207.844 116.55C208.181 101.025 195.356 93.4875 187.369 90.3937Z" fill="white"/>
</svg>
