<svg width="284" height="314" viewBox="0 0 284 314" fill="none" xmlns="http://www.w3.org/2000/svg">
<path d="M49.3902 311.085C53.7384 310.771 58.0866 310.416 62.4406 310.171C64.2101 310.072 64.6001 309.1 64.8679 307.563C65.7236 302.604 66.4861 297.604 67.7492 292.744C71.4921 278.314 75.4328 263.942 79.3386 249.558C80.1943 246.415 80.171 246.188 76.8764 245.507C70.3337 244.157 63.7736 242.87 57.2134 241.59C54.1342 240.99 54.0993 241.095 53.1621 244.064C51.1132 250.531 49.0118 256.974 46.9105 263.424C46.7359 263.959 46.4274 264.442 46.1771 264.955C45.6881 264.553 45.0769 264.233 44.7277 263.732C43.2783 261.672 41.8987 259.565 40.5192 257.457C39.5587 255.996 38.738 255.839 37.8125 257.533C36.7007 259.57 35.4957 261.561 34.2443 263.517C33.8659 264.105 33.214 264.518 32.6843 265.013C32.3758 264.437 31.9741 263.884 31.7762 263.272C30.2744 258.674 28.7901 254.064 27.3349 249.448C26.0892 245.501 25.9146 245.396 22.0961 246.875C15.5069 249.425 8.92344 251.997 2.31675 254.512C-0.448171 255.566 -0.488918 255.694 0.896451 258.412C4.37151 265.228 8.06777 271.946 11.1703 278.925C15.1751 287.941 18.6676 297.191 22.4512 306.312C22.7771 307.098 23.4931 308.105 24.2149 308.285C27.2185 309.042 30.2861 309.513 33.3304 310.101C35.0301 310.427 36.0487 309.717 36.7356 308.151C37.4748 306.469 38.4353 304.886 39.2677 303.244C39.9604 301.876 40.7636 301.807 41.6193 303.035C43.0571 305.101 44.553 307.144 45.8103 309.321C46.6718 310.817 47.7953 311.335 49.3902 311.085ZM120.876 308C120.876 307.936 120.876 307.866 120.876 307.802C123.682 307.802 126.494 307.878 129.299 307.779C132.052 307.686 132.198 307.4 131.302 304.851C125.498 288.413 119.642 271.992 113.932 255.519C113.251 253.552 112.232 252.789 110.277 252.481C104.438 251.555 98.6232 250.513 92.8139 249.401C88.5763 248.586 88.4366 248.598 87.0687 252.818C81.3177 270.519 76.6726 288.506 73.2325 306.801C72.7319 309.473 73.1801 309.973 75.7879 309.787C80.0371 309.484 84.2922 309.199 88.553 308.99C92.6451 308.792 93.0351 309.1 93.7394 304.863C94.0771 302.831 95.1365 301.842 97.3193 301.964C99.8339 302.103 102.36 301.987 104.881 302.005C109.724 302.039 108.839 301.906 109.951 305.806C110.381 307.325 110.998 308.122 112.739 308.035C115.451 307.895 118.17 308 120.876 308ZM203.131 280.432C203.12 280.432 203.108 280.432 203.096 280.432C203.096 284.408 203.096 288.384 203.096 292.359C203.096 296.335 203.061 300.311 203.085 304.286C203.102 307.371 203.48 307.662 206.589 307.924C214.214 308.559 221.834 309.298 229.459 309.915C235.961 310.445 243.714 308.041 246.753 301.69C250.426 294.018 248.243 283.966 241.456 279.041C240.426 278.296 239.82 277.83 241.083 276.66C245.92 272.202 246.677 266.404 245.851 260.333C244.995 254.052 242.073 251.619 235.751 251.299C235.169 251.27 234.587 251.235 234.005 251.276C224.727 251.974 215.454 252.713 206.176 253.359C203.841 253.522 203.056 254.553 203.085 256.864C203.195 264.722 203.131 272.58 203.131 280.432ZM135.568 281.195C135.568 288.75 135.562 296.306 135.574 303.861C135.58 307.406 135.743 307.581 139.393 307.593C144.626 307.61 149.853 307.581 155.086 307.575C159.347 307.569 163.613 307.529 167.874 307.593C169.877 307.622 170.907 307.063 170.825 304.787C170.68 300.823 170.721 296.841 170.814 292.872C170.86 290.892 170.138 290.048 168.13 290.095C165.034 290.177 161.931 290.118 158.828 290.107C155.173 290.095 155.103 290.037 155.097 286.352C155.074 276.858 155.097 267.364 155.057 257.871C155.045 254.89 154.876 254.768 151.896 254.751C147.635 254.722 143.368 254.727 139.107 254.762C135.859 254.786 135.586 255.059 135.58 258.226C135.562 265.886 135.574 273.54 135.568 281.195ZM276.748 263.307C270.793 263.878 264.92 264.472 259.041 264.995C253.517 265.49 253.517 265.461 252.83 271.037C252.818 271.136 252.801 271.23 252.795 271.329C252.178 283.401 251.602 295.479 250.921 307.552C250.787 309.909 251.77 310.841 253.982 311.085C259.367 311.679 264.739 312.441 270.124 313.018C273.733 313.408 273.663 313.315 274.024 309.607C275.205 297.581 276.422 285.555 277.685 273.535C277.964 270.851 278.471 268.185 278.913 265.519C279.222 263.674 278.465 262.981 276.748 263.307ZM196.67 288.919C196.67 283.494 196.629 278.075 196.693 272.65C196.717 270.665 195.896 269.873 193.923 269.902C189.179 269.966 184.435 269.949 179.691 269.902C178.008 269.885 177.269 270.473 177.275 272.283C177.333 283.418 177.327 294.554 177.269 305.689C177.257 307.395 177.909 307.831 179.504 307.802C184.149 307.721 188.8 307.796 193.445 307.767C196.315 307.75 196.629 307.459 196.653 304.606C196.705 299.379 196.67 294.152 196.67 288.919ZM253.988 258.726C254.512 260.135 252.702 262.603 255.909 262.271C263.208 261.509 270.502 260.676 277.784 259.728C278.611 259.623 279.804 258.726 279.996 257.981C281.236 253.226 282.318 248.418 283.302 243.604C283.82 241.077 283.453 240.781 281.015 241.52C273.348 243.854 265.717 246.31 258.034 248.604C256.183 249.157 255.356 250.106 255.164 252.009C254.925 254.297 254.378 256.555 253.988 258.726ZM186.74 266.282C189.248 266.282 191.763 266.241 194.272 266.293C195.849 266.328 196.594 265.624 196.618 264.076C196.653 261.567 196.641 259.052 196.74 256.549C196.821 254.506 195.867 253.813 193.923 253.947C189.115 254.273 184.301 254.559 179.481 254.768C177.857 254.838 177.275 255.554 177.304 257.102C177.356 259.419 177.368 261.742 177.275 264.052C177.211 265.688 177.904 266.323 179.493 266.288C181.914 266.235 184.33 266.276 186.74 266.282Z" fill="white"/>
<path d="M49.3902 311.085C47.7952 311.335 46.6718 310.817 45.8103 309.321C44.553 307.144 43.0629 305.101 41.6193 303.035C40.7636 301.807 39.9545 301.882 39.2677 303.244C38.4353 304.886 37.4748 306.469 36.7356 308.151C36.0487 309.717 35.0301 310.427 33.3304 310.101C30.286 309.513 27.2126 309.042 24.2149 308.285C23.4989 308.105 22.7771 307.104 22.4511 306.312C18.6676 297.191 15.175 287.947 11.1703 278.925C8.06775 271.945 4.3715 265.222 0.896433 258.412C-0.488936 255.694 -0.442369 255.56 2.31673 254.512C8.9176 251.997 15.501 249.425 22.0961 246.875C25.9146 245.396 26.0892 245.501 27.3349 249.448C28.7901 254.064 30.2686 258.674 31.7762 263.272C31.9741 263.884 32.3757 264.437 32.6842 265.013C33.2139 264.518 33.8659 264.111 34.2442 263.517C35.4899 261.561 36.6948 259.57 37.8124 257.533C38.738 255.839 39.5587 255.996 40.5191 257.457C41.9045 259.559 43.2841 261.672 44.7276 263.732C45.0769 264.233 45.6881 264.553 46.177 264.955C46.4273 264.448 46.7358 263.959 46.9105 263.424C49.0118 256.974 51.1131 250.525 53.1621 244.064C54.0993 241.095 54.1342 240.99 57.2134 241.59C63.7736 242.864 70.3279 244.157 76.8764 245.507C80.1651 246.188 80.1884 246.409 79.3386 249.558C75.4328 263.942 71.492 278.319 67.7492 292.744C66.4861 297.61 65.7235 302.604 64.8679 307.563C64.6059 309.1 64.2101 310.072 62.4406 310.171C58.0866 310.41 53.7384 310.771 49.3902 311.085Z" fill="white"/>
<path d="M120.876 308C118.164 308 115.451 307.895 112.75 308.035C111.004 308.128 110.393 307.325 109.962 305.805C108.85 301.9 109.735 302.039 104.892 302.004C102.372 301.987 99.8456 302.103 97.3309 301.964C95.1481 301.841 94.0887 302.831 93.7511 304.863C93.0468 309.1 92.6568 308.792 88.5647 308.99C84.3096 309.193 80.0546 309.484 75.7995 309.787C73.1917 309.973 72.7377 309.473 73.2441 306.801C76.6843 288.506 81.3293 270.519 87.0804 252.818C88.4541 248.598 88.588 248.592 92.8256 249.401C98.629 250.513 104.45 251.555 110.288 252.48C112.238 252.789 113.257 253.551 113.944 255.519C119.654 271.992 125.51 288.413 131.313 304.851C132.215 307.4 132.064 307.686 129.311 307.779C126.505 307.872 123.694 307.802 120.888 307.802C120.882 307.872 120.876 307.936 120.876 308ZM101.365 288.424C104.432 288.448 105.02 288.069 104.584 285.846C103.879 282.231 102.977 278.663 102.127 275.077C102.052 274.751 101.737 274.483 101.534 274.192C101.347 274.501 101.062 274.792 100.981 275.129C100.201 278.529 99.3915 281.922 98.7105 285.339C98.2041 287.912 98.693 288.401 101.365 288.424Z" fill="white"/>
<path d="M203.131 280.432C203.131 272.58 203.195 264.722 203.09 256.869C203.061 254.559 203.847 253.528 206.181 253.365C215.46 252.719 224.732 251.974 234.011 251.281C234.587 251.241 235.175 251.276 235.757 251.305C242.084 251.625 245.001 254.058 245.856 260.339C246.683 266.41 245.926 272.202 241.089 276.666C239.82 277.836 240.431 278.296 241.462 279.047C248.255 283.971 250.432 294.024 246.759 301.696C243.72 308.047 235.973 310.451 229.465 309.921C221.839 309.298 214.22 308.565 206.595 307.93C203.486 307.674 203.108 307.377 203.09 304.292C203.067 300.316 203.096 296.341 203.102 292.365C203.102 288.389 203.102 284.414 203.102 280.438C203.108 280.432 203.12 280.432 203.131 280.432ZM221.275 290.316C221.257 294.205 221.543 294.618 224.209 294.624C228.079 294.629 230.14 293.128 230.192 290.246C230.251 287.313 228.213 285.729 224.383 285.729C221.717 285.729 221.292 286.358 221.275 290.316ZM221.257 269.215C221.589 270.304 220.53 272.382 223.108 272.487C226.147 272.609 228.056 270.822 227.975 267.999C227.916 265.956 226.688 264.803 224.622 264.861C221.793 264.931 221.263 265.577 221.257 269.215Z" fill="white"/>
<path d="M135.574 281.195C135.574 273.54 135.568 265.886 135.58 258.237C135.586 255.071 135.859 254.797 139.107 254.774C143.368 254.745 147.635 254.739 151.896 254.762C154.876 254.78 155.039 254.902 155.057 257.882C155.103 267.376 155.08 276.87 155.097 286.364C155.103 290.048 155.173 290.107 158.828 290.118C161.931 290.13 165.028 290.182 168.13 290.107C170.144 290.054 170.866 290.898 170.814 292.883C170.721 296.853 170.68 300.829 170.825 304.799C170.907 307.069 169.877 307.633 167.874 307.604C163.613 307.54 159.347 307.581 155.086 307.587C149.853 307.593 144.626 307.622 139.393 307.604C135.743 307.593 135.58 307.418 135.574 303.873C135.562 296.306 135.568 288.75 135.574 281.195Z" fill="white"/>
<path d="M276.748 263.307C278.465 262.976 279.222 263.668 278.913 265.519C278.471 268.185 277.964 270.851 277.685 273.535C276.422 285.555 275.205 297.581 274.024 309.607C273.657 313.314 273.727 313.408 270.124 313.018C264.734 312.436 259.367 311.679 253.982 311.085C251.77 310.841 250.787 309.903 250.921 307.552C251.602 295.479 252.184 283.407 252.795 271.328C252.801 271.23 252.818 271.136 252.83 271.037C253.517 265.461 253.522 265.49 259.041 264.995C264.92 264.471 270.793 263.884 276.748 263.307Z" fill="white"/>
<path d="M196.67 288.919C196.67 294.146 196.699 299.379 196.658 304.606C196.635 307.459 196.321 307.744 193.451 307.767C188.806 307.802 184.155 307.721 179.51 307.802C177.915 307.831 177.263 307.395 177.275 305.689C177.333 294.554 177.333 283.418 177.281 272.283C177.269 270.479 178.014 269.891 179.696 269.902C184.44 269.949 189.184 269.966 193.928 269.902C195.902 269.879 196.722 270.665 196.699 272.65C196.635 278.075 196.67 283.5 196.67 288.919Z" fill="white"/>
<path d="M253.988 258.726C254.378 256.555 254.925 254.291 255.164 252.003C255.362 250.1 256.188 249.151 258.034 248.598C265.717 246.31 273.348 243.854 281.014 241.514C283.453 240.769 283.82 241.072 283.302 243.598C282.318 248.417 281.236 253.22 279.996 257.975C279.804 258.72 278.61 259.617 277.784 259.722C270.508 260.67 263.208 261.509 255.909 262.265C252.696 262.603 254.506 260.135 253.988 258.726Z" fill="white"/>
<path d="M186.74 266.276C184.324 266.276 181.908 266.235 179.498 266.288C177.909 266.323 177.217 265.688 177.281 264.052C177.368 261.736 177.356 259.419 177.31 257.102C177.275 255.554 177.863 254.838 179.487 254.768C184.301 254.559 189.115 254.273 193.928 253.947C195.873 253.819 196.827 254.506 196.746 256.549C196.647 259.058 196.653 261.567 196.623 264.076C196.6 265.624 195.855 266.328 194.278 266.293C191.763 266.241 189.254 266.282 186.74 266.276Z" fill="white"/>
<path d="M101.365 288.424C98.693 288.401 98.204 287.906 98.7163 285.339C99.3973 281.922 100.201 278.529 100.986 275.13C101.062 274.792 101.347 274.507 101.539 274.192C101.743 274.489 102.057 274.757 102.133 275.077C102.983 278.657 103.885 282.231 104.59 285.846C105.014 288.069 104.427 288.453 101.365 288.424Z" fill="white"/>
<path d="M221.275 290.316C221.292 286.358 221.717 285.729 224.383 285.729C228.213 285.735 230.251 287.313 230.192 290.246C230.14 293.122 228.079 294.629 224.209 294.624C221.543 294.618 221.263 294.205 221.275 290.316Z" fill="white"/>
<path d="M221.257 269.215C221.263 265.577 221.793 264.931 224.622 264.861C226.688 264.809 227.922 265.962 227.975 267.999C228.05 270.822 226.141 272.609 223.108 272.487C220.53 272.382 221.589 270.304 221.257 269.215Z" fill="white"/>
<path d="M174.009 237.3C168.578 238.161 164.766 236.386 161.826 231.298C157.554 223.9 152.478 216.95 147.583 209.924C144.678 205.751 141.931 206.001 139.579 210.646C136.756 216.234 133.484 221.612 130.97 227.329C128.63 232.655 125.172 235.064 119.386 233.953C109.037 231.962 98.5883 230.35 88.3843 227.783C85.9453 227.171 83.5005 223.754 82.3946 221.077C69.5363 190.063 57.6617 158.619 44.035 127.949C33.4876 104.205 20.9145 81.3642 9.1039 58.1913C4.38899 48.9477 4.54615 48.4995 13.9352 44.9255C36.3922 36.3688 58.7735 27.62 81.1838 18.9586C94.176 13.9352 94.7698 14.2786 99.0015 27.7015C103.949 43.3946 108.984 59.0644 114.095 74.7109C114.776 76.7948 116.138 78.6633 117.186 80.6308C118.979 78.9544 121.208 77.5574 122.489 75.555C126.732 68.9017 130.824 62.1379 134.614 55.2168C137.769 49.4542 140.557 49.9955 143.822 54.9607C148.531 62.1146 153.223 69.2859 158.142 76.2942C159.335 77.9939 161.407 79.0824 163.078 80.4503C163.922 78.7215 164.981 77.0626 165.575 75.2465C172.711 53.3076 179.865 31.3862 186.827 9.4007C190.023 -0.686875 190.139 -1.04777 200.605 0.989538C222.911 5.33191 245.21 9.71503 267.464 14.3077C278.657 16.6186 278.733 17.3811 275.828 28.0799C262.557 76.9927 249.139 125.871 236.415 174.929C232.125 191.466 229.535 208.463 226.624 225.332C225.722 230.547 224.389 233.86 218.376 234.191C203.579 235.012 188.8 236.24 174.009 237.3Z" fill="white"/>
</svg>