<svg width="279" height="383" viewBox="0 0 279 383" fill="none" xmlns="http://www.w3.org/2000/svg">
<path d="M13.5096 376.545L0.330078 324.764H7.38542L13.5469 350.974C15.0633 357.508 16.436 363.898 17.3725 368.884H17.5428C18.3781 363.712 19.9637 357.593 21.7621 350.889L28.7057 324.764H35.6653L41.9864 351.059C43.4283 357.263 44.8064 363.355 45.6152 368.793H45.7269C46.8443 363.116 48.3075 357.375 49.8931 350.889L56.7515 324.764H63.5834L48.9034 376.545H41.9066L35.3727 349.654C33.7445 342.977 32.6963 337.906 31.9727 332.665H31.845C30.983 337.906 29.7646 342.929 27.8385 349.628L20.4692 376.551L13.5096 376.545Z" fill="white"/>
<path d="M93.4065 367.66C93.4065 370.863 93.5608 374.034 93.9598 376.545H87.8941L87.245 371.9H87.0428C85.0316 374.8 80.9505 377.381 75.651 377.381C68.1275 377.381 64.2593 372.108 64.2593 366.713C64.2593 357.731 72.2777 352.815 86.6438 352.911V352.134C86.6438 349.043 85.8084 343.434 78.1891 343.504C74.672 343.504 71.0326 344.525 68.3988 346.281L66.925 341.742C69.9685 339.79 74.5177 338.529 79.2106 338.529C90.6556 338.529 93.4065 346.281 93.4065 353.714V367.66ZM86.7768 357.588C79.4235 357.417 71.0379 358.705 71.0379 365.957C71.0379 370.405 73.9697 372.406 77.359 372.406C82.2594 372.406 85.42 369.357 86.4841 366.186C86.7076 365.489 86.7821 364.728 86.7821 364.02V357.588H86.7768Z" fill="white"/>
<path d="M104.277 321.997H110.991V376.545H104.277V321.997Z" fill="white"/>
<path d="M122.229 321.997H128.986V376.545H122.229V321.997Z" fill="white"/>
<path d="M155.377 377.381C145.348 377.381 137.526 370.012 137.526 358.263C137.526 345.823 145.731 338.529 155.973 338.529C166.668 338.529 173.835 346.281 173.835 357.588C173.835 371.4 164.242 377.381 155.431 377.381H155.377V377.381ZM155.579 372.321C162.012 372.321 166.865 366.271 166.865 357.827C166.865 351.495 163.694 343.599 155.744 343.599C147.795 343.599 144.395 350.969 144.395 358.04C144.395 366.186 148.987 372.321 155.532 372.321H155.579V372.321Z" fill="white"/>
<path d="M182.412 349.452C182.412 345.504 182.327 342.461 182.088 339.353H188.063L188.473 345.451H188.643C190.457 341.982 194.746 338.534 200.913 338.534C206.058 338.534 214.092 341.593 214.092 354.363V376.551H207.308V355.129C207.308 349.138 205.1 344.068 198.71 344.068C194.304 344.068 190.862 347.239 189.627 350.979C189.313 351.857 189.159 353.065 189.159 354.129V376.556H182.412V349.452V349.452Z" fill="white"/>
<path d="M228.304 332.554C225.739 332.554 224.063 330.537 224.063 328.148C224.063 325.77 225.819 323.838 228.469 323.838C231.044 323.838 232.763 325.764 232.763 328.148C232.763 330.537 231.049 332.554 228.378 332.554H228.304ZM225.042 376.545V339.353H231.826V376.545H225.042Z" fill="white"/>
<path d="M246.905 359.093C247.044 368.261 252.795 372.044 259.574 372.044C264.389 372.044 267.422 371.193 269.875 370.171L271.094 374.933C268.731 376.024 264.57 377.344 258.654 377.344C247.267 377.344 240.361 369.73 240.361 358.583C240.361 347.281 247.049 338.454 257.893 338.454C270.019 338.454 273.179 349.138 273.179 355.965C273.179 357.385 273.105 358.444 272.95 359.221L246.905 359.093ZM266.661 354.273C266.704 350.048 264.858 343.264 257.318 343.264C250.406 343.264 247.485 349.622 246.99 354.273H266.661Z" fill="white"/>
<path d="M64.1048 72.353C67.5473 70.3684 78.1303 66.2341 78.1303 66.2341C78.5826 67.6228 83.4032 70.7514 86.3349 70.7514C84.7015 73.9811 81.4452 75.8966 78.4975 77.8493C75.5231 79.4509 71.9529 79.7754 69.0478 81.7335C69.9683 83.9682 72.5754 85.2452 74.8687 86.2242C77.8164 87.2032 81.0887 87.2032 84.3609 87.5278C81.8123 92.1302 77.3482 98.7332 83.7969 110.918C86.7766 116.542 77.8164 118.851 72.9319 120.171C69.9683 121.091 67.0525 122.054 65.0678 124.991C64.7858 125.64 64.1048 126.603 63.7642 127.215C61.8222 139.511 67.5899 148.551 75.8637 158.863C76.0605 159.102 75.8637 159.842 75.5231 159.842C63.1257 152.414 50.0792 144.667 44.1678 131.11C40.5816 122.384 42.8909 108.64 44.8063 103.352C44.386 96.2538 56.8685 74.891 64.1048 72.353Z" fill="white"/>
<path d="M89.7244 73.6566C93.3532 69.4798 96.2424 64.606 96.5829 59.1203C96.5829 56.8856 96.2477 54.9541 96.8968 52.6769C98.2324 48.4841 102.143 45.2385 106.719 45.2385C115.546 45.9036 121.468 53.9804 122.107 62.3819C122.421 73.3373 118.196 83.6915 113.929 94.0031C112.3 98.2118 111.561 102.218 111.561 106.746C106.15 99.2334 109.422 90.3797 106.065 84.9525C104.463 89.1612 88.2666 98.994 87.9101 110.795C87.245 108.172 85.8137 105.31 85.122 102.718C84.2015 96.2591 87.7398 90.7734 89.7244 85.2505C90.065 84.9525 90.6875 83.6915 89.7244 83.9735C85.122 84.6652 80.8973 84.3406 76.646 82.7125C78.6306 81.095 81.2219 80.4299 83.547 79.1263C85.8137 77.5514 87.7398 75.9232 89.7244 73.6566Z" fill="white"/>
<path d="M101.67 11.7657C104.33 6.62582 110.992 0.629343 112.934 0.32074C112.678 2.91194 113.982 5.49251 113.641 8.07307C113.641 8.38699 113.327 8.38699 113.641 8.07307C116.898 4.54541 121.149 2.91726 125.714 2.27877C129.327 6.79609 130.615 12.617 129.327 18.4166C128.672 21.6463 127.699 24.5355 125.416 26.8021C122.442 29.0262 116.743 30.8299 116.743 30.8299C116.743 30.8299 109.081 28.5047 104.644 27.8929C97.8758 27.0309 92.172 30.3883 87.2982 36.1719C86.532 37.0605 87.2982 36.1719 87.2982 36.1719C85.3561 35.858 82.9085 37.1669 80.9505 36.4699C79.6203 28.4196 82.2541 18.7146 89.4371 13.8567C90.4161 15.1603 91.0653 17.4429 92.4114 17.129C93.699 16.7885 93.699 14.5378 94.3429 12.9203C95.6411 10.0151 98.2323 7.78043 100.233 5.49783C100.887 7.40797 100.233 10.0151 101.196 11.9732" fill="white"/>
<path d="M101.371 35.8846C100.281 33.32 97.1468 32.0164 94.8269 33.602C93.8479 34.5651 92.2038 36.8477 92.2038 36.8477C92.2038 36.8477 91.8633 36.1932 91.2407 36.1932C96.1305 28.4409 106.942 29.7338 113.827 34.5651C119.356 38.4758 121.649 44.5947 120.654 50.7295C116.392 44.5947 108.868 38.7844 101.02 42.0301C101.015 40.0774 102.35 38.1353 101.371 35.8846Z" fill="white"/>
<path d="M88.6336 55.5342C90.5757 54.9276 91.5813 53.326 93.2095 52.0225C93.2095 56.1886 94.1725 61.0465 90.9003 64.2761C88.325 66.5428 84.7069 67.8464 81.4506 65.9043C80.131 65.2552 80.4449 62.648 81.0994 61.0465C82.7222 58.1573 85.6859 56.8803 88.6336 55.5342Z" fill="white"/>
<path d="M97.445 41.6789C97.7802 42.0354 99.0891 43.2964 98.7485 43.621C97.4449 44.9246 97.445 46.2282 96.4659 47.4998C95.1623 45.8983 93.2043 44.9246 91.8581 43.2911C90.5705 41.6736 91.5761 40.6999 93.2043 39.7209C93.2043 39.4229 93.5342 38.7844 93.5342 38.4758C93.8481 37.4702 95.1677 36.8477 96.1254 36.5338C97.4449 36.5338 98.4399 37.8214 98.4399 39.109C98.126 40.0774 97.445 40.6999 97.445 41.6789Z" fill="white"/>
<path d="M91.8632 47.8137C91.8632 48.1117 91.8632 48.7768 92.2038 49.1067C88.6335 49.7558 85.0314 51.368 81.094 50.0697C81.094 50.0697 81.094 49.4579 81.094 49.1067C84.0577 47.1965 87.298 46.2282 89.9211 44.2755C90.2617 45.5578 91.8632 46.2282 91.8632 47.8137Z" fill="white"/>
<path d="M76.8589 50.7348C77.5133 48.7768 77.3537 46.3558 77.9922 44.6C78.6839 42.759 80.1312 42.0354 81.4454 41.0457C82.7224 40.4073 83.744 39.7262 85.0316 39.4282C85.9787 39.1888 86.6598 39.4282 87.6388 39.1143C87.6388 40.0774 87.9687 41.0404 88.3198 42.0354C88.3198 42.3174 89.384 43.2964 89.1286 43.4667C88.1496 44.1211 86.8194 44.1211 84.8507 45.2385C82.0573 46.8773 80.642 47.4732 76.8589 50.7348Z" fill="white"/>
<path d="M74.5655 55.5341C77.444 53.8208 81.0994 52.363 84.3664 53.326C79.4819 54.305 78.1357 59.1203 76.5448 63.3024C75.8691 64.606 74.5602 64.606 73.2566 64.606C72.5755 64.2761 71.6444 63.6429 71.6444 62.9885C70.3408 60.11 71.9583 57.1676 74.5655 55.5341Z" fill="white"/>
<path d="M163.795 101.739C156.622 110.737 153.334 121.421 151.046 132.089C149.743 129.157 145.832 127.891 145.491 124.677C144.528 117.239 145.177 110.141 147.434 102.995C148.466 99.127 149.743 95.2747 151.387 91.7152C155.271 83.9628 160.198 76.865 167.041 71.0441C168.701 69.7671 170.004 68.4795 172.005 67.1918C177.858 63.2971 183.764 61.0411 189.941 57.8114C192.24 56.8802 194.858 55.5288 197.124 55.5288C197.811 55.5288 198.454 55.2468 199.109 54.9222C210.219 52.3576 221.339 53.3207 232.092 56.5238C248.454 61.0464 262.82 72.6882 266.752 89.805C269.37 99.7921 267.076 110.141 260.883 118.212C263.192 111.753 263.501 104.655 261.532 97.85C258.941 88.826 251.742 82.3932 243.229 78.7911C225.915 71.6932 206.292 73.6459 189.941 82.0048C180.13 87.2032 170.994 92.7101 163.795 101.739Z" fill="white"/>
<path d="M160.193 106.555C155.138 114.749 152.994 123.347 151.041 132.089C149.737 129.157 145.827 127.891 145.486 124.677C144.523 117.239 145.172 110.141 147.428 102.995C148.46 99.127 149.737 95.2747 151.381 91.7152C155.266 83.9628 160.193 76.865 167.035 71.0441C168.695 69.7671 169.999 68.4795 171.999 67.1918C177.852 63.2971 183.758 61.0411 189.936 57.8114C192.234 56.8802 194.852 55.5288 197.119 55.5288C197.805 55.5288 198.449 55.2468 199.103 54.9222C210.213 52.3576 221.334 53.3207 232.087 56.5238C248.448 61.0464 262.814 72.6882 266.746 89.805C269.364 99.7921 267.071 110.141 260.878 118.212C263.187 111.753 263.495 104.655 261.527 97.85C258.936 88.826 251.737 82.3932 243.223 78.7911C225.91 71.6932 206.287 73.6459 189.936 82.0048C178.177 87.8683 167.397 94.9661 160.193 106.555Z" fill="white"/>
<path d="M209.261 43.9455C224.606 34.299 238.323 21.9974 249.752 8.11029C248.773 13.6066 246.831 18.7944 244.213 23.583C243.218 24.8866 242.569 26.2328 241.574 27.4672C238.972 31.7025 235.37 34.9056 231.805 38.4758C231.464 38.7897 231.805 39.1143 232.087 39.1143C236.349 38.4758 240.59 38.7897 244.878 37.4702C249.097 36.5337 252.716 34.9056 256.328 32.9795C249.097 41.3809 239.297 47.8137 228.852 51.368C223.946 50.7295 219.051 49.7558 214.145 49.7558C210.862 49.7558 207.627 50.7348 204.297 51.368C200.386 51.7085 197.108 53.6506 193.527 53.9485C199.104 51.0594 204.009 47.1912 209.261 43.9455Z" fill="white"/>
<path d="M196.496 100.106C188.973 103.346 181.79 107.204 174.24 110.141C174.931 102.713 177.219 95.5994 182.726 90.4702C191.245 82.7072 202.7 79.4509 213.842 78.4879C211.889 82.0155 209.559 85.2452 208.261 88.8314C212.538 90.7735 217.412 91.0661 221.664 93.0082C226.873 95.5994 233.747 97.2169 236.062 102.713C236.062 102.995 234.753 102.389 234.088 102.059C223.957 97.2116 212.836 94.9609 201.716 95.9239C200.396 95.9239 199.433 97.85 198.13 99.127" fill="white"/>
<path d="M220.003 85.5857C219.349 86.8734 219.056 88.8314 217.747 88.8314C216.093 88.8314 213.47 88.5175 213.145 86.8734C213.145 85.9369 214.81 84.6599 215.444 83.3191C216.423 82.0155 216.747 80.7705 216.747 79.1263C216.747 78.4879 217.747 78.4879 218.061 78.4879C219.349 79.1263 221.334 78.1473 221.664 79.1263C222.307 81.095 221.02 83.6277 220.003 85.5857Z" fill="white"/>
<path d="M220.658 84.2821C220.317 86.0114 219.349 88.5175 217.747 88.8314C216.093 88.8314 213.47 88.5175 213.145 86.8734C213.145 85.9369 214.81 84.6599 215.444 83.3191C216.423 82.0155 216.747 80.7705 216.747 79.1263C216.747 78.4879 217.747 78.4879 218.061 78.4879C219.349 79.1263 221.334 78.1473 221.664 79.1263C222.307 80.7705 221.02 82.7072 220.658 84.2821Z" fill="white"/>
<path d="M205.962 101.085C204.658 101.085 203.355 101.41 202.057 101.41C202.381 100.463 203.036 99.127 203.685 98.8343C205.653 97.8553 207.92 99.1323 209.889 98.5204C210.219 100.106 208.601 100.463 207.638 101.41C207.292 100.771 206.585 101.085 205.962 101.085Z" fill="white"/>
<path d="M205.962 101.085C204.658 101.085 203.355 101.41 202.057 101.41C202.381 100.463 203.036 99.127 203.685 98.8343C205.653 97.8553 207.92 99.1323 209.889 98.5204C210.219 100.106 208.601 100.463 207.638 101.41C207.292 100.771 206.585 101.085 205.962 101.085Z" fill="white"/>
<path d="M105.921 103.165C106.857 105.134 107.549 107.05 109.209 108.635C109.464 108.933 109.182 109.854 108.517 109.768C105.144 109.428 97.4235 107.912 91.5281 109.907C91.5281 108.321 92.1506 107.044 92.8583 105.741C95.4495 100.58 100.057 96.7114 103.628 91.8535C105.266 95.4291 104.303 99.6271 105.921 103.165Z" fill="white"/>
<path d="M129.114 155.718C128.859 157.261 114.663 167.621 108.853 170.212C102.319 171.814 95.7581 169.877 89.8946 166.998C86.5957 165.695 83.664 163.737 81.408 160.864C75.1614 152.478 68.984 144.726 66.7174 134.696C66.0363 130.514 67.6538 126.311 71.6178 124.395C74.5176 122.778 78.1038 123.092 81.0675 122.113C84.6643 120.479 85.3028 116.318 88.5751 114.685C102.649 106.933 120.952 115.988 126.166 129.86C129.423 138.559 126.507 148.594 120.638 155.718C121.601 157.277 127.821 156.016 129.114 155.718Z" fill="white"/>
<path d="M143.209 177.949C141.213 179.178 139.623 180.189 137.994 181.476C140.575 169.829 140.261 157.559 136.026 146.625C135.446 148.365 126.363 152.691 126.533 152.42C131.631 144.88 131.365 133.488 128.401 127.699C124.772 121.197 119.872 115.403 112.151 111.758C111.853 111.604 112.151 110.795 112.492 110.146C131.748 116.914 148.466 128.535 159.251 146.285C166.088 157.927 169.025 169.829 177.533 180.502C180.816 184.381 183.764 188.281 188.015 191.469C183.083 192.155 177.858 191.176 174.245 187.59C173.915 187.308 173.574 187.59 173.574 187.92C173.915 189.894 173.915 191.469 174.245 193.432C174.937 196.337 175.889 198.928 176.879 201.509C177.858 204.398 180.816 206.681 181.141 209.894C177.224 209.559 173.574 206.979 171.622 203.749C169.366 212.464 169.366 221.488 170.004 230.539C166.093 225.074 164.13 218.934 162.528 212.464C161.507 207.942 161.842 203.749 160.858 199.556C158.267 203.11 154.35 206.031 150.371 207.942C153.345 201.839 156.293 195.363 156.942 188.574C157.256 185.653 157.256 182.455 157.256 179.518C156.942 176.98 156.293 174.703 155.67 172.431C155.005 169.84 154.01 167.6 153.004 164.992C152.355 165.349 152.355 165.972 152.052 166.323C150.732 171.117 147.758 175.017 143.209 177.949Z" fill="white"/>
<path d="M193.873 166.94C190.941 171.117 186.036 174.038 180.811 174.038C181.79 173.075 182.444 171.771 183.077 170.196C184.056 168.227 183.758 166.317 183.758 164.359C183.407 161.444 181.79 158.538 179.156 156.937C175.538 154.697 171.313 155.649 168.046 157.559C166.742 155.021 165.763 152.414 164.444 149.839C174.601 141.14 186.988 134.01 200.391 134.01C210.868 133.712 221.02 140.469 225.909 149.839C229.82 156.937 231.464 164.657 229.82 172.75C227.867 181.476 222.307 187.914 214.47 191.798C214.47 191.798 214.145 191.463 213.837 191.463C215.438 185.972 216.742 180.189 214.805 174.362C214.805 173.708 214.15 174.692 213.837 175.017C213.14 176.618 212.192 177.948 210.862 178.896C206.967 180.806 202.37 182.764 198.119 181.801C200.114 175.325 199.423 168.227 196.486 162.119C195.82 163.098 195.507 164.072 195.187 164.982" fill="white"/>
<path d="M197.805 165.636C197.39 164.391 197.119 163.098 196.496 162.125C194.198 168.552 188.01 174.038 180.816 174.038C181.795 173.075 182.449 171.771 183.083 170.196C184.062 168.227 183.764 166.317 183.764 164.359C183.412 161.444 181.795 158.538 179.161 156.937C175.543 154.697 171.318 155.649 168.051 157.559C166.748 155.021 165.769 152.414 164.449 149.839C174.607 141.14 186.993 134.01 200.396 134.01C210.873 133.712 221.025 140.469 225.915 149.839C229.826 156.937 231.47 164.657 229.826 172.75C227.873 181.476 222.313 187.914 214.475 191.798C214.475 191.798 214.151 191.463 213.842 191.463C215.443 185.972 216.747 180.189 214.81 174.362C214.81 173.708 214.156 174.692 213.842 175.017C213.145 176.618 212.198 177.948 210.868 178.896C206.973 180.806 202.376 182.764 198.124 181.801C199.428 176.613 199.428 170.819 197.805 165.636Z" fill="white"/>
<path d="M210.533 196.326C217.072 195.007 222.962 192.15 227.532 186.605C236.056 175.991 234.742 162.119 229.82 150.488C228.197 145.971 225.26 142.119 221.658 138.532C218.056 135.303 214.151 133.361 209.559 131.759C215.438 131.759 221.334 132.738 226.559 135.303C226.873 135.303 227.538 135.303 227.538 134.973C224.606 124.986 213.842 121.416 205.308 117.239C212.831 117.239 219.7 119.181 226.239 122.709C235.716 128.529 243.223 136.266 247.459 146.285C251.061 154.378 253.328 162.407 253.014 171.117C252.716 184.381 246.836 196.965 236.987 206.016C238.009 203.094 239.302 200.221 239.653 196.965C239.978 194.4 240.951 191.463 239.302 188.883C235.375 194.682 229.171 197.939 222.621 200.221C220.658 200.519 218.37 201.493 216.417 201.493C214.151 201.493 212.198 201.493 209.883 201.493C206.968 201.163 204.302 200.514 201.711 199.865C199.726 199.21 198.124 197.609 196.496 195.991C201.046 196.326 205.962 196.635 210.533 196.326Z" fill="white"/>
<path d="M242.26 235.072C236.45 239.621 233.417 246.012 231.805 253.125C230.805 248.294 231.805 243.479 233.135 238.589C234.391 233.46 236.987 229.256 239.653 224.409C243.548 216.316 247.81 208.894 251.737 201.174C263.809 175.996 256.962 144.997 235.71 125.944C227.862 119.186 218.056 115.941 208.255 114.312C219.051 113.716 230.182 113.36 240.951 116.92C254.998 121.767 265.794 133.366 270.045 147.594C275.568 165.966 272.95 184.387 268.396 203.105C265.113 217.301 258.936 229.262 255.988 243.782C254.668 251.518 254.668 258.606 254.019 266.395C254.019 267.986 254.668 269.609 253.689 270.902C253.008 267.688 251.056 265.049 250.076 261.878C248.773 255.733 247.171 249.922 247.171 243.787C247.171 239.611 247.805 235.391 247.805 231.193C247.805 230.869 247.453 230.869 247.171 230.869C245.203 232.156 243.846 233.768 242.26 235.072Z" fill="white"/>
<path d="M218.37 107.518L218.056 107.204L217.742 107.518C218.056 107.518 218.056 107.518 218.37 107.518Z" fill="white"/>
<path d="M191.239 116.249C178.331 121.362 166.413 128.859 157.926 139.852C155.957 138.857 154.654 136.58 154.34 134.68C154.005 134.35 154.994 133.361 155.659 132.738C155.957 132.408 155.659 132.084 155.266 132.084C166.413 116.909 183.402 105.943 202.695 104.655C214.47 103.676 226.867 105.634 236.982 112.376C233.13 111.429 229.161 110.466 225.255 110.141C219.998 110.141 214.8 110.141 209.554 111.072C204.983 112.051 200.732 113.03 196.14 114.302C194.538 114.956 192.9 115.605 191.239 116.249Z" fill="white"/>
<path d="M164.758 115.27C161.501 117.734 159.251 120.458 156.936 123.347C159.873 113.035 164.758 103.682 172.622 95.9292C172.622 95.9292 173.255 96.2538 172.946 96.5836C170.994 98.5257 169.999 101.415 169.69 103.979C169.025 106.911 169.025 110.146 168.376 113.035C168.046 114.025 166.088 114.307 164.758 115.27Z" fill="white"/>
<path d="M184.753 132.738C176.166 135.867 167.041 139.182 162.124 147.258C161.188 145.63 160.539 143.688 159.533 142.119C170.643 131.11 184.056 118.526 201.051 119.819C207.92 120.171 214.81 123.347 218.375 129.157C219.062 130.152 217.753 129.157 217.412 129.157C206.281 127.566 195.193 128.854 184.753 132.738Z" fill="white"/>
<path d="M175.256 167.254C174.601 167.919 173.91 168.233 173.255 168.557C171.999 165.642 170.334 163.104 169.999 160.156C173.569 156.942 179.507 159.842 179.805 163.396C180.13 164.982 176.873 165.636 175.256 167.254Z" fill="white"/>
<path d="M149.104 231.832C148.391 231.986 147.428 231.491 146.79 231.177C144.523 230.528 141.873 232.811 140.57 230.853C139.617 229.549 139.325 227.293 137.638 226.33C136.691 226.016 135.669 227.293 135.015 226.33C134.052 224.074 132.748 222.137 131.136 220.536C120.324 211.166 106.288 204.382 101.366 190.5C102.696 191.165 104.33 190.814 105.633 190.814C111.215 191.458 116.387 190.192 121.968 191.165C126.22 192.144 130.141 193.416 134.408 194.677C135.015 194.677 136.02 195.001 136.691 194.677C137.015 195.342 137.994 195.001 138.292 195.001C140.575 195.656 142.554 195.656 144.837 195.996C146.795 195.996 148.466 196.326 150.365 195.996C149.429 202.77 144.528 208.239 141.879 214.385C141.879 214.699 142.868 214.699 143.209 214.699C143.874 214.108 144.188 214.385 144.837 214.385C149.737 213.097 152.999 209.543 157.25 207.287C155.665 210.192 154.345 213.406 154.01 216.641C153.339 219.897 154.01 222.776 154.01 226.021C154.345 228.629 151.695 231.177 149.104 231.832Z" fill="white"/>
<path d="M135.669 191.171C130.694 190.33 126.219 189.213 121.644 186.605C119.35 185.328 115.764 184.381 114.759 181.476C126.533 186.978 140.261 186.605 152.999 185.972C152.35 186.611 152.669 187.584 152.669 188.281C152.344 189.542 152.344 190.511 152.344 191.798C152.344 192.15 151.69 192.448 151.69 192.448C150.36 191.463 149.104 192.15 147.753 192.15C145.827 191.798 143.868 191.798 141.873 192.15C139.979 192.15 137.643 191.463 135.669 191.171Z" fill="white"/>
<path d="M87.9685 182.764C73.2619 177.549 59.5024 166.94 56.2727 151.441C63.4557 157.927 71.9583 163.098 81.4453 164.982C88.6283 170.196 96.4658 176.315 105.634 177.592C108.863 181.146 111.838 185.328 116.387 187.297C116.089 187.297 116.089 187.579 116.089 187.909C106.602 186.978 97.1469 185.972 87.9685 182.764Z" fill="white"/>
<path d="M124.565 180.497C120.425 179.476 117.052 178.241 113.147 176.97C110.539 175.991 107.581 174.687 104.644 174.038C104.33 173.708 103.649 173.399 103.989 173.399C107.251 172.75 110.534 171.771 113.471 171.771C120.654 172.426 127.853 174.038 134.057 177.299C135.361 178.247 133.392 181.152 132.088 181.482C129.832 181.801 127.183 181.146 124.565 180.497Z" fill="white"/>
<path d="M132.44 171.771C127.901 170.68 123.597 170.484 119.037 169.521C121.09 168.541 122.633 167.355 123.91 165.966C127.848 167.259 132.083 166.945 136.334 167.6C135.669 169.212 136.334 171.127 135.669 172.756C134.706 172.096 133.733 172.096 132.44 171.771Z" fill="white"/>
<path d="M127.183 162.407C129.481 159.518 133.078 157.559 134.408 154.048C134.706 153.723 135.015 153.723 135.355 153.723C134.701 156.937 136.925 160.055 135.919 163.258C135.925 163.258 129.167 163.098 127.183 162.407Z" fill="white"/>
<path d="M99.0889 213.72C96.0614 215.236 92.8796 215.662 90.2618 213.72C87.6386 211.453 86.9895 207.287 87.6386 204.073C85.356 201.823 81.7485 200.221 80.8121 196.965C80.4449 195.997 81.4506 196.635 81.4506 195.997C82.0731 195.997 82.7276 195.661 82.7276 195.347C82.7276 191.463 81.7485 187.584 82.7276 183.738C87.3034 186.334 91.8633 188.883 97.4501 189.207C100.366 197.284 106.602 203.419 111.508 210.187C107.251 211.171 103.016 211.826 99.0889 213.72Z" fill="white"/>
<path d="M40.8745 206.665C39.5443 201.892 40.5925 196.965 38.6238 192.442C35.027 193.714 31.4248 194.044 27.514 193.421C22.9382 196.326 22.9382 202.137 21.9485 206.968C21.294 208.553 19.6659 209.234 19.0168 210.522C18.6762 211.459 20.3469 213.725 19.3254 213.725C15.7445 213.411 15.0475 208.894 16.069 205.707C17.3886 201.498 20.9908 198.593 22.2624 194.4C22.9435 193.421 21.294 192.448 20.3523 192.74C14.1163 195.996 9.50853 201.498 2.65538 202.775C3.30983 203.738 3.67697 205.058 4.28354 206.329C1.70828 206.329 0.0322393 203.424 0.362127 201.168C0.686694 197.944 3.30983 195.347 6.26818 195.347C13.7758 194.682 19.6712 189.883 26.5297 187.297C27.8492 186.605 29.504 185.967 30.781 185.967C33.3722 186.334 35.6814 185.967 38.2779 186.334C41.5768 186.605 44.8225 187.297 47.7702 188.883C53.6922 192.144 60.1836 194.044 66.3876 195.996C70.3569 197.284 74.2517 197.614 78.1465 197.939C78.8541 201.493 82.7383 202.445 83.7599 206.015C84.0738 207.287 83.7599 208.24 83.7599 209.229C79.8066 204.707 74.5762 202.131 69.0693 200.221C66.3929 199.216 63.4718 198.588 60.5401 198.236C60.1836 198.236 59.2205 198.237 59.2205 198.918C59.2205 202.131 59.2205 206.015 56.6293 208.24C56.2888 206.329 56.9272 204.712 56.6293 202.775C55.9482 200.849 55.9482 198.593 54.9586 197.289C52.676 194.049 48.7971 194.4 45.1524 193.719C44.8278 193.719 43.8807 192.74 43.8807 193.719C44.8278 200.849 50.4146 209.548 44.5299 215.667C44.1946 214.39 45.4823 212.73 44.5299 212.14C42.8804 210.522 41.5662 208.889 40.8745 206.665Z" fill="white"/>
<path d="M128.986 269.444C128.023 267.161 128.023 264.911 128.672 262.66C131.264 251.694 139.452 243.277 147.604 236.195C145.337 234.577 142.075 236.817 140.107 235.854C138.165 234.891 137.824 230.698 134.541 231.645C134.882 234.582 134.201 237.131 133.578 239.749C130.614 247.177 126.704 253.918 122.144 261.043C120.5 263.948 115.573 271.386 114.636 271.386C109.081 271.684 103.159 272.333 97.631 272.333C94.0023 272.333 91.4376 273.626 88.5219 275.51L86.0317 278.952C86.0317 278.952 86.8245 281.714 87.4737 282.991C88.1547 284.278 89.4424 285.231 90.4214 286.561C90.7779 284.917 89.7563 283.321 90.1075 281.714C90.4214 281.352 90.7725 280.415 91.725 280.724C93.7096 281.038 95.6464 280.112 96.3008 278.159C97.2798 278.782 97.9822 277.904 98.892 278.159C101.542 278.782 103.808 277.521 106.118 279.08C102.861 282.336 99.2592 285.231 98.892 290.089C98.892 291.052 98.892 291.717 99.5997 292.68C100.238 293.643 101.542 294.297 102.856 294.297C102.505 292.387 101.877 290.738 102.856 288.801C109.076 289.434 112.008 283.321 114.29 278.782C119.164 277.819 124.081 279.08 128.981 278.495C129.635 280.41 131.264 282.336 133.243 282.991C134.876 283.321 136.489 282.991 137.819 282.991C139.772 283.321 139.447 286.178 139.447 288.146C142.395 285.598 141.756 281.038 138.452 279.08C137.585 276.302 130.301 272.333 128.986 269.444Z" fill="white"/>
<path d="M139.979 258.292C138.266 259.941 135.361 260.532 133.078 259.244C133.733 258.595 134.408 257.659 134.408 256.696C136.691 257.318 139.325 257.009 141.607 256.696C141.607 257.659 140.575 257.659 139.979 258.292Z" fill="white"/>
<path d="M193.208 227.948C190.909 228.102 188.659 229.251 186.69 228.927C191.889 226.335 195.826 222.143 198.444 217.29C198.779 216.966 197.8 215.662 197.443 216.003C193.208 217.29 188.318 216.971 185.03 214.108C189.622 214.108 193.873 212.448 198.124 210.522C201.046 208.889 202.695 206.329 205.307 204.712C215.742 206.968 226.873 204.382 235.37 198.237C230.81 206.329 229.166 215.369 226.234 224.074C225.255 228.283 224.915 232.476 224.601 236.642C221.014 232.8 220.653 227.65 219.051 223.095C213.464 228.283 210.527 235.37 208.255 242.787C206.584 248.906 207.287 255.062 206.968 261.181C201.365 248.906 204.302 234.71 205.648 221.807C201.37 224.079 198.124 227.655 193.208 227.948Z" fill="white"/>
<path d="M146.481 182.764C145.486 182.764 144.837 183.094 143.874 182.764C146.481 180.806 149.429 179.508 150.732 176.97C151.695 175.666 152.046 174.362 152.999 173.399C152.669 176.613 154.005 180.189 152.35 183.418C150.365 182.764 148.466 182.764 146.481 182.764Z" fill="white"/>
</svg>
